<?xml version="1.0" encoding="utf-8"?>
<!-- Generator: Adobe Illustrator 23.0.3, SVG Export Plug-In . SVG Version: 6.00 Build 0)  -->
<svg version="1.1" id="Livello_1" xmlns="http://www.w3.org/2000/svg" xmlns:xlink="http://www.w3.org/1999/xlink" x="0px" y="0px"
	 viewBox="0 0 512 512" style="enable-background:new 0 0 512 512;" xml:space="preserve">
<style type="text/css">
	.st0{fill:#C4763A;}
	.st1{fill:#FFFFFF;}
</style>
<path class="st0" d="M96,0h320c53,0,96,43,96,96v320c0,53-43,96-96,96H96c-53,0-96-43-96-96V96C0,43,43,0,96,0z"/>
<path class="st1" d="M392.8,161.7l0.1,0.2l-0.1,0.9c-0.1,1.3,0.2,2.7,0.8,3.8c0.6,1.2,1.4,2.2,2.8,2.6c0.2,0.1,0.4,0.1,0.6,0.1
	c1.1,0.1,1.8,0,2.9-0.3c0.4-0.2,0.9-0.4,1.3-0.6l0.4-0.2l0.2-0.1c0.4-0.3,0.9-0.6,1.1-1l0.5-0.5c1.6-1.8,2.3-4.3,1-6.5
	c-0.2-0.3-0.5-0.7-0.8-1l-0.1-0.1c-0.2-0.4-0.3-0.7-0.5-1c-1.1-1.6-2.9-2-4.7-1.7l-0.6,0.1l-0.5,0c-0.2,0-0.5,0-0.7,0.1
	c-1.4,0.1-2.8,0.9-3.6,2c-0.1,0.2-0.3,0.4-0.4,0.6c-0.2,0.6-0.2,1.8,0.1,2.4C392.6,161.5,392.7,161.6,392.8,161.7z M395.3,162.3
	c0.1-0.9,0.5-1.7,1-2.4c0.2-0.3,0.6-0.5,0.8-0.8c0.2-0.2,0.6-0.4,1-0.4l0.4-0.1l0.8,0.2c0.7,0.3,1.4,0.6,2,1l0.2,0.3
	c0,0.2,0.1,0.3,0.2,0.5c0.1,0.4,0.1,0.8,0.2,1.2c0.2,1.4-0.2,3.6-1.7,4.2c-0.2,0.1-0.3,0.2-0.4,0.3l-0.1,0.1l-0.1,0.1
	c-0.2,0.1-0.4,0.2-0.6,0.2h0c-1,0.4-2,0.3-2.6-0.4l-0.5-0.7c-0.3-0.5-0.5-1.1-0.6-1.7l0-0.1l0.3,0c0.3,0,0.6,0,0.9,0
	c0.5,0,1.1-0.3,1.5-0.5c0.1-0.1,0.4-0.2,0.5-0.3c0.3-0.2,0.4-0.6,0.2-0.9c-0.2-0.3-0.6-0.4-1-0.2c-0.5,0.3-1,0.6-1.5,0.6l-1-0.1
	L395.3,162.3z"/>
<path class="st1" d="M346.2,371.9c-2.6-2.3-5.2-4.6-7.7-7c-2.7-2.6-5.3-5.2-8-7.9c-3.7-3.7-7.2-7.7-10.6-11.6
	c-2.4-2.7-4.8-5.5-7.1-8.2c-4.3-5-8.5-10.1-12.7-15.2c-4-4.8-8-9.5-12.1-14.3c-0.1-0.1-0.2-0.1-0.4,0c-0.1,0.1-0.1,0.2,0,0.3
	c2.4,2.9,4.9,5.7,7.3,8.6c4,4.7,7.9,9.5,11.8,14.3c3.9,4.7,7.8,9.4,11.8,13.9c2.6,3,5.2,5.9,7.9,8.8c2.4,2.5,4.7,5.1,7.2,7.5
	c2.4,2.4,4.8,4.7,7.3,7c3.2,2.9,6.5,5.8,10,8.3l0.3,0l0-0.3C349.5,374.7,347.8,373.3,346.2,371.9z"/>
<path class="st1" d="M402,361c-0.3-0.9-0.7-1.9-1.5-2.5c-0.3-0.2-0.4-0.4-0.8-0.5c-0.3,0-0.7,0-1,0c-1.9,0-3.7,0.2-5.4,1.1
	c-1,0.6-1.7,1.1-2.4,2c-0.5,0.6-0.4,2.6-0.3,3.4c0.6,3.9,3.7,6.2,7.7,5.3c0.9-0.2,3.2-1.4,3.5-2.3c0.2-0.5-0.1-2.4-0.1-3.1l0.1-0.3
	C402.2,363,402.2,362,402,361z M398.9,360.5l0.2,0.2L398.9,360.5l-0.3,0L398.9,360.5z M399.3,363.5c-0.3,1-1,1.9-2,2.5
	c-0.5,0.3-0.7,0.8-0.6,1.3l-0.6,0c-1.4-0.2-2.4-1.4-2.8-2.8c-0.1-0.2-0.1-0.4-0.1-0.6l0-0.4l0.1-0.4c0.1-0.3,0.3-0.7,0.5-1l0.2-0.2
	l0.5-0.3c1.1-0.6,1.8-0.5,3.1,0.1c0.3,0.1,1,0.6,1.2,0.8l0.5,0.5L399.3,363.5z"/>
<path class="st1" d="M419.3,196.9L419.3,196.9L419.3,196.9C419.3,196.8,419.3,196.8,419.3,196.9
	C419.3,196.9,419.3,196.9,419.3,196.9z"/>
<path class="st1" d="M424.1,176.7c-0.1-0.6-0.4-1.4-0.5-2c-0.3-1.3-0.6-2.7-0.8-4c-0.8-5-1.4-10.1-3.5-14.9c-0.5-1-1.2-2.3-1.9-3.2
	c-0.2-0.3-0.4-0.5-0.7-0.8c-0.6-1.7-1.4-3.3-2.4-4.6c-0.6-0.8-1.2-1.2-2-1.8c-0.5-0.4-1.3-0.7-1.9-0.9c-0.5-0.2-2-0.3-2.5-0.3
	c-0.8,0-1.5-0.1-2.3-0.1c-1.2,0-2.4,0.1-3.5,0.1c0,0,0,0,0,0c-5.2-1.1-10.7-1.4-15.9-1.1c-1,0.1-2.1,0.2-3.1,0.3
	c-0.7,0.1-1.5,0.2-2.2,0.3c-0.3,0-0.6-0.1-0.8-0.1c-1.2-0.2-2.4-0.3-3.5-0.4c-0.8-0.1-1.6-0.1-2.4-0.3c-0.7-0.1-1.5-0.2-2.2-0.2
	c-1.7-0.2-3.4-0.3-5.2-0.5c-3.8-0.3-7.6-0.6-11.4-0.8c-0.5,0-1.1-0.1-1.6-0.1c-0.6-0.1-1.1-0.1-1.7-0.2c-10.8-1.1-21.6-2.2-32.4-3.1
	c-1.2-0.1-2.3-0.2-3.5-0.3c-0.1-3.2-0.8-5.6-3.1-8c-1-1.1-2.4-1.9-3.7-2.5l-1.1-0.9c-0.9-0.7-1.9-1.3-3-1.7
	c-0.1-0.4-0.3-0.9-0.4-1.3c-0.6-2-1.1-4-1.6-5.9c-0.4-1.4-0.8-2.7-1.2-4.1l-0.1,0l0.1,0l0.1-0.1l0.2,0.6c0.8-0.1,1.4-0.8,1.3-1.5
	c-0.1-0.6-0.5-1-1.2-0.9c0,0,0,0,0,0c0.1-0.3,0.2-0.7,0.3-1.1c0.5-0.2,1-0.6,1.3-1.2c1.1-2.3,1.7-4.6,1.6-7.1
	c-0.1-5.8-3.6-10.9-9.1-13.2c-2.4-1-4.5-1.2-7-1.5c-1.6-0.2-3.3-0.4-4.9-0.5c-6.8-0.7-13.8-1.3-20.6-1.6c-3.1-0.1-6.2-0.2-9.2-0.2
	c-0.8,0-1.7,0-2.5,0c-1.3,0-2.6,0-3.9,0.1c-1.1,0-2.3,0.1-3.4,0.2c-3.6,0.1-7.3,0.5-10.9,0.9c-2.3,0.2-4.6,0.5-6.8,0.8
	c-3,0.4-6,0.8-9,1.4c-1.2,0.2-2.5,0.6-3.7,1c-0.7,0.1-1.3,0.2-2,0.4c-0.7,0.1-1.5,0.4-2.2,0.6c-0.5,0.2-1,0.3-1.5,0.5
	c-1,0.5-2.1,1.4-2.7,2.4c-0.1,0.1-0.2,0.3-0.3,0.4c-2.5,1.9-4.3,4.4-4.7,7.7c-0.1,1.1,0,2.3,0.2,3.3c0,0.1,0,0.3,0.2,0.5
	c0,0.1,0,0.2,0,0.2c-0.1,1,0.2,1.9,0.8,2.8c0,0.7,0,1.4,0,2.2c0,0.2,0.1,0.3,0.3,0.3s0.3-0.1,0.3-0.3c0-0.4,0-0.9,0-1.4
	c0,0,0.1,0.1,0.1,0.1c0.3,0.6,0.6,1.1,0.9,1.6c0,0,0.1,0.1,0.1,0.1c0,0,0,0,0,0.1c-0.3,1.5-0.6,3.1-0.9,4.7c-0.4,2-0.8,4.2-1,6.2
	c-0.1,0.5-0.1,1.1-0.1,1.6c-0.1,0.7-0.3,1.6-0.2,2.4c0,0.9,0.1,1.7,0.2,2.5c-1.9,0.4-3.7,1.2-5.2,2.5l-0.4,0.4l-0.5,0.4
	c-1.2,1-2.2,2.2-2.7,3.6c-0.2,0.6-0.3,1.1-0.4,1.7c-3.4,0.2-6.9,0.3-10.3,0.5c-5.1,0.3-10.3,0.6-15.4,1c-3.7,0.3-7.4,0.8-11.1,1.2
	c-3.9,0.4-7.9,1-11.8,1.6c-0.3,0-0.7,0-1,0c-1.6,0-3.1,0.1-4.7,0.1c-0.2-0.6-0.8-1.2-1.5-1.3c-1.1-0.3-2.2,0.4-2.6,1.4
	c-0.9,0-1.7,0-2.6,0l-1-0.1l0,0c-1.4-0.1-2.9-0.2-4.3-0.3c-1-0.1-2.1-0.1-3.1-0.2c-0.8,0-1.7-0.1-2.5-0.1c-1.5,0-2.9,0-4.4,0
	c-0.6,0-1.1,0-1.7,0c-1.8-0.2-3.6-0.4-5.3-0.7c-0.3,0-0.6,0.2-0.6,0.4c0,0.3,0.2,0.5,0.5,0.6c0.1,0,0.2,0,0.3,0.1
	c-1.3,0.2-2.7,0.4-4,0.8c-4.1,1.2-7.9,4.1-10.3,7.6c-1.1,1.6-1.8,3.1-2.3,5c-1.2,4.1-1.2,8.7-1.3,12.9c0,1.2-0.1,2.4-0.1,3.6
	c-0.1,0.3-0.1,0.6-0.2,0.9c-0.4,0.2-0.8,0.6-0.8,1.1c-0.1,1.7-0.2,3.5-0.2,5.2c0,0.2-0.1,0.5-0.1,0.7c-0.5,2.7-0.7,5.5-0.9,8.3
	c-0.2,2.2-0.4,4.5-0.5,10.5c-0.2,0-0.2,0.1-0.2,0.2c0,0.7,0.1,1.4,0.1,2c-0.2,2.4-0.3,4.7-0.3,7c-0.1,7.6,0.1,15.2,0.4,22.8
	c0,1.1,0.1,2.2,0.1,3.3c0,0.2,0,0.4,0,0.7c0,4.7,0.1,9.5,0.2,14.3c0,1.8,0.1,3.6,0.2,5.4c0,0.1,0,0.3,0,0.4c0,4.9,0.1,9.9,0.2,14.8
	c0,2.7,0.1,5.4,0.1,8.1c0.1,4.3,0.1,8.5,0.4,12.8c0.2,3.6,0.4,7.1,0.7,10.7c0,0.3,0,0.6,0,0.9c-0.2,7.8-0.4,15.7-0.3,23.5
	c0,4.5,0.1,9,0.2,13.5c0.1,7.1,0.5,14.3,1.1,21.4c-0.2,6.8,0.7,13.8,5.2,18.8c0.8,0.9,1.8,1.7,2.8,2.3c0.4,0.3,0.9,0.5,1.3,0.7
	c0.3,0.2,0.7,0.3,1.1,0.5c2.3,1,4.9,1.4,7.4,1.6c3.4,0.3,6.9,0.6,10.3,0.5c1.7-0.1,3.4-0.1,5.1-0.3c0.3,0,0.6,0,0.8-0.1
	c0.8,0.1,1.7,0.2,2.5,0.2c0.4,0,0.8-0.2,1-0.5c1-0.1,2-0.2,3-0.2c2.2-0.1,4.4-0.3,6.6-0.2c0.7,0,1.5,0,2.2,0.1c0.4,0,0.9,0.1,1.3,0
	c0.4-0.1,0.8-0.3,1.1-0.5c0,0,0,0,0,0c1.6,0.1,3.2,0.1,4.8,0.2c3.4,0.1,6.7,0.1,14.9,0c0,0,0.1,0,0.1,0.1c0.8,0.8,1.6,1.7,2.4,2.5
	c0.2,0.2,0.5,0.2,0.7,0c0.2-0.2,0.2-0.5,0-0.7c-0.6-0.6-1.2-1.2-1.8-1.8c2.6,0,5.2-0.1,7.8-0.1c0,0,0,0,0,0c0.7,0.6,1.3,1.3,2,1.9
	c0.2,0.2,0.5,0.2,0.6,0c0.2-0.2,0.2-0.4,0-0.6c-0.5-0.4-0.9-0.9-1.4-1.3c3.6,0,7.2-0.1,10.7-0.1c0.1,0,0.3,0,0.4,0
	c0.6,0.5,1.2,0.9,1.8,1.4c0.2,0.1,0.4,0.1,0.5-0.1c0.1-0.1,0.1-0.4-0.1-0.5c-0.4-0.3-0.7-0.5-1.1-0.8c3.1,0,6.2,0,9.2,0
	c0.5,0.5,1,0.9,1.5,1.4c0.2,0.1,0.4,0.1,0.5,0c0.1-0.1,0.1-0.4,0-0.5c-0.3-0.3-0.6-0.5-0.9-0.8c2.2,0,4.4,0.1,6.6,0.1
	c1.3,0,2.7,0.1,4,0.1c0.8,0.8,1.7,1.6,2.5,2.4c0.1,0.1,0.3,0.1,0.4,0c0.1-0.1,0.1-0.3,0-0.4c-0.7-0.6-1.4-1.3-2.1-1.9
	c1.1,0,2.1,0.1,3.2,0.1c2.1,0,4.1,0.1,6.2,0.1c1.2,1.2,2.5,2.4,3.8,3.4l0.3,0l0-0.3c-1.1-1-2.2-2.1-3.3-3.1c3.9,0,7.8,0.1,11.7,0.1
	c0.7,0.5,1.4,1,2,1.5c0.1,0.1,0.3,0.1,0.5,0c0.1-0.1,0.1-0.3-0.1-0.4c-0.4-0.3-0.8-0.6-1.2-1c1.7,0,3.5,0,5.2,0c4,0,8,0.1,11.9,0.1
	c1.3,0.9,2.6,1.8,3.9,2.7c0.2,0.1,0.4,0.1,0.5-0.1c0.1-0.1,0.1-0.4-0.1-0.5c-1-0.7-2-1.4-3-2.1c7.5,0,15,0.1,22.6,0
	c2,1.9,4,3.7,6,5.4c0.3,0.2,0.7,0.2,0.9,0c0.2-0.3,0.2-0.7,0-0.9c-1.7-1.4-3.4-3-5-4.5c0,0,0,0,0,0c0,0,0.1,0,0.1,0
	c9.6,0,19.3,0,28.9-0.1c3.6,0,7.1,0,10.7-0.1c6.4-0.1,12.8-0.2,19.3-0.3c11.1-0.2,22.3-0.5,33.4-0.8c0.1,0.1,0.3,0.2,0.4,0.2
	c0.3,0.2,0.9,0.3,1.3,0.4c1.7,0.4,3.4,0.7,5.1,1c1.1,0.2,2.4,0.4,3.5,0.5c3.5,0.5,6.9,0.9,10.4,1.2c1.2,0.1,2.5,0.1,3.7,0.1
	c3.2,0.1,6.5,0,9.6-0.2c3.2-0.2,6.9-0.6,9.9-1.5c1.2-0.4,2.5-0.7,3.5-1.3c0.7-0.4,1.2-0.7,1.8-1.1c1.1-0.7,1.9-2,2.6-3
	c0.3-0.5,0.6-1.1,0.9-1.6c1.2-2.3,1.7-4.6,2.2-7c0.4-2,0.5-4.2,0.5-6.2c0.2-5.3-0.4-10.6-1-15.8c0.1-2.4,0.2-4.8,0.2-7.1
	c0.3-7.5,0.4-15,0.7-22.6c0-0.3-0.2-0.6-0.6-0.6c-0.1,0-0.1,0-0.2,0c0-1.1,0-2.1,0-3.2c0.1-5.6,0.2-11.3,0.2-16.9
	c0.1-5.3,0.1-10.6,0.1-15.9c0-0.9,0-1.8,0-2.7c0-0.1,0-0.2,0-0.3c0.2-2.8,0.6-5.7,0.8-8.5c0.1-1.6,0.3-3.3,0.5-4.9
	c0.1-0.7,0.1-1.4,0.2-2.1c0.5-5.9,0.7-11.7,0.7-17.6c0-2.5,0-5-0.1-7.4c-0.2-4.9-0.2-9.8-0.6-14.6c-0.1-1.3-0.3-2.6-0.4-3.9
	c-0.1-1.1-0.3-2.2-0.4-3.3c0.2-6.4,0.3-12.7,0.5-19.1c0-0.1-0.1-0.2-0.2-0.2s-0.2,0.1-0.2,0.2c0,0.8-0.1,1.7-0.1,2.5
	c-0.7-0.5-1.3-1.1-2-1.6c0-0.2,0-0.4-0.1-0.5c0,0,0,0,0,0c0,0,0-0.1,0-0.1l0,0c0-1.2-0.1-2.4-0.2-3.5l0,0.2l0-0.2v0l0.2-3.3
	c0.1-1.3,0.1-2.7,0.2-4c0.1-1.3,0.1-2.7,0.2-4c0.1,0.1,0.2,0.3,0.4,0.4c0,1.1-0.1,2.2-0.1,3.3c0,1.1-0.1,2.2,0,3.3
	c0.1,0.9,0.4,2.9,1,3.6c0.3-1.1,0.6-2.2,0.8-3.4c0.1-1.1,0.1-2.2,0.1-3.3c0-0.4,0-0.8,0-1.2c0.1,0.1,0.1,0.2,0.2,0.3
	c0.2,0.2,0.5,0.2,0.7,0.1c0.2-0.2,0.3-0.4,0.1-0.7c-0.3-0.4-0.7-0.8-1-1.3c0-0.3,0-0.6,0-1c0-1,0-2-0.1-3c0.7-0.1,1.3-0.3,1.7-0.7
	C423.9,178,424.2,177.3,424.1,176.7z M420.9,199.5c0.1,0.1,0.3,0.1,0.4,0c-0.1,4.2-0.3,8.4-0.4,12.6c-0.5-4.5-1-9.1-1.5-13.6
	C419.9,198.9,420.4,199.2,420.9,199.5z M410.6,147.1c-0.2-0.1-0.5-0.2-0.8-0.4l0.5,0.2C410.4,147,410.5,147,410.6,147.1z
	 M409.9,146.8C409.9,146.8,409.9,146.8,409.9,146.8L409.9,146.8L409.9,146.8z M379,150.2l0.3-1.6l0.6-0.2c3-0.7,6.2-1.1,9.4-1.1
	c0.3,0,0.6,0,0.9,0c0.1,0.2,0.3,0.3,0.5,0.3c0.9,0,1.8-0.1,2.7-0.1c0.2-0.1,1,0,1.8,0.1c0,0,0,0,0,0c0,0-0.1,0-0.1,0
	c-0.7-0.1-0.6-0.1-0.4-0.1c0,0,0,0,0.4,0.1c-0.2-0.1-0.1,0,0.1,0c0,0,0,0,0.1,0c0,0,0,0-0.1,0c2.6,0.2,5.2,0.6,7.7,1.3
	c1.4,0.4,2.7,0.7,4,1.3c0.4,0.2,0.8,0.4,1.2,0.5c1.4,0.8,2.9,1.7,3.8,2.9c0.3,0.3,0.6,0.7,0.8,1.1c0.3,0.4,0.5,0.9,0.7,1.3
	c0.2,0.4,0.7,0.6,1.1,0.4c0.6,0.8,1,1.6,1.3,2.5c0.2,1.4,0.4,2.8,0.5,4.2c0.3,2.4,0.5,4.5,1.1,6.7c0.1,1.7,0.1,3.5,0.1,5.2
	c-0.1,0.1-0.3,0.2-0.4,0.3c-0.4,0.3-1,0.6-1.5,0.9c-1.1-1-2.2-1.9-3.3-2.9c-0.2-0.2-0.5-0.1-0.7,0.1c-0.2,0.2-0.2,0.5,0.1,0.7
	c0.5,0.5,1.1,0.9,1.7,1.4c0.4,0.4,0.8,0.7,1.3,1.1c-0.5,0.1-1.1,0.3-1.6,0.4c-1.2,0.3-2.4,0.7-3.6,0.9h0c-0.5,0.1-0.9,0.2-1.4,0.3
	c-1.7,0.1-3.3,0-4.9-0.2c-1.2-0.1-2.4-0.4-3.5-0.6l-0.5-0.2l-1.2-0.5c-2-1-4-2.2-5.9-3.5c-1.4-1-2.7-2.1-4-3.3
	c-1.6-1.4-2.9-2.9-4.3-4.5c-1.5-1.7-3-3.7-4.2-5.6c-0.2-0.9-0.3-1.8-0.4-2.8c0,0,0,0,0,0c0.3,0.3,0.7,0.5,1,0.8
	c1.4,1,2.7,1.9,4.1,2.8c-1.1-1.2-2.1-2.4-3.3-3.6c-0.6-0.6-1.3-1.1-1.9-1.7C378.8,153.6,378.8,151.8,379,150.2z M414.4,217.8
	c-0.4,13-0.7,25.9-0.8,38.8c-7.2-6.7-12.5-12-17.5-17.7c-1.9-2.1-3.7-4.4-5.4-6.6c0.8,0.6,1.6,1.3,2.4,1.9c1.3,1,2.5,2.2,3.7,3.2
	c2.6,2.3,5.1,4.8,7.9,7c1.2,0.9,2.3,1.9,3.6,2.8c0.8,0.6,1.9,0.4,2.4-0.4c0.6-0.8,0.4-1.8-0.4-2.4c-1.3-0.8-2.5-1.9-3.7-2.8
	c-2.7-2.2-5.4-4.6-8-7c-1.8-1.6-3.6-3-5.5-4.6l-0.9-0.7c1.5-1.2,2.8-2.5,4.2-3.8c0,0,0.1-0.1,0.1-0.1c1.2,1.7,2.5,3.3,3.8,4.8
	c1.4,1.6,2.8,3.2,4.3,4.7c0.8,0.8,1.7,1.7,2.5,2.5c1,0.9,2,1.8,3,2.7c-4.8-4.6-9.2-9.8-13-15.4c3.5-3.6,6.7-7.5,10.2-11.1
	c1.2-1.3,2.4-2.4,3.7-3.6c1.1,1.8,2.3,3.6,3.4,5.3C414.5,216.2,414.5,217,414.4,217.8L414.4,217.8z M413.5,282.7
	c-2.4-2.9-4.8-5.9-7.2-8.8c-6.8-8.4-13.7-16.8-20.5-25.2c-2.6-3.2-5.2-6.3-7.8-9.5c1.4,0.1,3-0.1,4-0.2c0.6-0.1,1.7-0.2,2.4-0.2
	l0.4,0l0.6,0.6l0.1,0.6c0.1,0.4,0.1,0.7,0.1,1.1c0,0.6,0,1.2,0,1.8c0,1.5-0.1,2.8,0.2,4.2c0.1,0.3,0.1,0.6,0.2,0.9
	c0.3,0.9,1.2,1.2,2,1c1.9-0.3,3.7-0.8,5.5-1.2c1.5-0.3,3.3-0.5,4.7,0.3c0.2,0.1,0.3,0.3,0.4,0.4l0.3,0.3l0.3,0.8
	c0.1,0.3,0.2,0.6,0.2,1c0.2,3,0,7.5,3.2,9.1c1.8,0.9,4.4,0.2,6.2-0.5c0.6-0.2,1.2-0.4,1.8-0.7c0.7-0.3,1.4-0.4,2.2-0.6h0
	c0.2,0.3,0.5,0.5,0.7,0.7c0,1.2,0,2.4,0,3.6C413.5,269.2,413.4,276,413.5,282.7z M394.1,210.6c1.4,1.1,2.9,2.2,4.4,3.2
	c0.6,0.4,1.2,0.8,1.8,1.3c0.3,0.2,0.5,0.4,0.8,0.5c-1.9,2.1-3.9,4.3-5.8,6.3c-1.4-2.2-2.7-4.5-3.9-6.8c0.1-0.1,0.1-0.1,0.2-0.2
	c1.1-1.4,1.5-3.1,1.8-4.8C393.6,210.2,393.8,210.4,394.1,210.6z M393.5,209.1c0.1-0.8,0.2-1.7,0.3-2.5l0.1-0.5l0.7,0.1
	c3,0.5,7,1.1,9.1-1.1c0,0,0,0,0,0c1.3,1.2,2.7,2.3,4.1,3.4c-2.4,2.2-4.6,4.5-6.8,6.9c-2.1-1.8-4.2-3.5-6.4-5.3
	C394.4,209.8,394,209.5,393.5,209.1z M411.7,209.4c0.3-0.3,0.7-0.6,1-0.9c0.6-0.6,0.7-1.5,0.1-2.1c-0.6-0.6-1.6-0.7-2.2-0.1
	c-0.2,0.2-0.4,0.4-0.6,0.5c-0.7-1.1-1.4-2.2-2.2-3.4c-0.1-0.2-0.4-0.3-0.6-0.1c-0.2,0.1-0.3,0.4-0.1,0.6c0.7,1.2,1.5,2.3,2.2,3.5
	c-0.2,0.2-0.4,0.3-0.6,0.5c-1.4-1.1-2.8-2.3-4.1-3.4c0.2-0.3,0.4-0.6,0.5-1c0.4-1.1,0.6-2.5,0.6-3.7l0-0.2l0.2,0h1.5
	c2.3,2.2,4.8,4.3,7.4,6.2c-0.1,2.7-0.2,5.4-0.3,8.2C413.6,212.4,412.7,210.9,411.7,209.4z M412.8,203c-1.4-1.2-2.8-2.3-4.1-3.6
	c1-0.1,2-0.4,2.6-1.1c0.3-0.4,0.5-0.8,0.6-1.2l0.2-0.4l3,0c0.1,0,0.1,0,0.2,0c-0.1,1.6-0.1,3.1-0.2,4.7c0,1.1-0.1,2.3-0.1,3.4
	C414.2,204.2,413.5,203.6,412.8,203z M415.1,193.5c-4.4-3.8-7.8-7.1-11-10.6c3.1-0.1,6.1-1,9.1-1.8c1-0.2,2-0.5,3-0.7
	c-0.1,0.6-0.1,1.3-0.1,1.9c-0.2,2.9-0.3,5.9-0.5,8.8c-0.1,0.8-0.1,1.6-0.1,2.4C415.3,193.5,415.2,193.5,415.1,193.5z M391.2,174
	l-1.5-0.8c-3.8-2.3-7-5.3-9.4-9c-0.2-0.8-0.4-1.6-0.5-2.4c0,0,0,0,0,0c1.1,1.6,2.4,3.2,3.7,4.8c1,1.2,2.2,2.5,3.4,3.6
	c1,0.9,1.9,1.8,2.9,2.7L391.2,174z M375.6,147.2c0,0.1,0,0.2,0.1,0.3c0.2,0.5,0.6,1,1.1,1.2l0.4,0.1l-0.2,1.1
	c-0.2,1.1-0.3,2.3-0.3,3.5c-0.5-0.4-0.9-0.8-1.3-1.1c-0.1-0.3-0.2-0.6-0.3-0.9c-0.1-0.2-0.3-0.3-0.6-0.2c-0.1,0-0.1,0.1-0.2,0.1
	c-1.7-1.5-3.3-3.1-4.4-4.6C371.7,146.9,373.7,147,375.6,147.2z M301.9,130.6c0.5,0.1,0.9,0.1,1.4,0.2c0,0.1,0.1,0.3,0.2,0.4
	c0.4,0.9,0.9,1.8,1.3,2.7c0.3,0.7,1.2,1,1.9,0.6s1-1.2,0.6-1.8c-0.1-0.1-0.1-0.3-0.2-0.4c1.2,0.7,2.3,1.7,3.3,2.9
	c0.5,0.6,1.1,1.7,1.4,2.4c0,0,0,0.1,0,0.1c-7.8-0.7-12.5-0.9-17.3-1.1c-0.4,0-0.9,0-1.3-0.1c0.2-1.4,0.6-2.8,1.5-4.1
	c0.2-0.2,0.4-0.5,0.6-0.8c0.1,0,0.1-0.1,0.2-0.1c0,0,0,0.1,0.1,0.1c0.3,0.4,1.3,0.2,1.6,0.2c0-0.1,0.1-0.1,0.2-0.2c0,0,0,0,0.1,0
	c0.1,0.2,0.4,0.4,0.7,0.3c0.3-0.1,0.4-0.4,0.3-0.6c0.2-0.2,0.4-0.3,0.6-0.5c0-0.1-0.1-0.1-0.1-0.2
	C299.9,130.5,300.9,130.5,301.9,130.6z M299.2,141.5c3.3,3.2,6.9,6.1,10.5,9c0.9,0.8,1.8,1.5,2.8,2.3c-1.7-0.8-3.3-1.6-5-2.4
	c-1.8-0.9-3.7-1.7-5.6-2.5c-1-0.4-1.9-0.9-2.9-1.3c-0.3-0.1-0.7-0.3-1-0.4c-1.7-1.6-3.3-3.3-4.7-5.2c0.1-0.1,0.1-0.2,0.1-0.3
	c0.6,0,1.3,0.1,1.9,0.1c1.3,0,2.5,0.1,3.8,0.1c0.1,0,0.2,0,0.3,0c-0.1,0-0.2,0-0.2,0.1C299,141.2,299,141.4,299.2,141.5z
	 M290.3,136.4c-1.6-0.1-3.2-0.1-4.8-0.2c-4.7-0.1-9.4-0.3-14.1-0.4c-3.4,0-6.8-0.1-10.2-0.2c-8.9-0.1-17.8-0.2-26.7,0
	c-6.2,0.1-12.3,0.1-18.5,0.3c-0.5-1.2-1.2-2.3-2.1-3.6c-0.7-0.9-1.5-1.5-2.4-2.2c0,0,0,0,0,0c0.1-0.1,0.2-0.2,0.2-0.4
	c0-2.4,0.6-5,1.3-7.3c0.3-1.1,0.6-2.3,1-3.4c0.3-0.9,0.6-1.8,0.9-2.8c0.1-0.4,0.3-0.9,0.4-1.3c0-0.1,0-0.1,0.1-0.2
	c0.6-0.1,1.2-0.2,1.8-0.2c0.2,0,0.5,0,0.7-0.1c0.7,0.1,1.4,0.2,2.1,0.4c0.1,0,0.2,0,0.3,0.1c0.1,0.1,0.2,0.2,0.2,0.3
	c0.3,0.4,0.8,0.4,1.2,0.2c0.1-0.1,0.1-0.1,0.2-0.2c1.8,0.3,3.7,0.6,5.5,0.9c0.6,0.1,1.3,0.2,1.9,0.3c0.8,0.1,1.5,0.3,2.3,0.2
	c2.5,0,4.9-0.1,7.4-0.1c7-0.2,14-0.8,20.9-1.1c4-0.2,7.9-0.3,11.9-0.4c2.5-0.1,5.1,0,7.6,0.1c2.2,0.1,4.5,0.2,6.8,0.5
	c0.9,0.1,1.7-0.4,2.1-1.1c0.4,0,0.7,0,1.1,0c0.4,1.1,0.8,2.2,1.3,3.2c0.2,0.8,0.4,1.6,0.7,2.4l0.1,0.4c0.2,0.5,0.4,1.2,0.6,1.8
	l0.1,0.5l0,0.1c0.1,0.3,0.2,0.7,0.3,0.9c0.1,0.5,0.3,1.2,0.4,1.5c0.1,0.2,0.2,0.7,0.3,0.9c0,0.2,0.1,0.6,0.1,1c-1,1.4-1.7,3-2.2,4.7
	c-0.1,0.4-0.2,0.8-0.2,1.2c0,0,0,0,0,0.1c-0.3,0.9-0.4,1.6-0.5,2.5C290.3,136,290.3,136.2,290.3,136.4z M208.2,109.4
	c0.1-0.5,0.2-1,0.4-1.5c0-0.1,0.1-0.2,0.1-0.3c0.7-1.8,1.4-3.9,2.6-5.4c0.1-0.1,0.3-0.3,0.4-0.5c0.5-0.2,1.1-0.3,1.8-0.3l0.3,0
	l0.1,1.9c0,0.8,0,1.5-0.1,2.2c-0.1,1.2-0.3,2.3-0.5,3.5c-0.1,0.9-0.4,1.9-0.6,2.8c0,0-0.1,0-0.1,0c-0.1,0-0.3,0.1-0.3,0.2
	c0,0.1,0.1,0.3,0.2,0.3c0,0,0.1,0,0.1,0c-0.1,0.8-0.3,1.7-0.5,2.5c0,0-0.1,0-0.1,0c-0.2,0-0.3,0.2-0.3,0.4c0,0.1,0.1,0.2,0.2,0.3
	c-0.1,0.7-0.3,1.4-0.5,2c-0.5,1.9-0.9,3.8-1.4,5.7c-0.5,2-0.9,3.9-1.3,5.9c-1.4-0.6-2.8-0.9-4.3-1c0.1-0.6,0.2-1.2,0.4-1.7
	c0.5-2.4,0.9-4.9,1.4-7.3c0.2-1,0.3-2,0.5-3c0.2-1.1,0.4-2.3,0.6-3.4c0-0.2,0.1-0.4,0.1-0.7c0.5,0,1.1-0.3,1.3-0.8
	C209.3,110.4,208.9,109.6,208.2,109.4z M215.4,114.3C215.4,114.3,215.4,114.2,215.4,114.3c0,0,0.1,0,0.1,0
	C215.5,114.3,215.5,114.3,215.4,114.3z M217.7,112.1c-0.1,0-0.1,0-0.2,0c-0.5,0-1,0-1.5-0.1c0.1-0.5,0.2-0.9,0.3-1.4
	c0-0.1,0-0.2,0.1-0.3C216.8,111,217.2,111.6,217.7,112.1z M216.9,108.3c0.1-0.3,0.1-0.6,0.1-0.8c0.1-0.6,0.2-1.2,0.3-1.8l0,0
	c0.8,1.1,1.6,2.2,2.4,3.4c0.7,1,1.7,2.3,2.8,3.3c-0.7,0-1.5-0.1-2.2-0.2c-0.2,0-0.5,0-0.7,0c-1.1-1.1-2.2-2.2-2.6-3.6
	C217,108.4,216.9,108.4,216.9,108.3z M217.3,113.1c0.3,0,0.5,0.1,0.7,0.2c0,0,0,0,0,0l-0.6-0.1L217.3,113.1
	c-0.4-0.1-1.1-0.1-1.6-0.1c0-0.1,0-0.1,0.1-0.2C216.3,112.9,216.8,113.1,217.3,113.1z M289.3,103.7l0-0.3l0,0l0,0.1L289.3,103.7z
	 M292.7,117.5c-0.1-0.1-0.1-0.2-0.2-0.4c-0.2-0.9-0.5-1.8-0.6-2.7c0-0.1-0.1-0.2-0.1-0.2c0.2-0.3,0.3-0.6,0.3-1
	c0-0.2-0.1-0.4-0.1-0.5c0.1-0.2,0.1-0.3,0.1-0.5c0-0.5-0.2-0.9-0.6-1.2c-0.1-0.2-0.2-0.3-0.3-0.4c-0.1,0-0.2-0.1-0.3-0.1
	c0.3-0.1,0.9-0.2,1-0.5c0-0.5-0.5-1.7-0.7-2.2c-0.4-1.2-0.8-2.6-0.9-3.9c0-0.3-0.3-0.5-0.6-0.5c-0.1,0-0.2,0.1-0.3,0.1l0-0.1
	c0.1-0.3,0.4-0.6,0.5-0.7c0.5-0.5,1.3-1.2,2-1.3l0.2-0.1l0.1,0l0.7,0.3c0.3,0.2,0.5,0.4,0.7,0.6c0.6,1.4,1.2,2.9,1.7,4.3
	c1.3,3.6,2.2,7.3,3.1,11.1c0.4,1.8,1.2,3.6,1.8,5.3c0.1,0.2,0.1,0.4,0.2,0.6h-0.2c-1.5,0-2.8,0.4-4,1c-0.4-0.9-0.9-1.8-1.3-2.7
	C294.3,120.4,293.5,119,292.7,117.5z M301.4,126.2c0.1,0.1,0.1,0.3,0.2,0.4c-1.2,0.2-2.3,0.6-3.4,1.1c-0.2,0-0.3,0.1-0.5,0.1
	c-0.1-0.3-0.3-0.6-0.4-0.9c0.8-0.5,1.7-0.7,2.9-0.8C300.5,126.1,301,126.1,301.4,126.2z M205.1,99c0.3-0.6,1.1-1.4,1.6-1.9
	c0.1-0.1,0.1-0.1,0.2-0.2c0.5,0.9,1.1,1.7,1.7,2.6c0.1,0.2,0.3,0.2,0.5,0.1c0.2-0.1,0.2-0.3,0.1-0.5c-0.6-0.8-1.1-1.7-1.7-2.6
	c2.1-1.8,4.6-2.8,7-3.6c1.1-0.3,2.3-0.7,3.4-0.9c0.6-0.1,1.1-0.2,1.7-0.3l1.9-0.3l5.4-0.7c1.8-0.2,3.6-0.5,5.4-0.6
	c1-0.1,2-0.2,2.9-0.3c3-0.2,6.1-0.1,9.1-0.1c8,0,16,0.5,24,0.9c3.1,0.1,6.1,0.3,9.2,0.4c3.5,0.4,7.1,0.9,10.6,1.4c1,0.1,2,0.3,3,0.4
	c0.8,0.1,1.7,0.2,2.5,0.4c0.9,0.2,1.8,0.3,2.8,0.4c1.4,1,2.6,2.4,3.4,4.2c0,0.1,0.1,0.2,0.1,0.3c0.1,0.6,0.1,1.1,0.2,1.7
	c0,0.2,0,0.5,0.1,0.7c-0.8-1-1.5-2.1-1.9-3.2c-0.2-0.4-0.7-0.7-1.2-0.5c-0.5,0.2-0.7,0.7-0.5,1.1c0.4,1.5,2.2,3.9,3.7,5.2
	c0,0.6,0,1.3,0,1.9c0,0.2-0.1,0.3-0.2,0.5c-0.2,0.5-0.4,1-0.6,1.5c-0.2-0.5-0.4-1-0.7-1.5c-0.8-1.9-2.1-4.2-3.6-5.6
	c-0.7-0.7-1.8-1.4-2.7-1.5c-0.7-0.1-1.4,0-2,0.2c-0.3,0.1-0.5,0.2-0.8,0.3c-0.4,0.2-1.1,0.7-1.4,1c-0.1,0.1-0.3,0.2-0.4,0.3
	c0,0-0.1,0-0.1,0l0.1,0.2l0-0.2c-0.9,0.9-1.4,1.9-1.4,3c0,0,0,0-0.1,0c-0.3,0.1-0.6,0.4-0.5,0.7c-0.6-1.1-1.2-2.2-1.9-3.3
	c-0.3-0.5-0.8-1-1.2-1.5c-0.3-0.3-0.8-0.4-1.2-0.1c-0.3,0.3-0.4,0.8-0.1,1.1c0.3,0.4,0.6,0.7,0.9,1.1c0.3,0.4,0.6,0.8,0.8,1.3
	c1.5,2.4,2.4,4.8,4.1,6.8c0.1,0.3,0.2,0.5,0.2,0.8c0,0.1,0.1,0.2,0.1,0.3c-0.6,0-1.2,0-1.7,0c-3.9-3.2-7.2-7.4-9.9-11.5
	c-0.2-0.3-0.6-0.4-1-0.2c-0.3,0.2-0.4,0.6-0.2,0.9c0.7,1,1.4,2.1,2.1,3.1c1.6,2.3,3.4,4.5,5.3,6.5c0.4,0.4,0.8,0.8,1.2,1.2
	c-1.4,0-2.9,0.1-4.3,0.1c-0.2-0.1-0.3-0.2-0.5-0.4c-3-2.4-5.4-5.2-7.7-8.3c-0.9-1.3-1.9-2.5-2.9-3.8c-0.2-0.2-0.5-0.3-0.7-0.1
	c-0.2,0.2-0.3,0.5-0.1,0.7c1,1.3,2,2.7,3,4.1c2,2.7,4.1,5.6,6.7,7.9c-0.1,0-0.1,0-0.2,0c-0.6,0-1.2,0-1.8,0.1c-0.6,0-1.1,0-1.7,0
	c0,0-0.1-0.1-0.1-0.2c-0.4-0.5-1.3-1.1-1.9-1.5c-0.7-0.6-1.6-1.3-2.2-2c-2.6-2.6-4.9-5.4-7.1-8.2c-0.1-0.2-0.4-0.2-0.6-0.1
	c-0.2,0.1-0.2,0.4-0.1,0.5c2.8,3.5,5.5,7.4,8.8,10.6c0.3,0.3,0.6,0.6,0.9,0.9c-0.7,0-1.5,0-2.2,0c-1.1,0-2.3,0.1-3.4,0.1
	c-3.6-2.2-6-5.2-8.8-8.6c-0.7-0.9-1.5-1.8-2.2-2.6c-0.6-0.7-1.2-1.3-1.8-1.9c-0.2-0.2-0.4-0.2-0.6,0c-0.2,0.2-0.2,0.4,0,0.6
	c2.1,2.1,4,4.5,5.8,6.9c1.4,1.9,3.3,4.2,5.2,5.7c-1.1,0-2.1,0.1-3.2,0.2c-0.3,0-0.6,0-0.9,0c-0.4-0.3-0.8-0.6-1.2-1
	c-2.3-2.2-3.9-4.6-5.8-7.2c-0.5-0.7-1-1.4-1.6-2.2c-0.2-0.3-0.5-0.7-0.7-1c-0.2-0.2-0.4-0.5-0.6-0.7c-0.3-0.3-0.6-0.6-0.8-0.9
	c-0.3-0.3-0.8-0.4-1.1-0.1c-0.3,0.3-0.4,0.8-0.1,1.1c0.4,0.6,1,1.1,1.4,1.7c0.5,0.6,0.9,1.3,1.4,2c0.6,0.8,1.2,1.7,1.8,2.6
	c1.4,2.1,2.9,4.2,4.7,5.9c-0.9,0-1.9,0.1-2.8,0.2c-3.5-2.1-6.1-5.5-8.4-8.7c-1.1-1.6-2.3-3.3-3.4-5c-0.2-0.3-0.6-0.4-0.9-0.2
	s-0.4,0.6-0.2,0.9c1.5,2.2,2.9,4.5,4.5,6.7c0.6,0.9,1.3,1.9,2,2.7c0.7,0.8,1.3,1.5,2,2.3c0.5,0.5,1,1,1.7,1.6
	c-1.4,0.1-2.7,0.2-4.1,0.2c-1.7-1.4-3.3-3.1-4.7-4.7c-1-1.1-2-2.4-2.9-3.6c-1.2-1.7-2.4-3.4-3.3-5.3c-0.1-0.1-0.3-0.2-0.4-0.1
	c-0.2,0.1-0.2,0.3-0.1,0.4c0.4,0.9,0.9,1.8,1.4,2.6c1.3,2.4,3,4.6,4.7,6.8c1.1,1.4,2.3,2.8,3.5,4c-1.5,0.1-3,0.1-4.5,0.2
	c-2.1-1.7-3.9-3.7-5.4-6c-0.3-0.5-0.7-1-1.1-1.6c-0.3-0.4-0.5-0.9-0.8-1.3c-1.1-1.5-2.3-3.2-3.3-4.8c-0.1-0.2-0.4-0.3-0.6-0.1
	c-0.2,0.1-0.3,0.4-0.1,0.6c0.5,0.9,1.1,1.7,1.6,2.6c0.5,0.9,1,1.8,1.5,2.6c0.5,0.8,1,1.6,1.6,2.4c1.4,2,2.8,4,4.6,5.7
	c-0.3,0-0.7,0-1,0c-0.9,0-1.7,0-2.6,0.1c-1.3-1.1-2.5-2.4-3.6-3.7c-1.4-1.7-2.6-3.3-3.8-5.1c-0.9-1.2-1.8-2.4-2.7-3.6
	c-0.1-0.1-0.3-0.1-0.4-0.1c-0.1,0.1-0.1,0.2-0.1,0.4c0.4,0.6,0.9,1.2,1.3,1.8c0.6,0.8,1.1,1.6,1.6,2.4c1.9,2.8,3.6,5.6,5.8,8
	c-0.6,0-1.3,0-1.9,0l0,0c-0.2,0-0.3,0-0.5,0c-0.1,0-0.3,0-0.4,0c-4.1-3.2-7.3-7.9-9.8-12.2c-0.1-0.1-0.2-0.2-0.4-0.1
	c-0.1,0.1-0.2,0.2-0.1,0.4c2.5,4.3,5,8.4,8.5,11.9c-1.1,0-2.2-0.1-3.3-0.1c-2.2-1.3-3.7-3.2-5.2-5.2c-0.8-1-1.5-1.9-2.3-2.9
	c0-0.5,0-1,0.1-1.5c0-0.5,0-1.7-0.2-2.1c-0.1-0.3-0.4-0.5-0.6-0.7c-0.7-0.7-1.9-1.6-3-1.8c-0.5-0.1-0.8-0.1-1.3-0.1
	c-2.5,0.3-4.3,3.2-5.4,5.7c-0.8-0.8-1.6-1.7-2.3-2.6C204.8,100.5,204.9,99.8,205.1,99z M204.1,102.1c0.1-0.1,0.1-0.2,0.1-0.2
	c0.5,1.2,1.3,2.3,2.4,3.1c0,0,0.1,0.1,0.1,0.1c-0.1,0.1-0.1,0.2-0.1,0.4l-0.4,1.2l-0.1-0.2c0.1-0.3,0.1-0.5,0.2-0.8
	c0.1-0.5-0.3-1-0.8-1.1c-0.4-0.1-0.8,0.1-1,0.4C204,104,203.9,103.1,204.1,102.1z M194.8,136.4c0.2-0.4,0.4-0.7,0.8-1.1
	c1.5-1.8,3.8-2.9,6.2-3.3c0.2,0.3,0.5,0.4,0.8,0.5c0.6,0.1,1.1-0.2,1.3-0.7c1.5,0,3,0.2,4.4,0.7c0,0.3-0.1,0.6-0.1,0.8
	c-0.1,0.6,0.4,1.2,1,1.3c0.5,0.1,1.1-0.2,1.2-0.7c0.2,0.2,0.5,0.4,0.7,0.6c0.4,0.4,0.9,1,1.4,1.6c-0.3,0-0.7,0-1,0
	c-3.3,0.1-6.6,0.2-10,0.3c-2.3,0.1-4.5,0.2-6.8,0.3C194.5,136.6,194.6,136.5,194.8,136.4z M93.9,168.3c0.1-1.7,0.3-3.6,0.5-5.4
	c0.5-1.6,1-3.2,1.7-4.8c0.4,0,0.8-0.4,0.8-0.8c0.1-0.6,0.2-1.1,0.4-1.7c1.1-2.1,2.6-4.5,4.2-6.1c0.9-0.9,1.6-1.7,2.6-2.5
	c2.4-0.7,5-1.2,7.3-1.5c2.4-0.3,4.7-0.5,7.1-0.7l1.2-0.1l1.8,0c1.1,0,2.1,0,3.2,0.1c0.1,0,0.2,0,0.4,0l6.4,0.5l-0.1,0
	c0.1,0.1,0.3,0.1,0.4,0.1c0,0.4,0,0.7,0,0.9l0,0.6l-0.1,1.2l-0.5,2.7l-0.1,0.6l-0.8,2.7c-0.6,1.7-1.4,3.5-2.3,5.1
	c-2.7,4.7-6.5,9.1-11.2,12l-3.2,1c-0.8,0.2-1.7,0.4-2.5,0.5c-0.9,0.2-1.8,0.3-2.7,0.4l-2,0.2l-4.3-0.1c-1.5-0.1-3.1-0.1-4.6-0.2
	c-0.6,0-1.2,0-1.9,0l-0.1,0c0-0.1,0-0.2,0-0.2c-0.1-0.8-0.2-1.5-0.2-2.3c0-0.3-0.1-0.6-0.2-0.9c0-0.1-0.4-0.5-0.5-0.6
	c-0.1-0.1-0.3-0.2-0.4-0.2l0,0.1L93.9,168.3z M93.4,201.2c0.1,0.1,0.3,0.2,0.4,0.3c0.5,0.4,1,0.9,1.5,1.3c1.7,1.6,3.5,3.6,5,5.4
	c1.8,2.1,3.5,4.3,5.4,6.4c2,2.3,4.1,4.5,6.6,6.2c0.2,0.2,0.5,0.1,0.7-0.1c0.2-0.2,0.1-0.5-0.1-0.7c-1.2-0.8-2.3-1.8-3.4-2.8
	c-3.3-3.1-6-6.5-9-9.8c-1.6-1.8-3.2-3.6-5-5.2c-0.6-0.6-1.3-1.1-2-1.7c0.2-2.2,0.5-4.4,0.8-6.6c0.4,0.7,0.9,1.4,1.3,2
	c0,0-0.1,0-0.1,0.1c-0.1,0.1-0.2,0.3,0,0.5c1.4,1.6,2.8,3.2,4.2,4.9c2,2.4,4.1,4.9,6.3,7.1c0.6,0.6,1.2,1.1,1.8,1.7
	c1.7,1.9,3.3,3.9,4.9,6c0.7,0.9,1.4,1.8,2,2.7c0.2,0.3,0.5,0.7,0.7,1c0.8,1.3,1.7,2.5,2.4,3.9l1.4,2.8l-3.3,3.2l0,0
	c-6.3-3.8-11.4-9.1-16.4-14.4c-0.6-0.6-1.2-1.2-1.7-1.9c0,0-0.1-0.1-0.1-0.1c-0.6-1.2-1.3-2.4-1.8-3.5c-0.4-0.7-1.3-1-2-0.6
	c-0.1-0.2-0.3-0.3-0.4-0.5c-0.1-0.1-0.2-0.1-0.3,0C93,204.7,93.2,202.9,93.4,201.2z M109.3,232.9c-2.5-2-4.9-4-7.2-6.1
	c0.5-2.8-0.7-5.7-1.9-8.3c-0.4-0.8-0.8-1.6-1.2-2.4c-0.1-0.1-0.2-0.3-0.2-0.4c0.1,0.1,0.2,0.2,0.3,0.3c3.6,3.9,7.3,7.8,11.5,11.2
	c1.4,1.2,2.9,2.2,4.5,3.3l-3.9,3.8C110.5,233.9,109.9,233.4,109.3,232.9z M110.4,235c-1.7,1.7-3.4,3.4-5.1,5.1
	c-2.7-2.3-5.1-5-7.4-7.7c0.6-0.4,1.3-0.9,1.8-1.5c0.5-0.5,0.9-1,1.3-1.6c0.3-0.4,0.5-0.9,0.7-1.3c0-0.1,0.1-0.3,0.1-0.4
	c0.3,0.3,0.6,0.6,0.9,0.9c1.1,1,2.2,2,3.3,3C107.5,232.6,108.9,233.7,110.4,235C110.4,234.9,110.4,234.9,110.4,235z M92.6,212.8
	c0-1.1,0-2.3,0.2-3.4c0.1,0.1,0.2,0.2,0.3,0.3c-0.4,0.4-0.5,1.1-0.2,1.6c0.5,0.9,1,1.8,1.6,2.7c0.5,0.8,1,1.5,1.5,2.3
	c0.5,0.7,1,1.4,1.4,2.1c1.3,2.1,2.8,4.5,3,6.9c-2.9-2.9-5.6-5.9-8-9.2C92.6,215,92.6,213.9,92.6,212.8z M92.6,217.1
	c0.4,0.5,0.9,1.1,1.3,1.6c2.1,2.6,4.4,5.2,6.8,7.6c-0.1,1-0.5,2.1-1.3,3.1c-0.7,0.8-1.3,1.3-2.1,2c-1.6-1.9-3-3.9-4.5-5.9l-0.2,0.1
	C92.5,222.8,92.5,220,92.6,217.1z M92.5,229.8c0-1.4,0-2.7,0-4.1c1.4,2,2.8,4,4.3,5.9c-1.2,0.9-3,1.7-4.4,2.2
	C92.5,232.5,92.5,231.2,92.5,229.8z M91.6,326.8c0.1,2.8,0.2,5.5,0.4,8.3c-0.2,0.2-0.3,0.4-0.4,0.7
	C91.6,332.7,91.6,329.8,91.6,326.8z M92.3,347.3c-0.1,0.1-0.3,0.2-0.4,0.3c-0.1-3.5-0.2-7-0.3-10.6c0.1,0.3,0.3,0.6,0.5,0.8
	c0.1,2.5,0.3,5,0.4,7.5C92.5,345.9,92.4,346.6,92.3,347.3z M93.4,239c-0.2,0-0.5,0.2-0.5,0.4c-0.2,1.7-0.3,3.4-0.5,5l-0.1-1.6
	c0-2.7,0-5.3,0-7.9c0.1,0,0.3,0,0.4,0c1.5-0.6,3-1.3,4.4-2.1c0.1-0.1,0.3-0.2,0.4-0.3c2.3,2.8,4.7,5.4,7.4,7.8
	c-0.5,0.6-1.1,1.1-1.6,1.7c-0.4,0.4-0.8,0.9-1.2,1.3c-1-0.8-2-1.7-2.9-2.6c-0.8-0.7-1.7-1.7-2.4-2.5c-0.1-0.1-0.2-0.1-0.3,0
	c-0.1,0.1-0.1,0.2,0,0.3c1.6,1.9,3.4,3.6,5.3,5.1c-1.9,2-3.8,3.9-5.6,5.9c-0.6,0.7-1.3,1.4-1.9,2.1c0,0,0,0,0,0
	c0-4.1-0.2-8.1-0.4-12.1C93.9,239.2,93.7,239,93.4,239z M137.5,378.4l-0.6,0c-1.5,0-3,0.1-4.6,0.2c-3.3,0.3-6.6,0.6-10,0.9
	c-3.7,0.3-7.4,0.3-11,0c-1.5-0.1-3.1-0.2-4.6-0.5c-0.6,0-2.3-0.4-2.9-0.7c-0.4-0.2-1-0.3-1.4-0.6c-1.1-0.6-2-1.1-2.9-2.1
	c-4-4.2-4.4-11-4.5-16.5c0.1,0.1,0.1,0.3,0.2,0.4c0.1,0.3,0.4,0.4,0.7,0.3c0.3-0.1,0.4-0.4,0.3-0.7c-0.5-1.1-0.9-2.2-1.2-3.4
	c0-0.4,0-0.8,0-1.2c0.1-2.7,0.1-5.4,0.4-8c0,0,0,0,0-0.1c0.7-0.2,1.1-0.8,1.2-1.6c0.1-1.6,0.2-3.1,0.2-4.7c0-0.5,0-0.9,0-1.4
	l0.7,0.1c0.2,0,0.4,0.1,0.6,0.1c0.5,0.4,1.1,0.7,1.6,1.1c0.9,0.6,1.9,1.5,2.8,2c0.7,0.4,1.3,0.8,1.9,1.2c2,1.3,3.8,2.7,5.7,4.1
	c0.2,0.2,0.5,0.1,0.6-0.1c0.2-0.2,0.1-0.5-0.1-0.6c-2.4-1.9-4.7-4.1-7-6.1c1.1,0.4,2.3,0.7,3.4,1.1c2.9,1.9,5.4,4.1,8.1,6.4
	c0.8,0.7,1.6,1.3,2.3,1.9c1.1,0.9,2.1,1.9,3.3,2.8c0.5,0.4,1,0.7,1.6,1c0.4,0.3,1,0.2,1.3-0.2c0.1-0.1,0.1-0.2,0.2-0.3
	c0.1,0.1,0.3,0.3,0.4,0.4c1.5,1.7,3.1,3.5,4.5,5.3c0.6,0.8,1.1,1.7,1.6,2.5c2.1,3.5,4,7,5.6,10.7l0.4,0.9l-2.7-3.6
	c-1-1.3-2-2.6-3.1-3.9c-0.8-0.9-1.7-1.8-2.5-2.8c-0.3-0.4-0.9-0.4-1.3-0.1c-0.4,0.3-0.4,0.9-0.1,1.2c1.5,2,3.1,3.9,4.8,5.9
	c0.7,0.9,1.5,1.9,2.2,2.8c0.9,1.3,1.8,2.6,2.7,3.8C136.8,377.4,137.2,377.9,137.5,378.4L137.5,378.4z M115.5,346l0.5,0.3
	c0.5,0.4,1.1,0.8,1.6,1.5C116.9,347.2,116.2,346.6,115.5,346z M264.4,379.3c-2.2,0-4.4,0-6.6,0c-2.8-2.6-5.6-5.3-8.3-8.1
	c-1.2-1.2-2.4-2.4-3.6-3.6c3.8,0.6,7.7,0.8,11.5,0.7c1.6,1.8,3.2,3.6,4.9,5.4c1.7,1.9,3.5,3.7,5.3,5.6
	C266.5,379.3,265.4,379.3,264.4,379.3z M239.3,361c1.1-3.2,2.6-6.4,4.3-9.4c3.7,4.7,7.4,9.4,11.3,14c-3.9-0.1-8-0.4-11.8-1.2
	l-0.7-0.2C241.4,363.1,240.3,362.1,239.3,361z M241.5,364l-2.8-0.7l0.3-1.2c0.1-0.2,0.1-0.4,0.2-0.6
	C239.9,362.4,240.7,363.2,241.5,364z M258.1,341.7c2.2,2.6,4.5,5.1,6.7,7.6c1.4,2.4,2.7,4.9,3.9,7.4c0.7,1.4,1.2,2.9,1.9,4.3
	c0.3,0.8,0.6,1.5,0.9,2.3l0.3,0.9l-2.5,0.4c-1.4,0.2-2.7,0.3-4,0.5c-2.7,0.3-5.6,0.4-8.2,0.4c-4.3-4.6-5.6-6-6.8-7.5
	c0.1-0.1,0.2-0.2,0.2-0.4c0.8-2.8,1.6-5.3,3.6-7.4l0.3-0.3l0.5,0.2c0.8,0.4,1.1,1.3,1.5,2c0.7,1.2,1.2,2.9,1.6,4.5l0.1,0.3
	c-1.7,0.3-3.7-0.9-5.1-1.3c-0.8-0.3-1.7,0.2-2,1c-0.3,0.8,0.2,1.7,1,1.9c0.5,0.2,1.1,0.4,1.7,0.6c0.4,0.1,0.7,0.3,1.1,0.4
	c1.6,0.4,2.9,0.7,4.4,0.2c0.7-0.2,1.7-0.7,2-1.3c0.1-0.2,0.2-0.5,0.2-0.7c0-0.3-0.2-0.9-0.3-1.2c-0.2-0.6-0.3-1.2-0.4-1.8
	c-0.8-3-2.1-6.1-5.4-7.1c-0.3-0.1-1.2-0.2-1.5-0.1c-0.6,0.2-1.6,1.6-1.9,2.2c-1.4,2.1-2,4.5-2.7,6.9c-1.6-2-3.3-4.1-4.9-6.1
	c1-1.8,2-3.5,3-5.2c1.7-2.8,3.4-5.6,4.9-8.4c0.3-0.5,0.5-1,0.7-1.4C254.6,337.6,256.3,339.6,258.1,341.7z M253.2,334.7
	c0.2-0.5,0.5-0.9,0.7-1.4l0.1-0.3l0.3,0.4c1.3,1.9,2.7,3.8,4,5.8c1.4,2,2.7,4.1,4,6.2c-2.8-3.1-5.5-6.3-8.2-9.4
	C253.9,335.5,253.5,335.1,253.2,334.7z M290.4,379.3c-7,0-14,0-21,0.1c-2.1-2.1-4.2-4.2-6.3-6.5c-1.4-1.5-2.7-3-4.1-4.5
	c2.7-0.1,5.3-0.3,8-0.6c1.7-0.2,3.4-0.5,5-0.8c0.5-0.1,1.9-0.3,2.3-0.6c0.9-0.6,0.5-1.5,0.3-2.3c-0.5-1.6-1.1-3.2-1.7-4.7
	c-0.2-0.6-0.5-1.2-0.7-1.7c-0.1-0.3-0.3-0.6-0.4-0.9c2.8,3,5.6,5.9,8.5,8.8c4.5,4.6,9.3,9,14,13.4c0.1,0.1,0.1,0.1,0.2,0.1
	C293.1,379.2,291.7,379.2,290.4,379.3z M375.2,363.8c0,0.1,0,0.1-0.1,0.2c-1.8,3.3-3.2,7-3.8,10.6c-0.2,1-0.3,2.1-0.3,3.1v0.1v0
	c-14.8,0.5-29.5,0.8-44.3,1.1c-5,0.1-10,0.2-15,0.2c-0.3-0.3-0.7-0.7-1-1c-1.6-1.5-3.4-3-5-4.5c-1.3-1.2-2.6-2.4-3.9-3.5
	c-2.7-2.4-5.2-5-7.8-7.6c-1.8-1.9-3.7-3.8-5.5-5.7c-1.2-1.3-2.4-2.6-3.6-3.9c-4.2-4.5-8.1-9.3-12.1-14c-2.1-2.5-4.1-5.1-6.1-7.7
	c-5.5-7.1-10.8-14.5-15.7-22l-0.3,0.2c3.3,5,6.7,10,10.2,14.8c1.6,2.2,3.2,4.4,4.8,6.6c2.5,3.4,5.2,6.8,7.8,10.1
	c2.5,3.1,5,6.1,7.6,9.2c1.2,1.4,2.4,2.8,3.6,4.2c0.9,1,1.8,2,2.7,2.9c2.4,2.6,4.9,5.1,7.4,7.7c1.2,1.2,2.4,2.4,3.7,3.6
	c2.4,2.3,4.8,4.6,7.3,6.7c1.6,1.4,3.1,2.8,4.8,4.1c-0.5,0-1.1,0-1.6,0c-4.8,0-9.6,0.1-14.4,0.1c0.1,0,0.2,0,0.2-0.1
	c0.2-0.2,0.2-0.4,0-0.6c-2.2-1.9-4.3-4-6.4-6c-2.8-2.7-5.6-5.5-8.4-8.3c-3.1-3.2-6.3-6.4-9.3-9.7c-0.2-0.3-0.3-0.6-0.5-1
	c-1.1-2.3-2.4-4.5-3.7-6.8c-0.5-0.8-1-1.6-1.5-2.4c-1-1.6-2-3.2-3.1-4.7c-1.3-1.9-2.6-3.9-4-5.8c-0.9-1.3-1.9-2.5-2.8-3.8
	c-0.4-0.6-1.3-0.9-1.9-0.4c-0.3,0.3-0.7,0.7-0.9,1c-0.4,0.5-0.8,0.9-1.2,1.4c-6.5-7.8-12.8-15.8-18.9-23.8c-0.1-0.1-0.2-0.1-0.3-0.1
	c-0.1,0.1-0.1,0.2-0.1,0.3c1.5,2.1,3.1,4.1,4.7,6.2c3.5,4.6,7,9.1,10.6,13.6c1.2,1.5,2.4,2.9,3.6,4.4c-1,1.3-2,2.6-3,3.9
	c-0.8,1.1-1.6,2.4-2.3,3.6c-1.2,2.1-2.4,4.3-3.4,6.6c-0.1,0.2-0.1,0.3-0.2,0.5c-0.1-0.1-0.1-0.2-0.2-0.3
	c-6.7-8.8-13.3-17.8-19.9-26.7c-2.4-3.2-4.9-6.4-7.3-9.6c-0.2-0.2-0.5-0.3-0.7-0.1c-0.2,0.2-0.3,0.5-0.1,0.7
	c2.6,3.4,5.2,6.8,7.8,10.2c6.6,9,13.3,18,20,26.9c-0.9,2.2-1.8,4.5-2.6,6.8l-0.2,0.5l-0.2,0.5c-0.4,0.8-0.7,1.6-1,2.4
	c-3.8-4-7.5-8.1-11.2-12.2c-5.5-6.2-10.9-12.6-15.9-19.2c-1.9-2.4-3.8-4.8-5.5-7.2l-0.2,0.2c4.6,6.2,9.4,12.1,14.3,18.1
	c5.3,6.5,11,12.8,16.7,19.1c0.5,0.6,1.1,1.2,1.7,1.8c-0.2,0.5-0.4,1.1-0.6,1.6c-0.2,0.6-0.4,1.2-0.6,1.8c-0.2,0.7-0.6,1.6-0.2,2.4
	c0.4,0.7,1.4,0.8,2.2,1c2.2,0.6,4.4,1,6.7,1.4c0.2,0,0.3,0.1,0.5,0.1c0.5,0.5,0.9,0.9,1.4,1.4c3.5,3.5,6.9,7,10.5,10.4
	c-4.3,0-8.6,0-12.9,0c-4.4-3.5-8.6-7.1-12.6-11.1c-8.2-8.1-15.6-16.8-22.7-25.8c-3.1-3.9-6.2-7.8-9.3-11.6c-1.1-1.4-2.2-2.8-3.3-4.2
	c-0.1-0.1-0.3-0.1-0.4,0c-0.1,0.1-0.1,0.2-0.1,0.4c1.1,1.5,2.3,2.9,3.5,4.4c1.5,1.9,2.9,3.8,4.4,5.6c2.3,2.9,4.6,5.9,6.9,8.8
	c2.8,3.5,5.7,7,8.7,10.5c1.8,2.2,3.7,4.4,5.7,6.4c2.3,2.4,4.6,4.9,7,7.1c1,0.9,2,1.8,2.9,2.7c2.4,2.2,5,4.3,7.5,6.4
	c0.2,0.1,0.3,0.3,0.5,0.4c-5.6,0-11.1-0.1-16.7-0.1c-7.8-6.8-14.8-14.5-21.3-22.4c-5.8-7.1-11.3-14.3-16.8-21.7
	c-1.8-2.4-3.6-4.8-5.4-7.2l-0.2,0.2c1.3,1.8,2.7,3.6,4,5.4c2.8,3.7,5.5,7.5,8.3,11.2c4.5,6,9.2,12.1,14.1,17.8
	c2.8,3.2,5.6,6.3,8.5,9.4c2.4,2.5,5,4.9,7.7,7.2c-3.6,0-7.3-0.1-10.9-0.1c0,0-0.1-0.1-0.1-0.1c-1.4-1.4-2.8-2.9-4.2-4.3
	c-9.1-9.5-17.7-19.5-25.7-29.8c-0.1-0.1-0.2-0.1-0.3,0c-0.1,0.1-0.1,0.2,0,0.3c6.7,8.6,13.7,17,21,25.1c2,2.2,4,4.4,6,6.4
	c0.8,0.8,1.7,1.7,2.5,2.5c-1,0-2,0-3,0c-2.1,0-4.1,0-6.2,0.1c-2-1.9-3.9-3.9-5.9-5.8c-2.7-2.7-5.5-5.4-8.1-8.3
	c-1.5-1.6-3-3.2-4.4-4.8c-1-1.1-2-2.3-3-3.4c-3.3-3.9-6.4-7.8-9.4-11.9l-0.2,0.1c2.3,3.2,4.7,6.3,7.1,9.3c1.2,1.4,2.3,2.9,3.6,4.3
	c1.3,1.5,2.5,2.9,3.8,4.3c2.5,2.8,5.1,5.7,7.8,8.4c2.6,2.6,5.2,5.3,7.8,7.8c-3.4,0.1-6.8,0.1-10.1,0.2c-2.4-2.3-4.8-4.6-7.2-7
	c-4.4-4.3-8.7-8.8-12.6-13.5c-1.6-1.9-3.1-3.9-4.6-5.9c4.5,6.6,9.7,12.6,15.4,18.4c2.6,2.7,5.2,5.4,7.9,8c-2,0.1-3.9,0.1-5.9,0.2
	c-1.1,0-2.2,0.1-3.3,0.2c-7.2-6.2-13.1-13.7-19-21c-2.9-3.6-5.7-7.2-8.6-10.8c-0.1-0.1-0.3-0.1-0.4,0c-0.1,0.1-0.1,0.3-0.1,0.4
	c1.2,1.5,2.4,2.9,3.5,4.4c2.8,3.4,5.4,7,8.2,10.4c4.8,5.9,9.6,11.7,15.3,16.7c-0.3,0-0.5,0-0.8,0c-3.1,0-6.2,0-9.3,0
	c-0.3,0-0.6,0-0.9,0c-6.2-6-12.2-12.1-18-18.4c-4.2-4.6-8.3-9.3-12.3-14.1c-0.1-0.2-0.4-0.2-0.5-0.1c-0.2,0.1-0.2,0.4-0.1,0.5
	c9.2,11.2,19.2,21.9,29.6,32.1c-2.6,0-5.2,0-7.8,0c-0.4-0.4-0.9-0.9-1.3-1.3c-2.5-2.3-5-4.6-7.5-6.8c-1.4-1.3-2.9-2.6-4.2-4
	c-0.3-0.4-0.7-0.7-1-1.1c-1.7-1.6-3.3-3.5-4.8-5.3c-3.3-4-6.6-8-9.6-12.2c-0.2-0.2-0.5-0.3-0.7-0.1c-0.2,0.1-0.3,0.4-0.1,0.6
	c4.3,6,9,11.6,14,17.1c3.5,3.8,7.6,7.1,11.3,10.6c0.9,0.8,1.7,1.6,2.6,2.4c-5.5,0-10.9,0-16.4,0c0-0.1,0-0.2,0-0.3
	c-0.2-3.2-1.2-6.2-2.5-9.1c0.3,0.4,0.6,0.8,1,1.2c1,1.2,1.9,2.5,2.9,3.7c0.8,1,1.6,1.9,2.5,2.8c0.1,0.1,0.7,0.9,0.8,0.7
	c0.2-0.1,0.3-0.9,0.4-1.1c0-0.4,0-0.7-0.2-1c0.1,0.3,0,0.6-0.1,1l-0.2,0.7l-0.9-0.9c-0.3-0.4-0.7-0.7-1-1.1c-1.4-1.6-2.7-3.2-4-4.8
	c-0.6-0.7-1.1-1.4-1.7-2.2c-0.7-1.5-1.6-3-2.4-4.4c-0.8-1.4-1.7-2.7-2.6-4.1c-0.5-0.8-1.1-1.6-1.7-2.3c-1.9-2.5-3.9-4.9-6-7.2
	c-2.4-2.5-4.7-4.8-7.4-7c-0.6-0.5-1.1-0.9-1.7-1.3c-1.2-0.9-2.6-1.8-4-2.5c-1.3-0.6-2.6-1.2-3.9-1.7c0,0,0,0,0,0c0,0,0,0,0,0
	c-3-1.2-6.2-2.1-9.2-3c-0.8-0.2-1.5-0.4-2.3-0.6c-0.8-0.2-1.6-0.4-2.5-0.6c0-1.1,0-2.3,0-3.4c0-3.9-0.1-7.8-0.2-11.7
	c4.3,4,8.7,7.8,13.1,11.6c2.2,1.9,4.1,4,6.2,6c0.1,0.1,0.3,0.1,0.5,0c0.1-0.1,0.1-0.3,0-0.5c-2-1.9-4-3.9-6.1-5.7
	c-4.6-4-9.2-7.8-13.7-11.9c0-0.5,0-1.1,0-1.6c-0.1-2.9-0.2-5.8-0.3-8.7c0.4,0.5,0.8,0.9,1.2,1.3c1.5,1.7,3.1,3.1,4.8,4.6
	c1.7,1.5,3.6,2.9,5.4,4.2c1.6,1.2,3.3,2.5,5,3.6c0.2,0.1,0.4,0.1,0.6-0.1c0.1-0.2,0.1-0.4-0.1-0.6c-2.1-1.5-4.2-2.9-6.3-4.4
	c-1.9-1.3-3.7-2.7-5.4-4.2c-1.4-1.2-2.6-2.4-3.9-3.7c-0.4-0.5-1-1-1.3-1.5c0,0-0.1,0-0.1-0.1c0-0.8-0.1-1.6-0.1-2.4
	c0.7,0.7,1.3,1.3,2,2c0.6,0.6,1.3,1.2,2,1.8c0.3,0.3,0.7,0.6,1.1,0.9c1.3,0.9,2.5,1.7,3.9,2.5c0.8,0.4,1.8,1,2.7,1.3
	c0.3,0.1,0.7,0,0.9-0.3s0-0.7-0.3-0.8c-1.8-0.7-3.9-1.9-5.5-3c-0.5-0.4-1.1-0.8-1.6-1.3c-1.8-1.3-3.5-2.8-5-4.4
	c-0.2-2.8-0.3-5.6-0.4-8.4c0.6,0.8,1.3,1.6,2,2.4c3.2,3.5,7,6.3,11.1,8.8c0.2,0.1,0.6,0.1,0.7-0.2c0.2-0.2,0.1-0.5-0.2-0.7
	c-5.2-3-10.2-6.7-13.7-11.6c-0.1-2.3-0.3-4.6-0.4-6.9c4.1,4.5,8.6,8.6,14.1,11.5c0.1,0.1,0.2,0,0.3-0.1c0.1-0.1,0-0.2-0.1-0.3
	c-5.3-2.9-10.2-7.2-14.3-11.6c-0.2-2.6-0.3-5.3-0.5-7.9c1.1,1.5,2.5,2.9,3.7,4.3c0.9,1,2,2,3,3c2.2,2.1,4.5,3.9,7.1,5.5
	c0.1,0.1,0.4,0.1,0.5-0.1c0.1-0.1,0.1-0.3-0.1-0.4c-2-1.6-4.2-3.1-6.2-4.8c-2.3-2-4.3-3.9-6.2-6.2c-0.6-0.7-1.4-1.6-1.9-2.4
	c-0.2-2.8-0.4-5.7-0.5-8.5c1.6,1.9,3.2,3.7,4.9,5.5c1,1,2.1,2.1,3.2,3.1c1.2,1,2.5,2.2,3.8,3.1c0.8,0.5,1.6,1.1,2.4,1.6
	c0.3,0.2,0.7,0.1,0.9-0.2c0.2-0.3,0.1-0.7-0.2-0.9c-5.2-3.1-9.3-6.9-13.2-11.4c-0.6-0.7-1.2-1.4-1.8-2.1c-0.1-1.1-0.1-2.1-0.2-3.2
	c0-0.3,0-0.6,0-1c0.1-3.1,0.3-6.2,0.3-9.3c0.2-0.2,0.4-0.4,0.5-0.6c0.1,0.1,0.2,0.2,0.3,0.3c1,1,1.9,2.1,2.9,3.2
	c3,3.3,5.8,6.8,9.5,9.3c0.2,0.2,0.6,0.1,0.8-0.1c0.2-0.2,0.1-0.6-0.1-0.7c-3.7-2.4-6.6-5.6-9.5-8.8c-1-1.1-2-2.1-3-3.2
	c-0.1-0.1-0.2-0.3-0.4-0.4c0.7-0.8,1.4-1.6,2.1-2.4c1.2-1.3,2.5-2.6,3.8-3.9c0.9-0.9,1.8-1.8,2.8-2.7c1.6,1.2,3.3,2.3,5,3.4
	c1.3,0.8,2.7,1.7,4.1,2.5c0.6,0.3,1.2,0.8,2,0.9c-3.6-2.4-7.2-4.6-10.7-7.1c1-0.9,1.9-1.8,2.9-2.8c2.3,1.9,4.8,3.5,7.6,4.9
	c0.1,0.1,0.3,0,0.3-0.1c0.1-0.1,0-0.3-0.1-0.3c-2.7-1.3-5.2-3-7.5-4.8c1.8-1.7,3.6-3.4,5.4-5.1c0.1,0,0.1,0.1,0.2,0.1
	c0.3,0.2,0.6,0.4,0.8,0.6c0.2,0.2,0.5,0.1,0.7-0.1c0.2-0.2,0.1-0.5-0.1-0.7c-0.3-0.2-0.6-0.4-0.9-0.6c0.8-0.7,1.5-1.4,2.3-2.2
	c1.8-1.7,3.6-3.4,5.3-5.1c0.6-0.7,1.6-1.2,1.2-2.3c-0.2-0.6-0.5-1.3-0.8-1.9c-1.4-2.8-2.9-5.2-4.7-7.8c-3.6-5.1-7.8-9.5-11.9-14.2
	c-2.6-3-5.2-5.9-7.4-9.1c-0.7-1.1-1.7-2.7-2.1-3.9c-0.1-0.3-0.4-0.6-0.6-0.7c0.1-0.9,0.2-1.8,0.3-2.8c0,0,0,0,0-0.1
	c1.4,2,2.9,4,4.4,6c3.2,4.2,6.6,8.5,10.8,11.9c0.2,0.2,0.5,0.1,0.7-0.1c0.2-0.2,0.1-0.5-0.1-0.6c-2.5-1.7-5-4.4-7-6.6
	c-2.1-2.4-4.2-5-6.1-7.6c-0.8-1.2-1.7-2.3-2.5-3.5l-0.1,0c0.2-2.1,0.2-4.2,0.3-6.3c0.5,0.5,0.9,0.9,1.4,1.4c1.6,1.8,3.1,3.8,4.6,5.7
	c1.5,1.9,2.9,4,4.5,5.8c0.8,0.9,1.7,1.7,2.6,2.6c0.5,0.5,1.3,1.2,1.9,1.6c0.3,0.2,0.8,0.2,1-0.1c0.3-0.3,0.2-0.8-0.1-1
	c-3.8-2.7-6.2-5.9-9.1-9.5c-0.8-1-1.7-2.1-2.5-3.1c-0.9-1.1-2-2.4-3-3.4c-0.4-0.4-0.8-0.8-1.2-1.2c0-0.1,0-0.1,0-0.2h0
	c1.3,0,2.6,0.1,3.8,0.1l3.4-0.1l1.2,0.1l0.1,0c0.7,0.7,1.5,1.5,2.1,2.3c0.7,0.9,1.5,1.8,2.3,2.7c0.4,0.5,0.8,1,1.2,1.5
	c0.4,0.5,0.7,1.1,1.1,1.6c0.2,0.2,0.5,0.3,0.7,0.1c0.2-0.2,0.3-0.5,0.1-0.7c-0.8-1-1.5-2.1-2.3-3.1c-0.7-0.9-1.5-1.8-2.3-2.7
	c-0.5-0.6-1-1.2-1.5-1.7c0.8,0,1.6,0,2.4-0.1c1.3-0.1,2.9-0.2,4.3-0.4c0.4-0.1,0.9-0.1,1.3-0.3c0.3-0.1,0.7-0.2,1-0.2
	c1.4-0.3,3.1-1,4.3-1.6c1.3-0.6,2.5-1.3,3.7-2c5.5-3.2,11.2-9,14.2-14.4c2.5-4.4,4.3-9.5,3.7-14.6c0.2,0,0.3,0,0.5-0.1
	c4.1,4.3,9.3,7.6,14.4,10.9c2.1,1.4,4.1,2.8,6.2,4.3c0.2,0.1,0.5,0.1,0.6-0.1c0.1-0.2,0.1-0.4-0.1-0.6c-1-0.7-1.9-1.5-2.9-2.1
	c-2.1-1.4-4.2-2.8-6.4-4.2c-4.1-2.6-7.8-4.9-11.1-8.3c1-0.1,1.9-0.2,2.9-0.4c1.2-0.2,2.5-0.3,3.8-0.4c1.5-0.1,2.9-0.3,4.4-0.4
	c0.3,0.3,0.7,0.7,1,1c0.9,0.9,1.8,1.8,2.8,2.7c3.3,3,6.6,5.4,10.5,7.6c1.3,0.8,2.8,1.6,4.2,2.3c1.1,0.5,2.2,0.9,3.4,1.2
	c0.1,0.1,0.3,0,0.4-0.1c0.1-0.1,0-0.3-0.1-0.3c-0.8-0.5-1.6-1-2.4-1.4c-1.4-0.7-2.8-1.4-4.2-2.2c-1.1-0.6-2.2-1.3-3.2-1.9
	c-0.9-0.5-1.7-1.1-2.5-1.7c-0.7-0.5-1.5-1-2.1-1.6c-0.9-0.7-1.8-1.4-2.7-2.2c-1.3-1.1-2.5-2.3-3.6-3.5c0.1,0,0.2,0,0.3,0
	c1,0,2-0.1,3-0.1c2.3-0.1,4.6-0.2,6.9-0.3c0.8,0.8,1.6,1.6,2.4,2.4c3.7,3.6,7.6,7.4,12.3,9.6c1.8,0.8,3.5,1.2,5.5,1.5
	c-1.8-0.6-3.6-1.6-5.2-2.5c-1.3-0.8-2.6-1.5-3.8-2.4c-3.1-2.3-5.8-4.7-8.5-7.4c-0.4-0.4-0.8-0.8-1.3-1.3c4-0.2,8.1-0.4,12.1-0.5
	c3.6,4.4,8,7.2,13,9.9c2.2,1.2,4.6,2.3,6.9,3.4c0.3,0.1,0.6,0,0.8-0.3c0.1-0.3,0-0.6-0.3-0.7c-1.3-0.6-2.5-1.2-3.8-1.8
	c-5.8-2.7-11.1-5.8-15.2-10.6c4.4-0.2,8.8-0.3,13.3-0.4c0,0.3,0.2,0.5,0.5,0.5c0.3,0,0.6-0.2,0.6-0.5c1.5,1.1,2.9,2.3,4.3,3.5
	c3.1,2.7,6.1,5.4,9.8,7.3c0.1,0.1,0.3,0,0.3-0.1c0.1-0.1,0-0.2-0.1-0.3c-3.2-1.8-5.9-4.2-8.7-6.5c-1.1-0.9-2.2-1.9-3.3-2.8
	c-0.5-0.4-1-0.8-1.5-1.2c6.3-0.3,6.8-0.3,7.4-0.3c0.8,0,1.5,0,2.3,0c0.1,0.1,0.2,0.2,0.3,0.3c0.7,0.6,1.3,1.3,1.9,2
	c1.1,1.1,2.1,2.3,3.2,3.5c2.6,2.8,5.9,6.3,9.4,8c0.9,0.4,1.8,0.7,2.8,1l0.2-0.1l-0.1-0.2c-0.8-0.3-1.6-0.8-2.4-1.2
	c-0.9-0.5-1.9-1.1-2.7-1.7c-3.4-2.4-6-5.6-8.9-8.5c-0.6-0.6-1.2-1.3-1.9-2c-0.3-0.3-0.7-0.7-1-1c2.7,0,5.5,0,8.2-0.1
	c0,0.1,0.1,0.3,0.2,0.3c0.7,0.7,1.4,1.4,2.1,2c0.7,0.7,1.3,1.4,2,2.1c4.3,4.5,7.7,8.4,13.9,10.4c0.3,0.1,0.6-0.1,0.7-0.4
	c0.1-0.3-0.1-0.6-0.4-0.7c-5.2-1.6-8.9-5.2-12.5-8.9c-1-1-2-2-2.9-3c-0.3-0.3-0.5-0.5-0.8-0.8c0.5-0.2,0.9-0.5,1-1
	c3.6,0,7.2-0.1,10.8-0.1c0,0,0,0,0,0c-0.1,0.3,0.1,0.6,0.4,0.6c0.3,0.1,0.7,0.1,1,0.2c0.3,0.1,0.5,0.2,0.8,0.3
	c0.2,0.1,0.5,0.3,0.8,0.4c0.2,0.1,0.4,0.2,0.5,0.3c0.7,0.4,1.3,0.9,1.9,1.5c0.5,0.4,0.8,0.9,1.3,1.3c0.6,0.6,1.3,1.5,1.8,2.1
	c1.3,1.6,2.6,3.2,4.2,4.6c0.2,0.2,0.6,0.2,0.8,0c0.2-0.2,0.2-0.6,0-0.8c-0.9-0.7-1.7-1.7-2.4-2.5c-2.2-2.4-3.8-4.8-6.4-6.8
	c-0.5-0.4-1.3-0.7-1.9-1c-0.2-0.1-0.4-0.1-0.7-0.2c7.4-0.1,14.9-0.2,22.3-0.2c0.8,0.7,1.6,1.5,2.4,2.2c1.8,1.7,3.6,3.6,5.4,5.3
	c1.7,1.6,3.4,3.1,5.2,4.5c1.2,1,2.6,2,4,2.8c0.3,0.2,1.3,0.8,1.6,0.8c-2.7-1.9-5.3-3.9-7.8-6.1c-0.7-0.6-1.3-1.2-1.9-1.7
	c-1.4-1.3-2.7-2.5-4.1-3.8c-1.5-1.3-2.9-2.7-4.4-4.1c1.2,0,2.5,0,9.6,0.1c0.9,0.9,1.9,1.9,2.8,2.8c0.9,0.8,1.7,1.7,2.6,2.5
	c4.4,4.2,8.5,8,14,10.7c0.1,0,0.2-0.1,0.3-0.1c-3.5-2.2-6.7-4.7-9.9-7.4c-1.6-1.3-3.1-2.8-4.6-4.3c-1.5-1.4-3-2.8-4.4-4.3
	c9.6,0,19.2,0.1,28.9,0.4c0,0,0,0,0,0c0.1,0.4,0.5,0.6,0.9,0.7c0.1,0.2,0.3,0.4,0.4,0.5c0.3,0.3,0.5,0.7,0.8,1
	c0.7,0.9,1.6,1.9,2.5,2.8c0.1,0.1,0.2,0.2,0.2,0.2c-0.1,0-0.2,0.1-0.3,0.2c-0.4,0.3-0.8,1.1-1.1,1.5c-0.3,0.4-0.5,0.8-0.8,1.2
	c-0.5,0.7-0.9,1.4-1.4,2.1c-1.9-1.5-3.6-3.3-5.5-5.1c-1-1-1.9-2-2.8-3c-0.5-0.5-1.1-1.1-1.5-1.6c-0.2-0.2-0.4-0.2-0.6,0
	s-0.2,0.4,0,0.6c0.4,0.5,1,1.1,1.5,1.6c1.1,1.1,2.1,2.3,3.1,3.4c1.7,1.8,3.4,3.4,5.2,4.9c0,0,0,0,0,0.1c-0.9,1.2-1.8,2.5-2.7,3.7
	c-0.9-0.5-1.8-1-2.7-1.4c-0.7-0.3-1.6-1-2.2-1.5c-1.5-1.1-2.9-2.6-4.1-3.9c-0.4-0.5-0.9-0.9-1.3-1.4c-1.1-1.2-2.2-2.5-3.4-3.7
	c-0.6-0.6-1.3-1.2-1.9-1.8c-0.2-0.2-0.4-0.1-0.6,0c-0.2,0.2-0.2,0.4,0,0.6c0.6,0.6,1.2,1.2,1.8,1.8c0.2,0.2,0.4,0.4,0.6,0.7
	c0.6,0.6,1.1,1.2,1.7,1.8c1.5,1.6,2.9,3.3,4.5,4.8c0.7,0.7,1.5,1.3,2.3,1.9c1.2,1,3.2,2.2,5,2.4c-1.9,2.5-3.6,5.1-4.9,8
	c-0.1,0.2,0,0.5,0.2,0.5c0.2,0.1,0.5,0,0.6-0.2c0.3-0.7,0.7-1.4,1-2.1c0.5-1,1.4-2.2,2.2-3.1c1.1-1.4,2.3-2.6,3.5-3.9
	c0.7-0.7,1.4-1.4,2.1-2.1c0.1,0.1,0.2,0.1,0.3,0.2c0.7,0.5,2.1,1.3,2.9,1.6c0.4,0.1,0.7,0.3,1.1,0.4c0.4,0.1,0.8,0.2,1.3,0.3
	c0.2,0.1,0.4,0,0.5-0.2c0.1-0.2-0.1-0.4-0.2-0.4c-1-0.3-2.1-0.8-3-1.3c-0.7-0.4-1.4-0.8-2.1-1.2c0.7-0.7,1.4-1.5,2.1-2.3l0.7-0.9
	l2.6,1.1c0.7,0.3,1.4,0.6,2.1,0.9c2.1,1.6,4.3,3.1,6.6,4.5c0.2,0.2,0.6,0.1,0.7-0.1c0.2-0.2,0.1-0.6-0.1-0.7
	c-0.6-0.4-1.1-0.7-1.7-1.1c3.3,1.6,6.6,3.3,9.9,5c2.6,1.3,5.1,2.8,7.6,4.2c3.7,2.2,7.4,4.3,11.1,6.6c-0.4,0.8-0.8,1.6-1.1,2.4
	c-1.5,3.1-3.1,6.2-4.6,9.3l-1.2,2.9l-1.6-0.9c-6.6-3.2-13.8-5.5-20.8-8.1c-4.3-1.6-8.8-3.5-12.7-5.8c-2.6-1.6-4.8-3.2-7.1-5.2
	c-0.3-0.3-0.8-0.3-1.1,0.1c-0.3,0.3-0.3,0.8,0.1,1.1c7.3,6.6,16.8,10.5,25.9,14.3c3,1.2,5.9,2.6,8.8,3.9c2,0.9,4.1,2,6,3.1
	c0.7,0.4,2.4,1.5,3.1,1.6c1,0.2,1.6-0.5,2-1.3c0.9-2.1,1.9-4.1,2.9-6.1c1.5-3.1,3.1-6.2,4.6-9.3c0.7,0.4,1.5,0.2,2-0.5
	c0.4-0.7,0.2-1.5-0.5-2c-0.1,0-0.2-0.1-0.3-0.2c0-0.1,0.1-0.1,0.1-0.2c0.4-0.9,0-1.9-0.9-2.3c-0.8-0.4-1.8-0.1-2.2,0.6
	c-4.3-2.6-8.6-5.2-13-7.6c-2.8-1.5-5.5-3-8.2-4.4c-0.2-0.2-0.5-0.4-0.7-0.6c-1.5-1.2-3-2.5-4.6-3.7c-3.7-3-7.6-6.1-11.1-9.4
	c-0.1,0-0.1-0.1-0.2-0.1c2.5,0.1,4.9,0.2,7.4,0.3c1.9,0.1,3.8,0.1,5.7,0.2c0,0,0,0.1,0,0.1c0.1,0.9,0.9,1.5,1.8,1.4
	c0.7-0.1,1.3-0.6,1.4-1.3c0.7,0,1.4,0.1,2,0.1c0.3,0,0.7,0.1,1,0.1c0,0,0,0,0,0c1.1,1,2.1,2,3.1,3c2.2,2,4.2,4.2,6.4,6.2
	c2.4,2.2,4.8,4.6,7.4,6.5c1,0.7,2,1.5,3,2.1c0.6,0.4,1.4,0.6,2,0.9c0.2,0.1,0.4,0.1,0.5-0.1c0.1-0.2,0.1-0.4-0.1-0.5
	c-0.7-0.5-1.3-1.1-2-1.7c-0.6-0.4-1.2-0.8-1.7-1.2c-1.5-1.1-3-2.2-4.4-3.4c-1.8-1.5-3.5-3-5.2-4.6c-2.2-2.1-4.4-4.2-6.6-6.3
	c-0.3-0.3-0.6-0.6-0.9-0.8c2.9,0.3,5.8,0.5,8.7,0.8c0.5,0.5,0.9,1,1.4,1.5c1.5,1.8,3,3.6,4.6,5.3c3.6,4.2,7.2,8.3,11.7,11.6
	c1.4,1,3.3,2.1,4.9,2.7c0.4,0.2,1.1,0.5,1.5,0.6c0.1,0,0.3-0.1,0.4-0.1c-1.8-1-3.5-2.4-5.1-3.6c-3.5-2.5-6.6-5.4-9.4-8.6
	c-1.5-1.6-3-3.3-4.4-5c-1.3-1.5-2.6-3-3.9-4.4c1.9,0.2,3.8,0.3,5.7,0.5c0.9,0.1,1.8,0.2,2.7,0.3c1.1,1.4,2.4,2.7,3.6,4
	c1.5,1.6,3.1,3.1,4.8,4.7c4.2,3.9,8.5,7.6,12.8,11.4c0.3,0.2,0.7,0.2,0.9,0c0.2-0.3,0.2-0.7,0-0.9c-3.3-2.8-6.6-5.6-9.9-8.4
	c-2.8-2.4-5.6-4.9-8.1-7.6c-0.9-1-1.9-2-2.8-3c5.2,0.5,10.5,1.1,15.7,1.6c0.2,0,0.5,0,0.7,0.1c-0.1,0.1-0.1,0.2,0,0.3
	c2.5,3.4,5.2,6.6,8.2,9.6c1.2,1.1,2.4,2.4,3.6,3.4c1,0.8,2.1,1.8,3.1,2.5c0.2,0.1,0.8,0.7,1.1,0.6c-0.9-0.7-1.8-1.6-2.7-2.4
	c-0.8-0.8-1.7-1.6-2.5-2.3c-3.8-3.6-7.4-7.4-10.4-11.6c3.5,0.4,7.1,0.7,10.6,1c0.8,0.9,1.5,1.7,2.4,2.6c1.5,1.6,3.2,3,4.8,4.4l0.5,1
	l-0.1,0c-0.4,0.2-0.6,0.6-0.5,1.1c0.1,1.1,0.3,2.3,0.6,3.4c0.2,0.8,0.5,1.5,0.8,2.3c0.1,0.4,0.3,0.7,0.6,1c0,0.1,0,0.2,0,0.2
	c0.1,1.5,0.4,3.2,0.9,4.6c0.6,1.5,1.3,2.5,2.2,3.9c1.4,2,3.9,3.8,6,5.1c1.3,0.8,2.7,1.8,4,2.5c3.2,1.7,6.6,3.5,10.2,4
	c1,0.1,2,0.2,3,0.2c1.8,2,3.7,4,5.6,5.9c0.9,0.9,1.8,1.8,2.6,2.7c0.7,0.7,1.4,1.3,2.1,2c-0.5,0-1.1,0-1.6,0c-0.7,0-1.2-0.1-1.8,0.3
	c-0.7,0.4-0.9,1.3-1.1,2l-0.2,0.6c-0.9,0.2-2.2,0.1-3.2,0.2c0,0,0,0-0.1-0.1c-2.3-2.3-4.6-4.7-6.7-7.2c-0.2-0.2-0.4-0.2-0.6,0
	c-0.2,0.1-0.2,0.4-0.1,0.6c2,2.3,4.1,4.6,6.2,6.8c-0.4,0-0.8,0.1-1.1,0.2c-0.9,0.5-0.9,1.3-0.7,2.1c0,0.3,0,0.8,0,1.1
	c0,0.7-0.1,1.6-0.4,2.3c-3.9-3.4-7.8-6.9-11.4-10.6c-3.4-3.4-6.6-6.8-9.8-10.3c-0.1-0.2-0.4-0.2-0.5,0c-0.2,0.1-0.2,0.4,0,0.5
	c2,2.2,4,4.4,6,6.6c4.8,5.1,9.8,10.1,15.1,14.8c-0.2,0.1-0.3,0.2-0.5,0.3c-1.7,0.6-4.7,0.1-6.5-0.2c-1-0.2-2.2-0.6-2.9,0.3
	c-0.2,0.3-0.3,0.6-0.4,1c-0.2,0.5-0.3,1.2-0.4,1.7c0,0.2-0.1,0.4-0.1,0.7c0,0-0.1-0.1-0.1-0.1c-2.1-1.7-4.1-3.5-6.1-5.3
	c-4-3.7-7.9-7.6-11.3-11.9c-0.1-0.1-0.3-0.1-0.4,0c-0.1,0.1-0.1,0.3,0,0.4c0.8,1,1.7,2,2.5,2.9c2.9,3.2,5.8,6.2,8.9,9.2
	c1.9,1.8,4,3.7,6.1,5.4c0.1,0.1,0.2,0.2,0.3,0.3c-0.2,1.4-0.4,2.8-0.8,4.1c-0.1,0.3-0.3,0.6-0.4,0.9c-0.1,0.1-0.2,0.2-0.3,0.3
	l-0.2,0.2l-0.5,0.3c-0.6,0.2-1.3,0.2-1.9,0.2c-1.4-0.1-3.6-0.3-4.9,0.2c-0.4,0.1-0.9,0.3-1.2,0.6c-1.3,1.3-2.4,3.3-3.2,4.9
	c-0.3,0.7-0.7,1.5-1,2.3l-0.5,1.3l-0.2,0.2c-0.2,0.2-0.6,0.5-0.9,0.6l-0.3,0.1l-0.5,0c-0.7,0-1.5,0-2,0c-0.7,0-1.3,0.5-1.4,1.3
	c0,0.7,0.6,1.3,1.3,1.3c0.5,0,2.5,0.1,3,0c0.1,0,0.3-0.1,0.5-0.1c0.9-0.3,1.9-0.9,2.5-1.7c0.3-0.4,0.7-1.3,0.9-1.8
	c0.4-1,1.1-2.3,1.7-3.2c0.4-0.8,0.9-1.7,1.5-2.4l0.5-0.6l0.4-0.1c0.6,0,1.2-0.1,1.9,0c0.6,0.1,1.1,0,1.7,0.1
	c1.4,0.1,2.9-0.1,4.1-0.9c0.5,1.1,1.2,2.1,1.7,3.1c0.7,1.2,1.5,2.5,2.3,3.7c-0.2,0.2-0.4,0.4-0.5,0.6c-1.4,1.4-3,2.9-4.6,4.1
	c-0.5,0.4-1.1,0.7-1.4,1.3c-0.4-0.6-0.8-1.2-1.1-1.8c-1.7-2.8-3.2-5.4-4.6-8.4c-0.1-0.3-0.4-0.4-0.7-0.2c-0.3,0.1-0.4,0.4-0.3,0.7
	c1.5,3.1,3.1,6.2,5,9.1c1.3,1.9,2.5,3.9,3.9,5.7c3.3,4.3,6.7,8.5,10.4,12.5c2.5,2.7,5.1,5.2,7.8,7.8c0.9,0.9,1.9,1.8,2.8,2.7
	c-0.1,0-0.1,0-0.2,0c-2.4,0.4-5.1,1.5-7.2,0.2c0,0-0.1-0.1-0.2-0.2l-0.5-1c-0.4-1.1-0.4-2.5-0.5-3.5c-0.1-2.7-0.2-4.5-2.2-6.3
	c-2.6-2.4-6.5-1.5-10-0.7l-1.6,0.4l-0.1-0.5c-0.1-2.1,0.1-4.2-0.3-6.2c-0.1-0.3-0.1-0.6-0.2-0.8c-0.2-0.5-0.7-0.9-1.1-1.3
	c-0.4-0.4-0.8-0.9-1.4-1c-1.6-0.3-3,0-4.6,0.1c-0.7,0.1-1.4,0.1-2.1,0.2c-0.6,0.1-2.1,0-2.6-0.4l-0.3-0.4l-0.2-0.6
	c-0.2-0.7,0-1.3,0-2.2c0-0.5,0-1-0.1-1.4c-0.1-1.1-0.7-1.9-1.4-2.7c-0.2-0.2-0.5-0.4-0.6-0.6c-0.7-0.6-1.7-0.5-2.3,0.1
	c-0.6,0.6-0.6,1.6,0.1,2.2c0.4,0.4,0.6,0.6,0.9,1l0.1,0.3c0.1,0.2,0.1,0.9,0.1,1.6c-1-1.2-1.9-2.4-3-3.5c-0.7-0.8-1.5-1.7-2.2-2.6
	c-0.2-0.2-0.5-0.3-0.8-0.1c-0.2,0.2-0.3,0.5-0.1,0.7c0.6,0.8,1.4,1.6,2,2.4c1,1.2,2,2.4,3,3.6c0.3,0.4,0.6,0.7,0.9,1.1
	c0.1,0.9,0.3,1.7,0.8,2.5c0.1,0.2,0.4,0.5,0.6,0.7c0.5,0.4,0.8,0.7,1.4,1c0.3,0.2,0.6,0.3,1,0.4c2.3,2.8,4.6,5.6,6.9,8.4
	c5.9,7.2,11.7,14.5,17.6,21.7c4.1,5,8,10,12.2,14.9c0.1,0.1,0.3,0.2,0.5,0.2c0,4.5,0.1,9,0.2,13.4c-0.2-0.2-0.5-0.4-0.7-0.7
	c-1-0.9-2.1-1.8-3.1-2.6c-2.7-2.2-5.5-4.4-8.1-6.8c-5.9-5.2-11.7-10.7-17-16.5c-1.9-2.1-3.8-4.2-5.6-6.4c-2.7-3.1-5.1-6.5-7.6-9.8
	c-1.8-2.5-3.4-5.2-5-7.8c-0.4-0.7-0.8-1.4-1.2-2.1c-0.1-0.1-0.2-0.2-0.3-0.1c-0.1,0.1-0.2,0.2-0.1,0.3c2.2,4.1,4.9,8.1,7.6,11.9
	c2.9,3.9,5.9,7.9,9.2,11.5c1,1.1,1.9,2.2,2.9,3.3c1,1.1,2,2.2,3,3.3c1.6,1.6,3.2,3.2,4.7,4.8c2.6,2.7,5.4,5.2,8.2,7.7
	c2.1,1.9,4.3,3.8,6.5,5.6c1.2,1,2.5,2,3.8,3c0.9,0.7,1.9,1.3,2.9,2c0.1,5.5,0.2,10.9,0.5,16.3c0,0.6,0,1.1,0.1,1.7
	c-0.9-0.7-1.8-1.4-2.7-2.1c-2.9-2.2-5.8-4.2-8.6-6.5c-5-3.9-9.9-8.2-14.5-12.6c-13.7-13.1-25.7-27.4-37-42.4
	c-0.1-0.2-0.4-0.2-0.6-0.1c-0.2,0.1-0.2,0.4-0.1,0.6c1.8,2.4,3.7,4.9,5.6,7.3c4.7,5.9,9.4,11.8,14.3,17.5c3.8,4.4,7.7,8.6,11.7,12.7
	c1.4,1.5,2.9,2.9,4.3,4.3c1,1,1.9,1.9,2.9,2.8c2.6,2.3,5.1,4.7,7.8,7c2.6,2.2,5.2,4.2,7.8,6.3c2.9,2.3,5.9,4.3,9.1,6.1
	c0,0.9,0.1,1.7,0.1,2.5l0,0.7l0,1.7c0,2.5,0.1,5,0.2,7.4c-0.1,1.5-0.2,3-0.3,4.5c-0.1,0-0.2,0-0.3,0c-4.2,0.2-8.2,1.6-11.9,3.4
	c-1,0.5-2.2,1.1-3.2,1.7c-1.1,0.7-2.2,1.4-3.3,2.1c-1.1,0.7-2.2,1.6-3.2,2.4c-1.4,1.1-2.7,2.3-4.1,3.5c-1-0.8-2-1.6-3.1-2.4
	c-1.4-1.1-3-2.2-4.5-3.2c-1.7-1.2-3.3-2.5-5-3.7c-2.1-1.5-4.1-3.1-6-4.7c-3.3-2.7-6.6-5.3-9.7-8.1c-2.8-2.5-5.6-5-8.3-7.6
	c-0.9-0.8-1.7-1.6-2.6-2.4c1.8-2,3.2-4,4.1-6.6c0.5-1.4,0.9-3.1,0.9-4.5c0-0.4,0-0.8,0-1.2c0-0.3,0-0.6,0-0.9
	c5.9,6.2,12,12.1,18.5,17.7c3.3,2.9,6.8,5.6,10.4,8.3c1.8,1.3,3.6,2.5,5.4,3.8c0.1,0.1,0.3,0.1,0.4-0.1c0.1-0.1,0.1-0.3-0.1-0.4
	c-0.9-0.6-1.8-1.3-2.7-2c-1.1-0.8-2.2-1.7-3.3-2.5c-3.9-3.1-7.6-6.2-11.3-9.5c-4.5-3.9-8.8-7.9-13-12c-1.5-1.5-3-2.9-4.4-4.4
	c-0.3-3.3-1.7-6.8-3.3-9.5c-3.5-5.6-9-10.1-15.5-12c-3.4-4.3-6.6-8.7-9.7-13.1c-0.1-0.1-0.2-0.1-0.3-0.1c-0.1,0.1-0.1,0.2-0.1,0.3
	c3,4.3,6.1,8.5,9.3,12.6c-1.7-0.5-3.5-0.7-5.4-0.8c-2.4-0.1-4.4,0.3-6.7,1c-1.3,0.4-2.9,1.2-4.3,2c-3.2-3.9-6.4-7.8-9.4-11.8
	l-0.2,0.1c3,4,6.2,7.9,9.4,11.8c-0.2,0.1-0.4,0.3-0.6,0.4l-1.8,0.9c-1.8,1-3.6,2.5-5,4c-0.3,0.3-0.5,0.6-0.7,0.8
	c-3.3-3.8-6.5-7.7-9.6-11.7c-0.1-0.1-0.2-0.1-0.3,0c-0.1,0.1-0.1,0.2,0,0.3c3.1,4,6.3,7.9,9.6,11.8c-4,4.9-5.6,10.9-4.8,16.8
	c-1.7-2.2-3.4-4.5-5.1-6.7c-0.1-0.1-0.3-0.2-0.4-0.1c-0.1,0.1-0.2,0.3-0.1,0.4c1.9,2.6,3.8,5.1,5.8,7.7c0.4,2.2,1.2,4.3,2.3,6.4
	c1,1.8,2.4,3.8,3.9,5.2c1.3,1.2,2.5,2.3,4,3.2c0.7,0.5,1.5,0.9,2.3,1.3c1.8,2.3,3.7,4.6,5.6,6.9c3.9,4.7,7.9,9.4,12,14
	c2,2.2,4,4.4,6.1,6.5c4.1,4.2,8.3,8.4,12.6,12.5c3,2.8,6.1,5.5,9.1,8.2c0.2,0.2,0.6,0.2,0.8,0c0.2-0.2,0.2-0.5,0-0.7
	c-16.5-14.2-30.9-29.9-44.6-46.5c3.5,1.4,7.4,2.2,11.1,1.9c4.2-0.2,7.8-1.3,11-3c2.2,2.2,4.5,4.4,6.7,6.6c4.8,4.7,9.6,9.3,14.5,13.9
	c3.9,3.7,7.8,7.5,12,10.9c0.2,0.1,0.4,0.1,0.6,0c0.1-0.2,0.1-0.4,0-0.5c-3.3-3.5-6.9-6.8-10.5-10.1c-5.9-5.5-11.7-11-17.6-16.5
	c-1.7-1.5-3.3-3.1-4.9-4.7c2.1-1.2,4-2.8,5.9-4.7c0.3-0.3,0.7-0.7,1-1c2.7,2.6,5.4,5.3,8.1,7.8c1.3,1.2,2.7,2.5,4,3.7
	c5.6,5,11.5,9.8,17.5,14.3c2.1,1.6,4.3,3.2,6.6,4.6c0.9,0.6,1.9,1.1,2.9,1.7c-1,1-2,2-3,3c-0.2,0.3-0.5,0.5-0.7,0.8
	c-1.3,0.9-2.4,2-3.5,3.3c-0.4,0.4-0.8,0.9-1.1,1.3c-0.3,0.5-0.7,0.9-1,1.4C377.3,359.4,376.1,361.6,375.2,363.8z M337,320.5
	c0.5-0.4,1-0.7,1.5-1.1c0,0,0.1,0,0.1-0.1c0.1,0.2,0.3,0.3,0.4,0.4c-0.8,0.4-1.6,0.8-2.5,1.1l-0.5,0.2L337,320.5z M334.4,319.1
	c-0.3,0.2-0.6,0.4-1,0.6c-1.9,1-3.8,1.8-5.9,2.5l-1.7-0.1c-4.2-0.5-8.4-2.3-11.6-5c-1.7-2.2-3.4-4.4-5.1-6.5l-0.1-0.2l-0.1-0.2
	l-0.7-2.5c-0.6-3.1-0.6-6.5,0.2-9.5c0.2-0.8,0.4-1.5,0.6-2.3c0.5-1.7,1.4-3.6,2.6-5.4c8.1,9.3,16.5,18.3,25.2,27
	C336,318.1,335.2,318.6,334.4,319.1z M337.5,317c-3.2-3.1-6.3-6.3-9.4-9.5c-5.5-5.7-10.9-11.5-16.2-17.5c0.9-1.3,1.9-2.5,2.9-3.4
	l2.2-1.9l0.9-0.5c0.3-0.1,0.7-0.3,1-0.5c0.2-0.1,0.5-0.2,0.7-0.3c0,0,0,0,0,0.1c4.5,5.5,9.1,10.8,13.9,16.1c3.3,3.6,6.6,7.2,10,10.7
	c-0.7,1.1-1.4,2.1-2.2,3.1C340.2,314.7,338.9,315.9,337.5,317z M319.9,283.2c0.5-0.2,0.9-0.3,1.4-0.5c2.5-0.8,5.4-1,8.1-0.8
	c0.5,0,1.1,0.1,1.6,0.2c0.5,0.1,1,0.2,1.5,0.3c0.6,0.2,1.2,0.4,1.8,0.5c0.5,0.1,1,0.3,1.4,0.5c1.6,0.6,3.2,1.4,4.5,2.5
	c1.4,1.7,2.8,3.4,4.3,5c0.2,0.3,0.4,0.5,0.7,0.8c0.1,0.2,0.2,0.5,0.3,0.7c0.4,0.8,0.6,1.7,0.9,2.6c0.3,1.1,0.5,2.8,0.5,4
	c0,4-1.1,7.5-3,10.7c-1.5-1.5-3-3-4.4-4.6c-6.3-6.7-12.5-13.5-18.4-20.6C320.6,284.1,320.3,283.7,319.9,283.2z M345.4,312.1
	c0.5,0.5,1,1,1.5,1.5l-3.3,3.2l-2.5,1.8c-0.4,0.2-0.8,0.5-1.2,0.7c-0.2-0.2-0.4-0.4-0.6-0.6C341.7,316.8,343.7,314.7,345.4,312.1z
	 M345.7,311.6c0.1-0.1,0.2-0.3,0.3-0.4c2.8-4.6,4-9.9,3.2-14.9c0.6,0.7,1.2,1.4,1.9,2c0.1,0.5,0.2,0.9,0.3,1.4
	c0.1,0.7,0.2,1.3,0.2,2l0,1.9l-0.3,2.1c-0.1,0.6-0.3,1.2-0.5,1.7c-0.1,0.4-0.4,1.1-0.6,1.5c-0.7,1.6-1.7,3-2.9,4.2
	C346.8,312.7,346.2,312.1,345.7,311.6z M347.6,291.1l0.4,0.5c1.1,1.7,2,3.5,2.6,5.3c-0.6-0.6-1.1-1.2-1.7-1.8
	c-0.3-1.2-0.6-2.5-1.2-3.6L347.6,291.1z M407.3,378.7c-0.8,0.5-1.7,1-2.6,1.4c-2.6,0.4-5.1,0.7-7.7,0.8c-0.6,0-1.1,0.1-1.7,0.1
	c1.5-0.1,3-0.3,4.4-0.6c1.3-0.3,2.7-0.5,4-0.9c1.9-0.6,3.9-1.2,5.6-2.1C408.7,377.8,408,378.3,407.3,378.7z M413.3,376l-0.9,1.2
	l-1,0.8c-0.3,0.2-0.6,0.3-0.9,0.4c1.3-1.1,2.4-2.2,3.3-3.4C413.7,375.4,413.5,375.7,413.3,376z M416.3,363.3c0,0.3,0,0.7,0,1.1
	c-0.1,0.8-0.3,1.5-0.4,2.3l-0.3,1.3l-0.3,0.6c-0.1,0.3-0.2,0.7-0.3,1c-0.3,0.9-0.7,2-0.8,3c-0.8,1-1.6,1.9-2.5,2.8c0-0.5,0-1,0-1.3
	c0-1.5,0-3.1,0.1-4.6c0.1-3.9,0.6-8.8,2.5-12.4c0.2-0.4,0-0.9-0.4-1.1c-0.4-0.2-0.9,0-1.1,0.4c-0.5,1.1-1,2.1-1.3,3.3
	c-0.6,1.9-0.8,3.7-1.1,5.6c-0.2,1.7-0.3,3.4-0.4,5.2l0,4.7l-2,1c-2.4,1.1-4.9,2.1-7.6,2.7c-2.4,0.6-4.8,0.9-7.3,1.2
	c-0.1-0.1-0.3-0.2-0.5-0.2c-3.7,0-7.3,0-11,0c-1.5,0-3.1,0-4.6,0c0-0.1,0-0.2,0-0.3c0-0.6-0.3-1.1-0.9-1.4c0.1,0,0.1,0,0.1-0.1
	c-0.1-1.2-0.2-2.5-0.2-3.7c0-0.2,0.1-0.4,0.1-0.5c0.8-3.3,2.6-7.1,4.4-10.1c3.1-5,7-9.7,11.4-13.6c1.5-1.3,3.1-2.7,4.8-3.9
	c1.6-1.1,3.1-2.2,4.8-3.2c0.5-0.3,1-0.6,1.5-0.8c0.8-0.3,1.6-0.6,2.5-0.9c1-0.4,2.1-0.7,3.2-1c1.7-0.5,3.4-1,5.1-1.4l-0.5,7.4
	l-0.2,0.5c-0.1,0.2-0.1,0.4-0.1,0.6c0,0.6-0.1,1.6,0.3,2c0.4,0.4,1.2,0.3,1.4-0.2c0.1-0.3,0.1-0.8,0.1-1.1c0-0.2,0-0.4,0-0.6
	c0-0.1,0-0.3,0-0.4c0,0.2,0,0.4,0.1,0.6c0.3,2,0.4,4.1,0.6,6.1C416.2,356.9,416.4,360.1,416.3,363.3z M418,235.2
	c-0.1,7.2-0.1,14.4-0.3,21.6h0c-0.1,6.7-0.3,13.4-0.5,20.1l0-2.1l0-1.9c0-6.3,0.1-12.6,0.2-18.9c0.2-10.7,0.4-21.3,0.7-32
	C418,226.4,418,230.8,418,235.2z M418.3,313.3c-0.1,1.5-0.1,3.1-0.2,4.6l0-1.7c0.1-3.2,0.2-6.5,0.3-9.7c0-0.8,0.1-1.6,0.1-2.4
	C418.5,307.2,418.4,310.2,418.3,313.3z M419,174.4c-0.1,0-0.3-0.1-0.4,0c-0.1,0-0.2,0.1-0.3,0.1c0-1-0.1-2.1-0.1-3.1
	c0.1,0.1,0.3,0.2,0.4,0.2c0,0.1,0,0.2,0.1,0.3c0.1,0.9,0.3,1.9,0.5,2.9l0.1,0.4L419,174.4z M420.2,179.8c0,0.4,0,0.7,0,1.1
	c-0.1-0.1-0.2-0.2-0.3-0.4c0-0.3,0-0.7,0.1-1c0.1,0,0.2,0,0.3-0.1C420.2,179.5,420.2,179.6,420.2,179.8z"/>
<polygon class="st1" points="419.1,193.3 419.1,193.2 419.1,193.2 419.1,193.2 "/>
<path class="st1" d="M271.2,321.4c-3.6-4.8-7.1-9.8-10.4-14.8C264.2,311.6,267.6,316.6,271.2,321.4z"/>
<path class="st1" d="M102.9,271.4c-1.1-0.9-2.1-1.7-3.1-2.6c-1.8-1.6-3.4-3.4-4.9-5.3c-0.1-0.1-0.3-0.1-0.4,0
	c-0.1,0.1-0.1,0.3,0,0.4c2.5,3.2,5.3,6.2,8.5,8.7c1.9,1.5,3.9,2.9,5.9,4.2l0.2,0.1h0.2c0.1,0,0.2-0.1,0.3-0.2
	c0.1-0.2,0.1-0.5-0.1-0.6C107.1,274.7,104.9,273,102.9,271.4z"/>
<path class="st1" d="M348,272.1c8.5,10.7,17.4,21,27.2,30.6c3.3,3.3,6.8,6.5,10.3,9.5c0.7,0.6,1.3,1.1,2,1.6c3.7,3.1,7.4,6,11.7,8.5
	c0.1,0.1,0.4,0.1,0.5-0.1c0.1-0.1,0.1-0.3-0.1-0.4c-2-1.5-3.9-3.2-5.9-4.7c-2.6-2.1-5.3-4.1-7.9-6.3c-4-3.4-7.8-6.9-11.6-10.6
	c-5.3-5.1-10.3-10.6-15.2-16.1c-3.9-4.4-7.5-8.9-11.2-13.4c-3.9-4.8-7.7-9.7-11.4-14.7c-0.1-0.1-0.3-0.2-0.4-0.1
	c-0.1,0.1-0.2,0.3-0.1,0.4C339.8,261.8,343.9,267,348,272.1z"/>
<path class="st1" d="M100.1,315.7l-0.3,0l0,0.3c2.7,2.5,5.5,4.8,8.4,7c1,0.8,2.1,1.6,3.1,2.3c-1.4-1.1-2.7-2.3-4.1-3.5
	C104.9,319.8,102.4,317.9,100.1,315.7z"/>
<path class="st1" d="M253.8,154c0.2-0.2,0.2-0.6-0.1-0.8c-5.2-4.1-10.3-8.2-15.5-12.4c-0.3-0.2-0.6-0.2-0.9,0.1
	c-0.2,0.2-0.2,0.6,0.1,0.8c5.1,4.1,10.3,8.3,15.5,12.4C253.2,154.3,253.6,154.3,253.8,154z"/>
<path class="st1" d="M148,375.4c0.1,0.3,0.2,0.5,0.2,0.7c0-0.5-0.1-0.6-0.2-0.8c-0.1-0.2-0.2-0.4-0.4-0.5c-0.1-0.2-0.4-0.3-0.5-0.5
	c0.1,0.2,0.4,0.4,0.5,0.7C147.8,375.1,148,375.2,148,375.4z"/>
<path class="st1" d="M168.1,352.8c-1.7-1.9-0.8-0.7,0.2,0.3c0,0-0.1-0.1-0.1-0.1C168.2,352.9,168.2,352.8,168.1,352.8z"/>
<path class="st1" d="M115.9,360.7c-0.1-0.1-0.2-0.3-0.4-0.4l-0.2-0.1l-0.1-0.1c-0.5-0.5-1.5-0.9-2.1-1.1c-0.3-0.1-0.7-0.2-1.1-0.3
	c-2.1-0.4-4.2-0.1-6,1.1c-0.7,0.5-1.6,1.5-1.9,2.3c-0.1,0.3-0.2,0.7-0.2,1.1c0,1.9,0.8,3.3,2.3,4.5c0.4,0.3,1.2,1,1.7,1.1
	c0.5,0.1,1.2,0,1.6,0h3.3c0.7,0,1.3-0.9,1.7-1.4c0.4-0.5,0.8-1,1-1.6c0.5-1.3,0.5-2.8,0.4-4.3C116,361.3,116,361,115.9,360.7z
	 M108.6,366.6l-0.8-0.6c-1-0.8-1.9-1.7-1.5-3.1c0.1-0.4,0.4-0.7,0.6-1l0.2-0.2l0.2-0.1l-0.3,0.6c-0.2,0.5-0.2,1-0.2,1.5
	c0,0.4,0,0.6,0.3,0.9c0.6,0.6,1.1,1.1,1.7,1.7l0.2,0.2H108.6z M113.2,363.3c-0.2,0.4-0.6,1-0.9,1.3c-0.2,0.3-0.4,0.7-0.6,1l-0.5,1
	h-0.5l-1-1.1l-1.4-1.6l0-0.2c0-0.4,0.2-0.7,0.4-1.1c0.1-0.1,0.4-0.4,0.5-0.5c1-0.7,2.7-0.8,3.8-0.5c0.1,0,0.3,0.1,0.4,0.1l0.2,0.1
	l0,0.1C113.7,362.4,113.5,362.7,113.2,363.3z"/>
<path class="st1" d="M106.9,335.6c-2.1-1.5-4.9-3.3-6-5.7l-0.2,0.1c1.1,2.4,4.1,4.4,6.2,5.8c0.9,0.6,1.9,1.3,2.7,2.1
	c0.4,0.4,0.8,0.8,1.2,1.2c0,0,0,0,0,0c-0.4-0.4-0.8-0.9-1.2-1.3C108.8,337,107.9,336.3,106.9,335.6z"/>
<path class="st1" d="M308.1,349.1c-6.1-7-11.8-14.2-17.9-21.1c-2-2.3-4.1-4.7-6.2-6.9c-1.1-1.2-2.4-2.4-3.5-3.6l-0.3,0l0,0.3
	c0.6,0.6,1.2,1.2,1.7,1.8c1.7,1.8,3.4,3.6,5,5.4c2.9,3.2,5.6,6.5,8.4,9.8c3,3.6,5.9,7.2,9,10.8c1.8,2.1,3.7,4.3,5.5,6.4
	c2,2.4,4.2,4.6,6.3,6.9c2,2.1,4.2,4.2,6.3,6.2c3.7,3.4,7.7,6.6,11.9,9.3c0.7,0.5,1.4,0.9,2.2,1.3c0.3,0.2,0.7,0.5,1.1,0.6
	c0.3,0.2,0.8,0.6,1.2,0.4c-2.6-1.5-5-3.2-7.4-5C322.8,365.2,315.2,357.2,308.1,349.1z"/>
<path class="st1" d="M143.3,291.9c-0.3-0.5-0.9-0.7-1.4-0.4c-0.4,0.3-0.8,0.5-1.2,0.8c-1.2,0.9-2.3,1.9-3.4,2.9
	c-1,0.9-2.7,2.1-4.1,2.3c-0.5,0.1-0.7,0.6-0.6,1c0.1,0.4,0.6,0.7,1,0.6c4-0.9,5.9-4.1,9.4-5.8C143.4,293,143.6,292.4,143.3,291.9z"
	/>
<path class="st1" d="M162.6,345c1,1.6,2,3.1,5.5,7.8c-1.9-2.6-3.6-5.2-5.3-7.9L162.6,345z"/>
<path class="st1" d="M328.7,156.6c-0.7-0.4-1.4-0.7-2.1-1.2c-1.1-0.8-2.2-1.5-3.3-2.3c-0.5-0.3-0.9-0.8-1.4-1.2
	c-1.5-1.2-3-2.6-4.4-3.9c-0.9-0.8-1.8-1.6-2.7-2.3c-0.4-0.3-0.7-0.7-1.1-1c-0.8-0.6-1.5-1.2-2.3-1.8c-0.2-0.1-0.4-0.1-0.5,0.1
	c-0.1,0.2-0.1,0.4,0.1,0.5c0.7,0.6,1.5,1.1,2.2,1.7c0.8,0.6,1.5,1.3,2.3,2c2.1,1.9,4.2,3.9,6.4,5.7c2.4,2,5.6,4.5,8.8,5.2
	c0.1,0,0.3,0,0.3-0.1c0.1-0.1,0-0.3-0.1-0.3C330.1,157.3,329.4,156.9,328.7,156.6z"/>
<path class="st1" d="M264.4,224.9c-0.7,0.6-1,0.6-1.9,0.8c-0.9,0.1-1.4-0.3-2.3,0.3c-0.9,0.6-1.3,1.5-1.6,2.4
	c-0.2,0.4-0.4,1-0.7,1.4l-0.2,0.1l-0.6,0c-0.3,0-0.6,0-1,0.1c-2.4,0.8-2.9,2.9-3.4,5.1c-0.1,0.6-0.3,1.1-0.5,1.7l0,0.1l-0.2-0.1
	c-0.4-0.4-0.8-0.7-1.1-1c-0.2-0.2-0.5-0.5-0.8-0.7c-0.5-0.3-1-0.9-1.7-0.6c-1.1,0.5-1.3,0.6-2,1.6c-0.1,0.1-0.3,0.4-0.3,0.6
	c-0.2,0.4-0.4,0.8-0.6,1.1l-0.5,0.6l-0.6-0.4c-0.4-0.2-0.8-0.4-1.3-0.6c-0.3-0.1-0.8-0.1-1.2,0c-2.1,0.5-2.5,3.1-2.9,4.8l-0.1,0.4
	l-1.3-1c-0.4-0.3-1.3-0.8-1.7-0.9c-0.4-0.1-0.8-0.3-1.1-0.2c-2.9,1.1-2.5,4.4-2.6,6.8c0,0.3,0,0.6-0.1,0.9l-0.1,0.3l-0.6,0.1
	c-0.1,0-0.9,0.3-0.9,0.3c-0.2,0-0.4,0-0.6,0.1c-0.4,0.3-0.9,1.4-1.1,1.8c-0.2,0.6-0.5,1.8-0.8,2.3l-0.3,0.3l-0.2-0.1
	c-0.3-0.2-0.6-0.4-0.8-0.5c-0.3-0.2-0.6-0.3-1-0.4c-0.3,0-0.7-0.1-1,0c-2,0.7-1.8,2.5-2.2,4.1l-0.1,0.4c-1.1-1.2-1.8-2.5-3.6-2.4
	c-0.2,0-0.6,0-0.8,0.1c-0.5,0.2-1,1.3-1.2,1.7c-0.3,0.9-0.5,1.7-0.7,2.6c-0.2,0.9-0.4,1.7-0.9,2.4l-0.1,0.1l-0.5-0.7
	c-0.8-1.4-1.2-3.2-2.6-4.1c-0.2-0.1-0.4,0-0.5,0.2c0,0.1,0.1,1.3,0.1,1.5c0.1,2-0.2,3,0.7,4.9c0.1,0.1,0.2,0.2,0.3,0.1
	c0.1-0.1,0.2-0.2,0.1-0.3c-0.9-1.6-0.7-2.9-0.6-4.6l0-0.5l0.3,0.5c0.4,1.2,0.6,2.5,1.3,3.6c0.4,0.7,1,1.5,1.9,0.9
	c1.4-1,1.7-3.4,2.1-4.9c0.1-0.5,0.4-1.3,0.7-1.9l0.2-0.2l0.6,0c0.7,0.2,1.2,1,1.7,1.8c0.2,0.3,0.5,0.7,0.7,1
	c0.4,0.6,1.2,1.1,1.8,0.3c0.7-0.9,0.7-1.7,0.9-2.8c0.2-0.7,0.2-1.3,0.6-1.9l0.2-0.1l0.5,0.1c0.6,0.2,1,0.7,1.6,1
	c0.4,0.3,0.8,0.3,1.2,0c0.1-0.1,0.5-0.4,0.6-0.5c0.8-1.1,1-2.2,1.5-3.4l0.4-0.8l0.2,0c0.3-0.1,0.6-0.2,0.8-0.2l0.4-0.1
	c0.4,0.1,0.9,0.1,1.1-0.3c0.4-0.6,0.4-1.7,0.5-2.3c0.1-1-0.1-4.1,0.7-4.9c0.1-0.1,0.2-0.2,0.4-0.4l0.1-0.1l0.6,0.2
	c0.9,0.4,1.6,1,2.3,1.6c0.4,0.4,1,1.2,1.7,1c0.8-0.2,0.7-1.6,0.9-2.2c0.2-1.1,0.5-2.9,1.4-3.7c0.2-0.1,0.4-0.1,0.5-0.2l0.3,0
	c0.3,0.1,0.5,0.2,0.8,0.3c0.4,0.2,1.1,0.9,1.5,0.9c0.6,0.1,1.3-0.7,1.6-1.1c0.7-0.9,0.9-2,1.6-2.7l0.6-0.4l0.6,0.4
	c0.3,0.3,0.7,0.6,1,1c0.6,0.6,1.1,1.2,1.8,1.7c0.8,0.6,1.4-0.1,1.7-0.7c0.4-0.9,0.7-2,0.9-3c0.1-0.6,0.3-1.1,0.5-1.7
	c0.2-0.8,0.7-1.6,1.5-1.9c0.4-0.1,0.8,0,1.2,0c0.4,0,1.1-0.4,1.4-0.8c0.4-0.5,0.6-0.8,0.9-1.4c0.2-0.4,0.7-1.8,1-2l0.6,0
	c1,0,2.1-0.1,2.8-0.5c0.4-0.2,0.7-0.4,1.1-0.7c0.4-0.3,0.5-1,0.1-1.4C265.5,224.6,264.9,224.5,264.4,224.9z"/>
<path class="st1" d="M189,183.1c2.5-3.2,2.7-7.1,6.7-9.2c0.2-0.1,0.3-0.4,0.2-0.6c-0.1-0.2-0.4-0.3-0.6-0.2c-1.9,1-3.3,2.4-4.4,4.3
	c-1.5,2.7-2.3,5.6-5.4,6.7l-0.3,0.1l-0.4-0.4c-0.2-0.2-0.4-0.5-0.7-0.7h-0.9c-0.2,0.2-0.2,0.6,0,0.9c0.3,0.3,1.2,1.2,1.5,1.4
	c0.3,0.2,0.9-0.1,1.2-0.2C187.2,184.8,188.3,184.1,189,183.1z"/>
<path class="st1" d="M147.7,299.6c-1.1,0.4-2.2,1.1-3.1,1.8c-1.2,0.9-2.3,1.9-3.7,2.5c-0.5,0.3-0.7,0.9-0.4,1.4
	c0.3,0.5,0.9,0.7,1.4,0.4c1-0.6,1.9-1.1,2.9-1.8c0.7-0.5,1.4-1.1,2.1-1.5c0.6-0.3,1.1-0.6,1.7-0.8c0.5-0.2,0.8-0.8,0.5-1.3
	S148.2,299.4,147.7,299.6z"/>
<path class="st1" d="M310.4,365.5c-3.7-3.7-7.5-7.4-11.1-11.2c-2.2-2.3-4.4-4.6-6.6-7c-3.9-4.2-7.7-8.6-11.4-12.9
	c-3.5-4.2-6.9-8.5-10.1-12.9c14.3,19.8,31.1,37.8,49.3,54.3l0.3,0l0-0.3C317.4,372.2,313.8,368.8,310.4,365.5z"/>
<path class="st1" d="M281.8,234.7c2-1.5,4-3,6-4.6c0.5-0.4,0.8-1,0.8-1.5c0.2,0.2,0.4,0.5,0.7,0.8c0.8,0.9,2.2,1,3.1,0.2
	c0.9-0.8,1-2.1,0.2-3c-1.8-1.8-3.4-3.7-5.1-5.5c-3.7-4-7.3-8-10.6-12.3c-2.4-3.1-4.5-6.5-6.4-9.8c-0.4-0.8-1.4-1.1-2.2-0.6
	c-0.2,0.1-0.4,0.3-0.5,0.4c-0.4-0.1-0.9,0-1.3,0.2c-3.5,2.2-7,4.4-10.4,6.8c-5.4,3.7-10.8,7.6-16,11.5c-4.3,3.3-8.6,6.6-12.9,9.9
	c-1.7,1.3-3.4,2.7-5.1,4.1c-3.6,2.8-7.1,5.7-10.6,8.6c-7.4,6-14.7,12-22.1,18.1c0,0,0-0.1,0-0.1c-0.1-0.3-0.5-0.4-0.8-0.3
	c-0.3,0.1-0.4,0.5-0.3,0.7c0.1,0.1,0.1,0.3,0.2,0.4c-0.2,0.2-0.4,0.4-0.7,0.5c-0.4,0.4-0.5,1-0.1,1.4c0.4,0.4,1,0.5,1.5,0.1
	c0.1-0.1,0.2-0.1,0.2-0.2c0,0.1,0.1,0.1,0.1,0.2c0.3,0.6,0.6,1.2,1,1.8c1.2,2,2.4,3.9,3.8,5.7c3.2,4.2,6.7,8,10.1,12
	c1.3,1.6,2.6,3.2,3.7,4.9c0.5,0.7,1.1,1.5,2.2,1.1c3.1-1.2,6.4-3,9.2-4.8c1-0.6,2-1.2,2.9-1.8c2.5-1.5,4.9-3.2,7.3-4.9
	c9.5-6.5,18.8-13.4,27.9-20.4c7-5.4,13.8-10.9,20.6-16.5C279.4,236.8,280.6,235.7,281.8,234.7z M268.2,240c-3.4,2.7-6.9,5.3-10.4,8
	c-2.8,2.1-5.6,4.2-8.3,6.3c-9.3,7-18.7,13.9-28.1,20.6c-3.5,2.5-7.2,5-10.7,7.4c-0.3,0.2-0.4,0.5-0.5,0.8l-0.1,0l-0.6-0.7
	c0.1-0.1,0.2-0.2,0.4-0.3c0.5-0.5,0.5-1.3,0-1.8c-1.6-1.5-3.3-3-4.9-4.5c-1.8-1.8-3.6-3.6-5.3-5.5c-1.2-1.3-2.5-2.6-3.7-4
	c-1.1-1.6-2-3.4-3-5.1l-1.6-2.6c3.4-2.8,6.9-5.6,10.4-8.5c0.8-0.7,1.7-1.3,2.6-2c9.3-7,19-13.5,28.4-20.4c5.3-3.9,10.6-7.8,15.5-12
	c1.4-1.2,2.7-2.3,4-3.5c0.3-0.2,0.5-0.5,0.8-0.7c1.5-1,3-2,4.5-3c3.6-2.4,7.3-4.6,10.9-7c0,0,0,0,0,0c0.6,1.3,1.4,2.5,2.2,3.7
	c2.7,4.3,5.7,8.3,8.9,12.3c1.8,2.2,3.6,4.3,5.4,6.5c0.7,0.8,1.4,1.7,2.1,2.6c-0.5-0.1-1.1,0-1.6,0.4c-3.7,2.8-7.5,5.5-11.2,8.3
	C272.2,236.9,270.2,238.4,268.2,240z"/>
<path class="st1" d="M199.9,195.8c0.5-0.3,1.1-0.5,1.6-0.8c0.3-0.2,0.6-0.3,0.9-0.5c0.6-0.4,1.1-0.8,1.6-1.2
	c2.3-1.8,4.4-4.6,5.4-7.3c1.6-4.4,0.9-8.4-0.9-12.6c-2.9-6.6-7.9-11.9-14.8-14.5c-1.9-0.7-4-1.2-6-1.3c-0.5,0-1-0.1-1.4,0
	c-0.6,0-1.2,0-1.8,0.1c-2.4,0.3-4.3,0.8-6.5,2c-3.4,1.8-5.8,4.9-7,8.4l-0.2,0.6c-0.4,0.7-0.7,1.5-0.9,2.1c-2.3,6.7,0.7,15,5.5,19.9
	c1.2,1.3,2.4,2.3,3.8,3.3c1.5,1.1,4.1,2.5,6,2.9c0.3,0.1,0.8,0.2,1.1,0.3c0.2,0.1,0.4,0.1,0.6,0.1c1.1,0.2,2,0.4,3.1,0.4
	C193.1,198,197.1,197.2,199.9,195.8z M186.9,194.8c-3-0.5-5.3-1.7-7.8-3.3c-1.4-0.9-3-2.4-4.2-3.9l-0.9-1.3l-0.7-3.3
	c-0.6-3.6-0.9-7.5-0.2-10.8c0.6-2.7,1.2-4.7,3-7c0.6-0.8,1.5-1.5,2.3-2.1c3.7-2.6,8.4-2.9,12.7-1.7c1.3,0.3,2.8,0.9,3.9,1.6
	c1,0.6,1.9,1.1,2.9,1.8c2.6,2,5,4.7,6.6,7.6c0.6,1.1,1.1,2.2,1.6,3.3l0.5,1.3l0.5,2c0.2,1.6,0.3,3.6-0.2,5.1
	c-0.4,1.2-0.7,2.1-1.3,3.2c-2.5,4.2-6.9,6.7-11.8,7.6c-0.5,0.1-1.2,0.2-1.7,0.2c-1.1,0-2.6,0.1-3.8-0.1l0.1,0
	C187.9,194.9,187.4,194.9,186.9,194.8z"/>
<path class="st1" d="M106.2,167.4c1.3,0.9,3.2,1.3,4.7,0.8c0.4-0.1,0.6-0.1,0.9-0.4l0.3-0.4l0.7-0.5c1.3-1.1,1.7-2.9,1.3-4.6
	l-0.1-0.6c0-0.5-0.1-0.9-0.2-1.2c-0.1-0.4-0.3-0.8-0.5-1.3c-0.1-0.3-0.7-1.3-1-1.5c-0.7-0.5-1.3-0.7-2.2-0.9c-0.4-0.1-0.7-0.1-1.1,0
	l-0.5,0.1l-0.4,0c-0.4,0-0.9,0-1.3,0.1c-0.7,0.2-1.5,0.7-2,1.1c-0.6,0.6-1.2,1.3-1.6,2.1c-0.2,0.4-0.3,1-0.3,1.5
	c-0.1,0.5,0,1.1,0.2,1.6C103.5,165.1,104.6,166.4,106.2,167.4z M105.1,161.4l0.1-0.3c0.4,1,1.1,2,2,2.5c0.2,0.2,0.6,0.2,0.8-0.1
	c0.2-0.2,0.2-0.6-0.1-0.8c-0.8-0.6-1.5-1.5-1.8-2.5l0-0.5c0.4-0.4,0.9-0.7,1.5-0.9c0.9-0.2,1.8,0.2,2.5,0.8c0.9,0.7,1.6,1.8,1.8,2.9
	l0.1,0.5l-0.1,0.3c-0.1,0.3-0.2,0.6-0.4,0.9c-0.1,0.2-0.2,0.4-0.3,0.7l-0.2,0.3l-0.2,0.1c-0.6,0.3-1.4,0.4-2,0.5l-0.4,0.1l-0.2-0.1
	C106.3,165.3,104.7,163.3,105.1,161.4z"/>
<path class="st1" d="M183.7,181.6c0.3,0.2,0.7,0.1,0.9-0.2c2.3-3.9,5.8-6.7,10.1-8.4c0.6-0.3,0.8-1,0.5-1.5c-0.3-0.5-1-0.7-1.6-0.4
	c-0.5,0.3-1,0.6-1.5,0.9c-0.8,0.5-1.5,1-2.2,1.6c-1.2,0.9-2.3,2-3.3,3.1c-0.7,0.8-1.3,1.7-2,2.5c-0.4,0.5-0.8,1.2-1.1,1.8
	C183.3,181,183.4,181.4,183.7,181.6z"/>
<path class="st1" d="M154.1,308.5c-1.1,0.4-1.6,1.2-2.2,2.1c-0.4,0.6-0.7,1.3-1.5,1.4c-0.5,0.1-0.7,0.6-0.5,1.1
	c0.1,0.4,0.6,0.7,1.1,0.5c0.2-0.1,0.3-0.1,0.5-0.2c0.7-0.3,1.2-0.9,1.6-1.5c0.4-0.6,0.9-1.7,1.6-1.9c0.4-0.2,0.7-0.7,0.5-1.1
	C155.1,308.6,154.6,308.4,154.1,308.5z"/>
<path class="st1" d="M166.6,316.4c-0.7-0.2-1.1-0.4-1.9-0.3c-2.5,0.2-4.3,2.7-5.9,4.2c-0.5,0.4-0.9,0.9-1.5,1.1
	c-0.5,0.3-0.7,0.9-0.4,1.4c0.3,0.5,0.9,0.7,1.4,0.4c1.3-0.7,2.1-1.6,3.1-2.6c0.5-0.4,0.9-0.9,1.4-1.3c0.5-0.5,1.3-1,2-1.1l0.2,0
	l0.3,0c0.1,0,0.4,0.1,0.5,0.2c0.6,0.2,1.2-0.1,1.5-0.7C167.5,317.3,167.2,316.6,166.6,316.4z"/>
<path class="st1" d="M178.1,318.7c-0.2-0.3-0.5-0.6-0.7-0.9c-0.4-0.6-0.9-1.1-1.4-1.6c-1.2-1.3-2.6-2.6-3.8-3.9
	c-1.5-1.6-2.9-3-3.9-4.9c-0.2-0.4-0.6-0.5-1-0.4c0,0-0.1,0-0.1,0c-1.5-2-3-3.9-4.4-5.8c-2.9-3.8-5.7-7.6-8.7-11.3c-2-2.5-4-5-6-7.6
	c-0.5-0.7-1.1-1.4-1.7-2.1c-0.3-0.4-1.7-2.2-2.1-2.4c-0.5-0.2-1.3-0.5-1.8-0.5c-0.5,0-1,0-1.5,0.1c0.3-0.2,0.7-0.3,1-0.5
	c0.6-0.3,1.3-0.5,1.9-0.8c0.6-0.3,0.9-1,0.6-1.6c-0.3-0.6-1-0.9-1.7-0.6c-1.2,0.6-2.4,1.2-3.6,1.9c-3.7,2.4-6.8,5.3-10.1,8
	c-3.2,2.6-5.8,4.8-9.7,6.5c-0.2,0.1-0.4,0.2-0.6,0.3c-0.1-0.1-0.2-0.3-0.3-0.5c-0.3-0.4-0.8-0.5-1.2-0.3c-0.4,0.2-0.5,0.8-0.3,1.2
	c0,0,0.1,0.1,0.1,0.1c-0.1,0-0.2,0-0.2,0.1c-0.4,0.1-0.6,0.5-0.5,0.9c0.1,0.4,0.5,0.6,0.9,0.4c0.2,0,0.4-0.1,0.6-0.2
	c0.1,0.2,0.3,0.4,0.4,0.6c-0.1,0.2,0,0.5,0.1,0.7c0.1,0.2,0.3,0.3,0.6,0.4c1.7,2.5,3.5,5,5.3,7.4c2.4,3.1,4.7,6.2,7.2,9.2
	c4.8,6,9.9,11.8,14.9,17.6c1.6,1.9,3.2,3.7,4.9,5.6c1,1.2,2,2.4,3.1,3.5c0.5,0.6,1,1.2,1.6,1.7c0.6,0.6,0.9,1.3,1.9,1.2
	c0.7,0,1.3-0.7,1.8-1.1c1.2-0.8,2.3-1.7,3.5-2.5c2.6-1.9,5.3-3.6,8.1-5.4c1.5-1,3.1-1.9,4.6-2.8c0.3,0,0.6-0.1,0.8-0.2
	c1-0.7,1.7-1.2,2.4-2.2c1.4-2,1-4,0-6C178.7,319.6,178.4,319.2,178.1,318.7z M119.7,292c0,0,0-0.1-0.1-0.1c0.2-0.1,0.4-0.2,0.6-0.2
	C120,291.8,119.9,291.9,119.7,292z M176.4,324.5c-0.5,0.4-1.1,0.7-1.6,1c-0.2,0.1-0.3,0.2-0.4,0.4c-0.1,0-0.1,0.1-0.2,0.1
	c-3,1.8-6,3.7-8.9,5.7l-7.4,5.3l-17.5-19c-1.9-2.1-3.8-4.2-5.6-6.4c-1.7-2-3.4-3.9-5-5.9c-3.2-4.1-6.3-8.1-9.2-12.3
	c0.2-0.2,0.5-0.4,0.7-0.5c1.3-1,2.6-1.9,3.9-3c3.3-2.7,7-5.5,10.7-7.6c1.6-0.9,4.2-2.3,6.1-2.4c0.3,0,0.4,0,0.6,0.1l0.3,0.1
	c0.3,0.4,1,1.2,1.1,1.3c0.4,0.5,0.9,1.1,1.3,1.6c0.9,1.1,1.7,2.3,2.6,3.4c1.8,2.2,3.4,4.6,5.1,6.8c1.8,2.4,3.7,4.8,5.5,7.3
	c0.7,1,1.5,2,2.3,3c1.1,1.4,2.1,2.9,3.2,4.3c1.5,1.8,2.9,3.8,4.2,5.7c0.4,0.6,0.9,1.2,1.3,1.8c0.1,0.2,0.4,0.6,0.5,0.6
	c0.2,0.1,1.1-0.2,1.3-0.3c0.1,0.1,0.3,0.1,0.4,0.1c0.1-0.1,0.1-0.2,0.1-0.4c0.1-0.1,0.2-0.3,0.3-0.5c1.1,1.3,2.2,2.5,3.2,3.9
	C176.4,320.4,178.1,322.8,176.4,324.5z"/>
</svg>
