<svg xmlns="http://www.w3.org/2000/svg" width="75" height="75" fill-rule="evenodd" stroke-linejoin="bevel" stroke-width=".501" overflow="visible" viewBox="0 0 75 75"><path d="M41.365 4.971q-2.452-.005-4.906.008.32-.243.649-.48a.074.074 0 0 0 .017-.103.075.075 0 0 0-.103-.018q-.428.286-.852.603a1122 1122 0 0 0-3.721.024q.134-.111.271-.219a.07.07 0 0 0 .012-.098.07.07 0 0 0-.098-.011 7 7 0 0 0-.433.329q-1.272.008-2.542.021.35-.358.71-.7l.002-.067-.066-.002c-.276.243-.553.505-.823.771q-.673.007-1.346.018-.346.005-.694.018.226-.22.452-.436a.063.063 0 0 0 .001-.087c-.024-.023-.064-.024-.087-.001l-.546.53-.874.029-1.445.019.188-.181a.085.085 0 0 0 .002-.119.085.085 0 0 0-.119-.002l-.317.305q-1.003.014-2.008.003.118-.095.238-.186a.08.08 0 0 0 .013-.11.08.08 0 0 0-.11-.013q-.197.15-.385.305l-.095-.001c-.779-.015-1.556-.022-2.334-.033l.297-.287a.097.097 0 0 0 .001-.136.096.096 0 0 0-.135-.001q-.217.209-.431.42h-.009q-.85-.014-1.7-.021.19-.202.384-.405a.107.107 0 0 0-.006-.15.107.107 0 0 0-.15.006c-.174.181-.349.369-.518.555l-.018.015a82 82 0 0 0-3.251.002c-.345.008-.696.017-1.044.041q0-.003-.003-.005a.5.5 0 0 0-.233-.11c-.087-.013-.198-.003-.287.002q-.242.011-.485.014a17 17 0 0 1-1.431-.051 29 29 0 0 1-.651-.052.22.22 0 0 0-.213-.115c-.18.009-.363.032-.547.047l-.179-.015c-.367-.031-.737-.043-1.104-.06-.752-.035-1.497.032-2.243.11-.543.057-1.111.144-1.612.368-.079.035-.164.062-.237.109-.092.058-.195.107-.286.168a3.2 3.2 0 0 0-.606.525c-.98 1.118-1.185 2.692-1.136 4.212a90 90 0 0 0-.231 4.797q-.028 1.514-.04 3.029c-.015 1.758.025 3.527.066 5.286l.005.204q-.077 1.203-.146 2.406a67 67 0 0 0-.085 2.864c-.009.604-.028 1.21-.03 1.814-.004 1.11-.025 2.221-.035 3.331l-.001.094q-.021.605-.033 1.208c-.026 1.067-.055 2.137-.048 3.203l.001.146q-.016.366-.03.734a102 102 0 0 0-.084 5.122c.005.523.013 1.05.067 1.579q-.01.228-.018.457c-.002.025.001.051.041.053.015 1.348.051 1.853.101 2.354.06.616.102 1.247.204 1.857l.025.155q.025.58.053 1.163a.29.29 0 0 0 .17.253l.047.206q.017.402.026.806c.019.947.026 1.987.288 2.902.117.407.277.757.507 1.113.506.78 1.34 1.448 2.234 1.709.295.086.582.143.874.183l-.067.012a.12.12 0 0 0-.1.131.12.12 0 0 0 .131.101q.578-.09 1.162-.148.19.008.372.006c.316-.005.631 0 .947-.011.18-.007.361-.02.542-.028.223-.008.453-.013.675-.034.312-.028.63-.045.943-.067l.009-.001.21-.016.563.004c.079.23.322.366.562.309a.48.48 0 0 0 .334-.3q.512.003 1.023.017l.222.006q1.28.198 2.562.35c.808.094 1.611.194 2.423.265 1.114.097 2.238.171 3.356.234q1.12.062 2.244.114.025.198.089.389c.107.321.318.596.585.815l.116.082.088.086c.323.287.704.464 1.125.557-.012.183-.027.366-.036.558-.009.166.041.363.053.531.009.119.012.237.027.356.057.463.145.94.228 1.399l.187 1.045.002.016-.018.029a6 6 0 0 0-.204.361l-.023.028-.006-.308a.07.07 0 0 0-.138.002q.003.247.01.489a1 1 0 0 0-.17.621q0 .022.006.052a.25.25 0 0 0-.05.119 2.7 2.7 0 0 0-.043.751c.087.74.487 1.298 1.021 1.727l.056.096c.126.21.367.429.589.533.115.053.208.077.327.12.155.055.325.106.486.139q.217.045.432.085c.261.09.538.172.798.227.65.138 1.298.232 1.959.315.495.063.988.126 1.486.174.785.075 1.59.169 2.377.197.248.008.498.023.747.034.283.011.568.011.853.022.182.007.366.002.549.004.671.008 1.339-.014 2.011-.036 1.491-.049 3.002-.185 4.485-.349q.532-.06 1.064-.123c.563-.067 1.005-.105 1.531-.326 1.187-.497 1.954-1.661 1.978-2.955.01-.564-.126-1.088-.355-1.601a.5.5 0 0 0-.272-.259 1.2 1.2 0 0 0-.055-.258q0-.003-.003-.005c.157.022.253-.081.267-.213a.315.315 0 0 0-.277-.348l-.04.128-.022-.032-.012-.002.024.003q.141-.462.27-.922c.124-.443.229-.892.355-1.332l.084-.302c.229-.104.444-.238.644-.391l.235-.201c.296-.136.597-.317.814-.56.489-.546.641-1.084.669-1.802l.767-.065c2.351-.212 4.696-.447 7.043-.695l.359-.038.355-.021c.827-.05 1.659-.111 2.485-.185l1.124-.103c.154-.014.319-.026.472-.05.167-.025.346-.041.515-.058.256-.025.516-.063.771-.101l.182-.028c.166.033.334.061.482.077.222.024.445.053.669.07 1.13.08 2.329.007 3.46-.244l.008.001c.255.002.515.012.771.018.169.004.342-.015.506-.012.126.002.437-.029.551-.071.128-.047.29-.11.406-.196.18-.133.297-.229.437-.406.228-.29.395-.648.522-1.037.049-.061.101-.121.145-.182.148-.206.303-.486.405-.718.462-1.056.589-2.204.758-3.335a11 11 0 0 1 .172-.895c.034-.144.093-.304.113-.448a.46.46 0 0 0-.136-.385c-.088-.083-.227-.127-.369-.159l.016-.663.003-.215.216-.286a.106.106 0 0 0-.021-.146.107.107 0 0 0-.147.021l-.045.058.003-.279c.001-.252.013-.498-.017-.75a5 5 0 0 0-.164-.755c-.136.151-.203.602-.226.81-.027.247-.007.5 0 .749l.019.731-.079.1c-.021-.296-.03-.596-.048-.892-.019-.302-.039-.606-.051-.909l-.036-.743.034-.811.012-.111q.213-.184.434-.36l.017.559c0 .025.023.045.047.045s.045-.022.045-.047a559 559 0 0 1-.116-4.281q.04-.375.082-.748c.031-.285.071-.579.089-.866.072-1.093.079-2.194.124-3.289.023-.556.02-1.115.026-1.671a41 41 0 0 0-.144-3.954c-.022-.155-.032-.316-.048-.472-.037-.367-.076-.736-.108-1.105-.055-.634-.135-1.272-.179-1.907l-.006-.074-.005-.614c-.012-1.193-.015-2.387-.03-3.579-.017-1.266-.037-2.531-.05-3.797l-.01-.716.042.004a.133.133 0 0 0 .127-.138c-.081-1.69-.106-3.375-.162-5.065-.017-.532-.029-1.068-.051-1.603.127-1.179.252-2.362.215-3.549-.015-.465-.032-.94-.117-1.398-.102-.555-.217-1.07-.469-1.581-.057-.115-.123-.258-.194-.362-.154-.227-.332-.521-.564-.681a4 4 0 0 0-.384-.243c-.236-.131-.512-.209-.769-.288-.657-.203-1.463-.287-2.15-.336a21 21 0 0 0-2.093-.047c-.265.007-.547-.003-.808.021-.762.071-1.513.161-2.267.273-.253.037-.517.068-.766.12-.375.077-.733.136-1.105.232-.081.02-.199.051-.273.086a.3.3 0 0 0-.091.048 489 489 0 0 0-7.264-.183c-1.396-.025-2.791-.037-4.187-.062-.776-.014-1.55-.015-2.325-.022-2.095-.019-4.189-.023-6.285-.03l-.028-.001.01-.008c.349-.34.717-.686 1.085-1.006a.14.14 0 0 0 .009-.2.143.143 0 0 0-.2-.009c-.446.39-.881.801-1.308 1.222m27.337.471c.573.028 1.124.081 1.683.179.191.097.385.195.567.312q.228.145.434.304c-.377-.204-.813-.338-1.216-.463-.287-.09-.578-.146-.871-.206a9 9 0 0 0-.964-.143q.184.006.367.017m-51.528.218q-.285.28-.569.549c-.82.789-1.704 1.533-2.463 2.381a42 42 0 0 0-3.047 3.832.104.104 0 0 0 .023.144.103.103 0 0 0 .144-.023 49 49 0 0 1 2.092-2.73c.322-.396.685-.83 1.045-1.189.076-.077.152-.159.224-.238.281-.308.611-.611.915-.896.547-.513 1.103-1.014 1.64-1.538q.146-.144.29-.292h1.698a88 88 0 0 0-6.442 7.21.08.08 0 0 0 .012.115.083.083 0 0 0 .115-.012 84 84 0 0 1 2.665-3.17 96 96 0 0 1 3.918-4.143h.194q1.011 0 2.022-.005l.172.007c-1.234 1.129-2.279 2.428-3.317 3.754-.605.771-1.181 1.566-1.783 2.34l-.767.98a.064.064 0 0 0 .011.089.063.063 0 0 0 .088-.011c.626-.805 1.246-1.614 1.868-2.422 1.266-1.648 2.566-3.327 4.123-4.719l.724.034q.642.03 1.282.053a73 73 0 0 0-1.726 1.788c-1.23 1.314-2.365 2.656-3.347 4.142-.225.221-.405.484-.042.061-.766 1.034-.987 1.383-1.201 1.741l.049.029a28 28 0 0 1 1.178-1.809l.016-.022c.317-.449.66-.884 1.002-1.315.84-1.062 1.786-2.075 2.734-3.042a100 100 0 0 1 1.565-1.565q1.102.038 2.206.056a76 76 0 0 0-1.705 1.754 49 49 0 0 0-1.693 1.88l-.833.976c-.265.311-.52.64-.773.96a45 45 0 0 0-1.551 2.096l.047.033a41 41 0 0 1 2.041-2.68c.212-.258.425-.52.646-.769q.48-.541.963-1.081c.571-.635 1.174-1.243 1.765-1.858q.63-.658 1.278-1.308a151 151 0 0 0 2.01.016q-.278.278-.548.562c-.446.467-.883.961-1.309 1.446a102 102 0 0 0-4.567 5.627c-.015.02-.01.05.009.065.02.016.05.011.066-.008a84 84 0 0 1 5.595-6.693c.303-.326.612-.646.919-.969l.03-.031c.789-.003 1.581-.013 2.371-.018a27 27 0 0 0-1.666 1.622 58 58 0 0 0-1.852 2.118c-1.073 1.281-2.083 2.649-3.067 4.001q-.911 1.253-1.813 2.512c-.29.405-.589.805-.874 1.212l.054.039c.385-.542.781-1.082 1.173-1.619 1.2-1.644 2.386-3.276 3.658-4.866 1.418-1.774 2.945-3.498 4.639-5.02l3.627-.021q-.053.043-.105.089c-.556.465-1.112.935-1.634 1.44q-.317.309-.638.616c-.531.505-1.031 1.066-1.528 1.605-.427.463-.84.957-1.242 1.443a89 89 0 0 0-1.889 2.35c-.504.654-.998 1.314-1.497 1.97-.321.421-.635.845-.956 1.266-.251.329-.508.654-.756.985-.018.025-.013.063.011.081a.06.06 0 0 0 .081-.011c.235-.316.484-.624.724-.936.673-.874 1.358-1.741 2.029-2.616 1.548-2.02 3.151-3.981 4.94-5.794a34 34 0 0 1 2.745-2.489q1.408-.01 2.814-.011c-.772.767-1.529 1.548-2.282 2.333l-.302.314-.107.019c-.491.086-.976.178-1.457.314-.16.045-.387.073-.469.235s.009.363.048.53c.035.147.079.269.128.411q.062.18.126.357-.183.204-.362.409c-1.235 1.406-2.475 2.811-3.637 4.279-1.057 1.336-2.116 2.67-3.107 4.055l.049.035c.388-.549.804-1.081 1.207-1.619a87 87 0 0 1 3.467-4.302q1.189-1.393 2.425-2.742.1.271.216.55l.051.108.04.121q.266.765.576 1.519a510 510 0 0 0-4.354 6.032c-.554.774-1.134 1.528-1.694 2.297a.11.11 0 0 0 .022.155.11.11 0 0 0 .155-.022c.53-.722 1.069-1.435 1.595-2.159 1.446-1.995 2.871-4.005 4.336-5.987l.046-.062q.022.056.047.111c.215.508.47.997.737 1.478.147.266.319.555.494.803.218.307.427.597.654.883q-.39.49-.774.983a126 126 0 0 0-2.303 3.046c-.34.461-.687.922-1.015 1.39a.055.055 0 0 0 .011.076.054.054 0 0 0 .076-.012 161 161 0 0 1 4.108-5.353q.127.156.265.315c.06.068.135.16.202.217.135.116.328.056.42-.082.194-.286.403-.567.604-.849.301-.421.582-.862.869-1.294.233-.35.445-.708.665-1.066.11-.177.225-.358.326-.54.281-.501.56-.998.809-1.516l.105-.215a82 82 0 0 1 2.026-2.177 91 91 0 0 1 1.823-1.853c.458-.454.924-.911 1.4-1.346a.094.094 0 0 0 .003-.132.094.094 0 0 0-.132-.003c-1.03.996-2.057 1.982-3.046 3.02a107 107 0 0 0-1.844 1.98q.041-.1.088-.196c.059-.123.107-.258.158-.384.139-.34.266-.701.371-1.052.056-.186.144-.374-.056-.516-.085-.062-.388-.106-.505-.129-.363-.069-.725-.141-1.094-.181a23 23 0 0 0-1.743-.124q.44-.51.891-1.012c.446-.497.901-.977 1.366-1.449 1.525.002 3.051.003 4.577.013 1.354.009 2.707.025 4.062.035l.348.002c-.363.287-.695.588-1.048.91a50 50 0 0 0-1.58 1.515c-.269.265-.539.534-.797.809-.541.573-1.084 1.139-1.609 1.726-.196.218-.386.443-.582.661-.272.301-.531.619-.789.932-.564.682-1.109 1.369-1.657 2.063a59 59 0 0 0-1.704 2.269c-.35.491-.704.98-1.051 1.473a96 96 0 0 0-2.227 3.333l.059.037a81 81 0 0 1 3.423-4.945c.44-.584.876-1.17 1.334-1.739.852-1.061 1.711-2.135 2.624-3.143.265-.292.521-.592.783-.886.387-.434.787-.862 1.189-1.282.551-.575 1.107-1.16 1.686-1.707.279-.265.555-.534.838-.796.364-.335.742-.659 1.097-1.004l.225-.223c1.09.011 2.181.033 3.271.05q4.82.076 9.637.24v.019c.018.233.035.468.074.699.138.816.444 1.642.831 2.391l.015.037c.191.487.452.987.738 1.425.07.107.149.212.221.319.07.103.16.207.241.302a4.2 4.2 0 0 0 .76.731q.072.095.155.179c.217.222.424.455.65.669-.213.123-.425.243-.631.381-.489.325-.959.682-1.425 1.039a59 59 0 0 0-3.813 3.222c-.296.271-.586.553-.879.826a57 57 0 0 0-1.77 1.748q-.105-.116-.217-.233a6.5 6.5 0 0 0-1.284-1.053 97 97 0 0 1 1.072-1.055 1663 1663 0 0 1 3.821-3.705c.771-.745 1.552-1.466 2.274-2.261a.09.09 0 0 0 .003-.122.09.09 0 0 0-.122-.003c-.917.764-1.76 1.613-2.616 2.443a238 238 0 0 0-4.613 4.596c-.711-.398-1.497-.627-2.402-.683-.801-.052-1.65.115-2.409.437 2.97-3.731 6.113-7.265 9.691-10.446a.117.117 0 0 0-.156-.174c-.668.609-1.333 1.211-1.986 1.837a79 79 0 0 0-2.745 2.8c-.451.476-.889.975-1.321 1.468a99 99 0 0 0-2.612 3.134 93 93 0 0 0-1.22 1.544 5 5 0 0 0-.509.294c-.33.216-.585.452-.867.724-.325.313-.637.771-.844 1.17a5.3 5.3 0 0 0-.504 1.435 95 95 0 0 0-1.261 1.729.067.067 0 0 0 .014.093c.03.021.072.015.093-.015a81 81 0 0 1 1.105-1.51 4.96 4.96 0 0 0 1.042 3.767 81 81 0 0 0-2.096 2.645c-.018.022-.013.056.01.074.022.017.056.012.074-.01.672-.887 1.37-1.76 2.085-2.619q.079.095.163.188c.309.341.699.663 1.096.897l.402.203q.061.045.132.092c-.695.87-1.382 1.76-2.041 2.653l.044.033a86 86 0 0 1 2.052-2.651c.285.18.637.356.925.444.506.155.934.242 1.466.23q.596-.017 1.164-.172a63 63 0 0 0-2.015 2.835.05.05 0 0 0 .014.07.05.05 0 0 0 .07-.013 64 64 0 0 1 2.113-2.945c1.397-.434 2.613-1.451 3.364-2.699.359-.6.655-1.388.725-2.126q.472-.503.958-.995a70 70 0 0 1 5.288-4.824q.353-.287.712-.567c.189-.149.386-.309.584-.446a.064.064 0 0 0 .013-.089.063.063 0 0 0-.089-.014c-.389.288-.787.56-1.172.856a40 40 0 0 0-2.261 1.858 57 57 0 0 0-4.018 3.978 3 3 0 0 0-.001-.209c-.004-.092-.004-.184-.008-.275a4 4 0 0 0-.199-1.016c-.191-.593-.501-1.05-.887-1.492q.277-.275.558-.544c.598-.576 1.201-1.14 1.813-1.701.688-.631 1.402-1.228 2.117-1.828.429-.36.869-.722 1.315-1.061.362-.275.717-.559 1.081-.83.322-.239.656-.475.97-.723.224-.177.444-.364.666-.545.293.269.581.519.887.776.218.183.467.376.703.536.239.163.478.315.721.472.215.139.458.267.686.382.82.414 1.672.719 2.596.764l.055.002.063 1.002a25 25 0 0 0-.053 1.673l.001.373-.007.147-.026.572c-.694.406-1.343.865-1.971 1.376-.574.465-1.14.927-1.696 1.414-.581.509-1.131 1.043-1.695 1.569-.22.204-.43.42-.64.635-.316.323-.632.638-.942.969a74 74 0 0 0-2.553 2.859c-1.083 1.281-2.1 2.591-3.12 3.92a59 59 0 0 0-1.214 1.635.1.1 0 0 0 .021.137.1.1 0 0 0 .137-.022c2.463-3.368 5.07-6.599 8.046-9.531a45 45 0 0 1 3.145-2.821c.618-.501 1.257-.964 1.881-1.455l.592-.471q-.009.185-.014.371a179 179 0 0 0-.098 3.669c-.218.142-.434.288-.639.444-.285.215-.548.436-.818.669-.477.411-.947.825-1.406 1.255a44 44 0 0 0-1.774 1.733c-.345.362-.693.72-1.031 1.089-.22.242-.434.49-.655.732-.218.241-.423.495-.635.742-.705.819-1.37 1.7-1.994 2.582-.595.842-1.18 1.75-1.656 2.664-.013.026-.004.06.023.073a.054.054 0 0 0 .073-.022c.086-.151.164-.311.252-.461.348-.588.697-1.186 1.092-1.746.526-.744 1.059-1.497 1.644-2.198.404-.484.802-.965 1.22-1.437 1.157-1.309 2.404-2.533 3.695-3.709.575-.524 1.176-1.016 1.77-1.516a25 25 0 0 0 .836-.74q-.023 1.507-.036 3.016a.13.13 0 0 0-.098.052c-.897 1.103-1.759 2.239-2.644 3.354-1.282 1.617-2.547 3.249-3.821 4.872-.498.635-1.004 1.263-1.505 1.895a1 1 0 0 0-.22.079 1.3 1.3 0 0 0-.304.216 1 1 0 0 0-.121.163 1.14 1.14 0 0 0-.175.568c-.064.082-.129.168-.197.249-.222.259-.427.539-.649.798-.146.17-.307.36-.44.539a.12.12 0 0 0 .017.167.12.12 0 0 0 .166-.016c.143-.192.316-.392.471-.576.22-.258.428-.531.644-.796.01.139.018.298-.011.351l-.028.067a1.2 1.2 0 0 1-.196.216.35.35 0 0 0-.021.496.353.353 0 0 0 .497.02c.038-.047.095-.086.136-.133.158-.186.284-.357.313-.608a2 2 0 0 0 .016-.318c-.012-.207-.044-.339-.008-.494l.053-.142.075-.092c.099-.089.432-.109.562-.093.146.019.307.025.457.04.346.036.656.087.997.025.138-.026.215-.126.31-.222.082-.084.2-.177.245-.285.022-.056.03-.127.043-.186.095-.459.035-.931.063-1.393l.016-.107.353.084c.754.181 1.602.379 2.166-.15.434-.408.456-.823.486-1.419.012-.225.015-.542.099-.791l.116-.221a.3.3 0 0 1 .043-.047c.47-.302 1.062-.041 1.574.043l.047.008q-.307.305-.608.612c-.574.584-1.136 1.154-1.69 1.756a33 33 0 0 0-2.267 2.796c-.303.413-.576.853-.85 1.286-.413.651-.755 1.352-1.082 2.049a.117.117 0 0 0 .055.155.117.117 0 0 0 .155-.056c.301-.66.626-1.257.992-1.881q.116-.2.246-.394c.073.114.203.197.306.281a11 11 0 0 1 1.117 1.055 16 16 0 0 0-.493.828c-.128.228-.26.462-.379.698-.263-.179-.575-.226-.89-.205-.12.008-.247.005-.367.019-.14.017-.273-.003-.41-.011l-.096-.032-.119-.125c-.125-.161-.221-.359-.317-.535-.116-.212-.281-.501-.366-.727-.043-.116-.118-.315-.192-.411a1.3 1.3 0 0 0-.547-.373c-.034-.012-.073-.015-.105-.024-.097-.031-.549-.013-.647-.002a.289.289 0 0 0 .015.577c.106-.012.284-.019.428-.011l.1.01.056.015c.06.03.141.086.19.136l.043.056.107.284c.061.172.148.346.224.514.165.365.401.806.686 1.095a.8.8 0 0 0 .264.145c.282.104.757.062 1.061.045.14-.008.285-.008.412.04l.103.058.048.045a.3.3 0 0 1 .063.078c.03.068.072.127.095.201.089.298.127.615.166.93l-.07.06c-.449.381-.897.802-1.319 1.214a31 31 0 0 0-1.946 2.067c-.185.215-.372.437-.546.662a.06.06 0 0 0 .009.085c.025.02.064.016.085-.009.735-.949 1.59-1.838 2.461-2.663.429-.405.873-.817 1.326-1.194l.025-.022.021.152c.019.125.045.268.086.388.024.072.044.156.093.215.158.195.424.098.631.06.387-.071 1.039-.196 1.411-.053q.067.025.118.067a51 51 0 0 0-3.288 3.313c-.444.487-.874.981-1.312 1.472a.084.084 0 0 0 .008.117c.034.03.088.027.117-.007a65 65 0 0 1 2.137-2.323 51 51 0 0 1 2.484-2.373c.065.156.077.347.082.513.001.076.003.182-.006.256-.026.186-.028.37.163.475a.7.7 0 0 0 .237.056 28 28 0 0 0-1.355 1.526.093.093 0 0 0 .011.131.093.093 0 0 0 .131-.011c.457-.557.945-1.101 1.449-1.616l.012-.013c.22.006.504-.012.69.038l.049.129c.046.15.103.357.246.447.128.079.239.055.386.058q.172.002.343.001c-.152.146-.304.294-.446.448-.19.202-.383.4-.572.603q-.612.659-1.213 1.336c-.224 0-.431.018-.656.049-.79.105-1.537.514-2.225.894-.301.165-.59.372-.879.558-.451.289-1.005.7-1.308 1.149-.205.303-.353.529-.478.873-.112.308-.165.699-.189 1.025l-.003.052a.5.5 0 0 0-.135.23c-.063.176-.125.341-.176.523-.07.249-.108.51-.139.768a.24.24 0 0 0 .113.236l.026.009-.105.232c-.36.32-.713.644-1.05.995-.185.191-.355.383-.52.58-.767.082-1.534.154-2.302.234.66-.944 1.432-1.799 2.264-2.597.182-.175.37-.348.548-.526.185-.182.383-.378.58-.546-.053-.032-.189.094-.237.127-.235.163-.464.372-.681.559-.275.235-.537.514-.792.772a16.6 16.6 0 0 0-1.789 2.15.06.06 0 0 0 .001.072l-.153.016q-1.71.182-3.417.359c.192-.231.395-.453.601-.673.56-.6 1.153-1.163 1.772-1.701.717-.624 1.428-1.258 2.149-1.879a.145.145 0 0 0-.195-.216c-.926.849-1.869 1.69-2.776 2.557a27 27 0 0 0-1.034 1.049 13 13 0 0 0-.779.891l-.589.06q-.62.062-1.239.119c.29-.329.576-.658.853-.997.31-.381.639-.748.965-1.115a14 14 0 0 1 2.052-1.925c.362-.272.726-.577 1.12-.8-.029-.007-.063-.027-.092-.02-.094.022-.235.089-.331.125-.347.131-.769.38-1.064.606-.974.747-1.746 1.681-2.536 2.613-.335.396-.662.799-.996 1.195q-.15.177-.306.348c-.63.059-1.259.115-1.888.178l.195-.187c.486-.462.957-.942 1.437-1.41.367-.357.743-.699 1.124-1.041.303-.272.636-.524.963-.768.124-.093.255-.176.379-.268.156-.117.293-.253.444-.371.04-.024.051-.079.027-.119s-.079-.051-.119-.027c-.146.065-.301.125-.44.206-.237.138-.443.315-.662.479-.576.431-1.1.969-1.619 1.467-.471.452-.913.94-1.381 1.395-.228.221-.451.454-.684.669l-.009.007-.219.02-.444.017a.35.35 0 0 0-.306-.295.35.35 0 0 0-.389.31l-.004.016c-.413.017-.83.024-1.243.04-.566.022-1.133.047-1.699.06-.274.006-.551.029-.824.031-.131 0-.282.003-.415.013a.14.14 0 0 0-.028-.059 8 8 0 0 1 1.02-1.168q.11-.05.219-.094c.211-.085.426-.184.633-.282.403-.189.81-.369 1.208-.568q.543-.27 1.086-.545l-.599.508c-.773.657-1.561 1.311-2.277 2.03a.08.08 0 0 0-.003.112.08.08 0 0 0 .112.003c.742-.744 1.59-1.452 2.405-2.115.334-.271.662-.549.992-.824l.155-.132c.601-.327 1.195-.657 1.794-.991a61 61 0 0 0 2.828-1.711.387.387 0 0 0 .679-.368l-.021-.046.059-.037a.32.32 0 0 0 .098-.439.32.32 0 0 0-.426-.106c-.328-.697-.673-1.385-1-2.081-.211-.451-.442-.915-.628-1.377-.074-.183-.209-.324-.425-.29-.162.025-.518.275-.678.366-.42.24-.871.491-1.308.695-.638.297-1.272.596-1.92.874-1.971.848-4.034 1.732-5.626 3.203a.175.175 0 0 0-.014.246.175.175 0 0 0 .246.013c.499-.448.974-.8 1.548-1.157.844-.526 1.83-.953 2.756-1.313 1.507-.587 3.068-1.1 4.514-1.826l.355-.196.27.646c.319.701.674 1.386 1.004 2.083q.126.264.248.532c-.796.503-1.599.99-2.407 1.479-.541.326-1.099.655-1.654.954-.714.385-1.427.773-2.152 1.132q.183-.124.366-.245a.117.117 0 0 0-.13-.195c-.493.319-.968.665-1.435 1.019q-.228.107-.458.211l-.571.25-.15-.213a8 8 0 0 0-.454-.52q.212-.148.447-.279c.204-.114.438-.231.662-.297a.08.08 0 0 0 .051-.097.08.08 0 0 0-.098-.051c-.089.024-.185.047-.272.075-.083.028-.164.067-.246.096-.181.062-.47.25-.629.364l-.055.04-.452-.473c-.27-.291-.513-.572-.761-.882a4.5 4.5 0 0 1-.47-.694c-.08-.157-.15-.303-.224-.463a.094.094 0 0 0-.122-.048.094.094 0 0 0-.048.122c.271.644.652 1.225 1.055 1.792-.38.045-.826.324-1.082.541-.171.144-.331.278-.493.433-.347.333-.667.719-.984 1.082q-.179.203-.361.404c-.042.046-.085.103-.128.146l-.398.4a.09.09 0 0 0-.002.127.09.09 0 0 0 .127.002c.134-.138.274-.266.406-.406.249-.265.502-.553.737-.832.091-.107.185-.207.28-.31.268-.291.571-.629.891-.866.133-.098.33-.258.476-.326.191-.091.398-.203.59-.313.197.276.398.55.594.828l.01.014c-.406.336-.773.701-1.14 1.101-.232.253-.454.51-.683.763-.103.115-.228.245-.32.366-.034.039-.03.1.009.134s.099.03.133-.009c.091-.12.218-.253.32-.366.204-.223.396-.458.607-.676.397-.415.768-.805 1.186-1.149.104.153.202.308.305.462.06.088.105.178.169.263.067.09.149.266.233.327q.03.022.06.035l-.054.056a6 6 0 0 0-.544.619c-.056.074-.114.161-.172.231a2 2 0 0 0-.09.122.23.23 0 0 0-.191.153c-2.094.073-4.186.099-6.279.101.31-.323.632-.655.953-.962.331-.318.651-.654.997-.956.686-.599 1.379-1.178 2.149-1.664l-.067-.024c-1.203.606-2.097 1.461-3.055 2.396-.189.185-.37.376-.555.564-.204.206-.413.41-.611.622-1.559.02-1.827.019-2.094.017.324-.298.64-.607.958-.91.298-.284.592-.572.892-.853.137-.13.272-.266.414-.39a21 21 0 0 1 1.697-1.362c-.063-.007-.279.132-.344.171a7 7 0 0 0-.862.63c-.39.332-.754.67-1.127 1.02-.401.377-.786.797-1.176 1.189q-.259.258-.524.505c-1.618-.01-3.235-.031-4.854-.051.049-.016.1-.029.142-.049.132-.064.286-.141.404-.231.576-.441.921-.985 1.392-1.527.155-.178.331-.409.519-.555a.12.12 0 0 0 .005-.17.12.12 0 0 0-.17-.005 8.5 8.5 0 0 0-.903 1.031c-.11.145-.26.348-.385.473-.096.095-.182.205-.28.299a2.6 2.6 0 0 1-.409.327c-.032.021-.075.052-.109.067-.054.022-.112.062-.164.08-.056.021-.116.038-.172.06-.065.025-.156.028-.225.05a.116.116 0 0 0-.09.137l.001.007q-1.178-.016-2.355-.027a.32.32 0 0 0-.212-.234q.086-.086.171-.174.321-.34.639-.683c.786-.848 1.586-1.657 2.716-2.009a.13.13 0 0 0 .079-.163.13.13 0 0 0-.163-.079c-1.339.437-2.09 1.324-3.023 2.325-.146.156-.291.317-.437.472-.147.156-.309.302-.456.46a.1.1 0 0 0-.033.077l-1.791-.012c.075-.079.154-.155.228-.233.135-.147.269-.302.406-.446.63-.658 1.19-1.372 1.935-1.908.186-.133.39-.279.593-.385.171-.087.333-.198.513-.268l.021-.048-.048-.02a4 4 0 0 0-.605.225c-.77.372-1.494 1.163-2.054 1.797-.229.259-.457.522-.691.776-.136.148-.273.307-.417.447l-.067.062-.505-.001c-.123-.002-.245-.003-1.612-.064l.317-.26c.241-.197.474-.426.71-.631.605-.528 1.2-1.062 1.891-1.469.023-.012.032-.044.019-.068-.012-.023-.045-.032-.068-.019-.8.433-1.447 1.037-2.126 1.641-.311.274-.616.54-.939.793-.002-.077-.066-.125-.137-.121-.061.003-.11.044-.103.116a107 107 0 0 1-2.883-.079c.894-1.059 2.065-1.766 3.316-2.371.277-.133.551-.281.83-.407a.126.126 0 0 0-.109-.227c-.506.234-1.02.491-1.508.761-1.099.606-2.053 1.248-2.829 2.233q-1.317-.056-2.633-.123.136-.142.274-.282c.596-.612 1.168-1.159 1.848-1.669.263-.197.556-.364.837-.534a7 7 0 0 1 1.141-.565c-.423.079-.792.16-1.186.345-1.037.489-1.881 1.355-2.681 2.154-.174.172-.349.354-.52.537l-1.509-.074q-.322-.016-.646-.029l-.075-.006c.253-.271.514-.528.788-.784.189-.177.391-.334.588-.501.142-.121.308-.247.462-.352.183-.125.362-.269.553-.381.236-.139.467-.289.704-.426.296-.172.609-.321.911-.485.175-.096.345-.205.514-.311.029-.013.041-.049.029-.077a.06.06 0 0 0-.077-.028c-.243.082-.5.166-.731.279-.305.148-.614.331-.904.507a13.7 13.7 0 0 0-2.286 1.713c-.209.193-.4.397-.599.6a7 7 0 0 0-.214.224c-.319-.029-.638-.07-.955-.097a15 15 0 0 1-.822-.1q-.314-.046-.625-.085c.718-.752 1.535-1.275 2.416-1.86.469-.311.93-.626 1.392-.945.218-.15.419-.319.631-.476a.095.095 0 0 0 .016-.131.094.094 0 0 0-.131-.015c-.442.334-.874.66-1.34.965-1.107.726-2.231 1.468-3.133 2.442l-.112-.014c.131-1.149-.26-2.283-.8-3.282-.661-1.222-1.907-2.523-3.097-3.241a11 11 0 0 0-.811-.443 5.4 5.4 0 0 0-.946-.359q-.114-.026-.227-.056c-.096-.028-.191-.038-.287-.059a6 6 0 0 0-.925-.101 9 9 0 0 0-.529-.013q.174-.188.334-.385c.165-.204.336-.404.491-.616.169-.23.324-.467.49-.699a.11.11 0 0 0-.03-.155.11.11 0 0 0-.155.03c-.085.113-.163.242-.243.36-.078.115-.17.235-.252.348-.156.211-.329.408-.492.612a7 7 0 0 1-.453.509l-.029.001-.271.012-.743-.017c-.279-.002-.558.01-.837.016h-.002l-.001-.051c.087-.091.18-.18.269-.271.222-.233.464-.511.655-.767q.266-.352.536-.7c.627-.815 1.149-1.516 1.982-2.131a.16.16 0 0 0-.199-.251c-.131.093-.303.24-.415.355-.191.195-.374.374-.555.579-.356.402-.671.863-.988 1.297-.316.432-.636.891-.991 1.291q-.148.16-.3.314a30 30 0 0 0-.067-1.416l.014-.003c.178-.267.371-.523.554-.785.405-.58.856-1.167 1.321-1.7.432-.499.978-1.093 1.519-1.483a.104.104 0 0 0 .012-.144.1.1 0 0 0-.143-.012c-.907.755-1.643 1.721-2.338 2.667-.319.434-.648.887-.949 1.337l-.001-.017a46 46 0 0 0-.056-.621.34.34 0 0 0 .141-.163c.082-.271.3-.636.456-.875.478-.73 1.041-1.374 1.602-2.044.883-1.053 1.802-2.058 2.581-3.195a12.4 12.4 0 0 0 1.025-1.744c.065-.137.133-.288.182-.431.081-.237-.118-.367-.259-.516-.368-.388-.761-.77-1.143-1.143l-.503-.489.195-.132a.11.11 0 0 0 .025-.152.11.11 0 0 0-.152-.025c-.063.041-.121.092-.183.134q-.02.011-.039.025-.59-.567-1.178-1.137a9 9 0 0 1 1.635-1.08.054.054 0 0 0 .022-.072.054.054 0 0 0-.072-.022 9.4 9.4 0 0 0-1.654 1.108q-.318-.31-.633-.622c.754-.561 1.548-1.059 2.324-1.59-.162.016-.293.122-.429.199-.303.171-.596.37-.888.559q-.558.359-1.081.758a58 58 0 0 1-.602-.611 34 34 0 0 1-.822-.872c-.157-.174-.307-.353-.46-.53q.043-.044.083-.088c.215-.241.434-.479.648-.722.639-.728 1.271-1.433 2.073-1.978a.12.12 0 0 0 .028-.168.12.12 0 0 0-.168-.027c-.802.569-1.417 1.359-2.061 2.096-.208.238-.411.489-.627.719l-.064.067-.116-.134c-.018-.696-.05-1.393-.076-2.085l-.01-.221q.02-.354.044-.709c.129-.154.264-.307.395-.462.851-1.011 1.75-1.874 2.879-2.567a.14.14 0 0 0 .043-.191.14.14 0 0 0-.191-.043q-.26.175-.516.353c-.29.201-.566.458-.831.691-.241.211-.465.456-.687.688-.375.391-.726.81-1.074 1.228l.117-1.906c.117-.186.274-.376.412-.543.424-.518.864-.941 1.357-1.389.415-.378.898-.718 1.338-1.068a.07.07 0 0 0 .015-.099.07.07 0 0 0-.099-.016c-.563.361-1.066.773-1.548 1.236-.216.209-.463.434-.655.663-.268.32-.563.627-.805.97l.109-1.778c.902-.994 1.959-1.946 3.111-2.601a.048.048 0 1 0-.048-.082c-1.184.66-2.16 1.588-3.057 2.591l.094-1.543c.762-1.082 1.835-1.929 2.973-2.594a.112.112 0 0 0-.119-.19c-.885.56-1.713 1.196-2.411 1.98-.152.169-.29.348-.426.529.037-.626.062-1.254.095-1.881a9.6 9.6 0 0 1 1.095-.982c.119-.091.239-.189.358-.281a5.2 5.2 0 0 1 1.187-.675.144.144 0 0 0 .073-.188.144.144 0 0 0-.188-.073 4 4 0 0 0-.58.282c-.301.177-.557.352-.839.556-.078.057-.161.136-.232.201-.145.134-.286.258-.426.401q-.218.221-.432.448.016-.268.027-.54l.022-.014c.078-.114.191-.243.285-.345.278-.302.527-.559.841-.832.38-.332.773-.636 1.179-.935.453-.335.917-.647 1.363-.994a.09.09 0 0 0 .018-.126.09.09 0 0 0-.125-.018c-.373.243-.738.529-1.089.801-.397.307-.805.618-1.178.954-.368.33-.732.657-1.053 1.032-.08.093-.174.195-.254.298.03-.654.053-1.313.066-1.963l.006-.363c.967-.917 1.977-1.781 2.971-2.675.458-.411.897-.848 1.329-1.285a.075.075 0 0 0-.001-.104.073.073 0 0 0-.104.001c-.45.45-.882.92-1.352 1.35-.95.865-1.913 1.717-2.841 2.607.02-.876.043-1.753.036-2.63l-.007-.771c.178-.038.36-.078.533-.125.166-.047.333-.083.498-.133.965-.29 1.972-.603 2.857-1.064.293-.153.601-.36.862-.567.126-.1.254-.192.376-.297A19 19 0 0 0 10.184 12q.702-.767 1.309-1.61c.123-.169.254-.345.366-.521.191-.303.394-.6.571-.91.184-.322.362-.653.522-.993l.374-.485c.284-.364.566-.724.864-1.077q.106-.123.221-.244l.189-.199.043.153c.016.078.024.15.013.223.054-.059.052-.134.047-.217-.003-.04-.046-.223-.079-.246-.031-.029-.15.133-.179.162a10 10 0 0 0-.551.625c-.22.265-.429.545-.637.821l-.208.273c.287-.652.499-1.334.553-2.045l.004-.058a707 707 0 0 0 3.568.008m52.288.261c.58.14 1.122.348 1.65.603l.428.222.003 1.053c.01.393.034.784.081 1.163.053.432.109.837.233 1.255.079.265.173.484.286.734a.19.19 0 0 0 .245.091.186.186 0 0 0 .091-.245c-.411-.801-.516-1.909-.548-2.786a24 24 0 0 1-.019-1.033c0-.061.007-.182.002-.284q.297.29.548.631c.016.229.101.488.171.683.025.072.034.148.062.22l.057.124.055.286q.047.254.091.51l.008.237c.015.711-.01 1.435-.081 2.142-.046.451-.073.913-.135 1.361l-.017.136-.006-.083-.01-.13c-.007-.07-.001-.192-.028-.258-.052-.124-.217-.146-.308-.049-.097.101-.079.326-.069.453a1 1 0 0 0 .023.138l.033.123.11 1.668c-.374-.091-.75-.203-1.115-.315-.232-.071-.473-.144-.699-.231l-.538-.208a17 17 0 0 1-.334-.185c-.367-.21-.702-.469-1.045-.714-.36-.256-.708-.572-1.034-.869a13.8 13.8 0 0 1-2.49-3.055c-.397-.659-.793-1.509-.963-2.261l-.025-.12a5.6 5.6 0 0 1 .034-.838c0-.007 0-.013-.012-.013a.35.35 0 0 0 .189-.308.4.4 0 0 0-.005-.073q.503-.004 1.005.001c.797.007 1.595-.01 2.391-.004a.2.2 0 0 0 .107-.035c.524.052 1.048.133 1.578.263M8.978 5.768c.722.055 1.444.137 2.167.194.336.025.665.037.996.039l.126-.002h.004q-.103.165-.211.325-.296.432-.589.864a9 9 0 0 1-.475.627c-.352.432-.7.875-1.037 1.318a.198.198 0 0 0 .304.252c.176-.209.362-.405.535-.618q.344-.426.672-.876l.58-.808-.082.211c-.362.84-.761 1.618-1.228 2.405-.113.189-.232.383-.355.567a18 18 0 0 1-.975 1.198l-.088.095a.2.2 0 0 0-.034-.074.2.2 0 0 0-.277-.037c-.116.077-.229.148-.341.232-.25.188-.481.415-.715.623-.166.146-.34.285-.506.433-.596.53-1.14 1.017-1.77 1.441q-.361.13-.733.248c.505-.458.996-.932 1.52-1.369a.1.1 0 0 0 .013-.138.1.1 0 0 0-.137-.012c-.405.327-.804.639-1.241.923-.137.09-.276.192-.418.271-.209.115-.422.297-.616.441q-.175.126-.352.246l-.129.029-.151.032-.01-.312c-.013-.35-.034-.7-.046-1.049a.4.4 0 0 0-.259-.349l-.001-.016a28 28 0 0 1-.086-2.06q.11-.386.258-.759a.115.115 0 0 0-.066-.147.115.115 0 0 0-.147.066l-.045.099c.015-1.241.11-2.763.982-3.706.19-.206.396-.322.63-.464.085-.052.207-.086.299-.13.126-.06.505-.147.635-.151.322-.057.678-.083 1.005-.107a16 16 0 0 1 2.394.005m31.583.022q-.59.62-1.153 1.248-.537.596-1.057 1.206c-.839-.01-1.677.036-2.51.161q.392-.406.788-.807c.597-.608 1.2-1.214 1.812-1.809l1.431.001zm31.282.288.214.184.19.266q.069.103.125.212a6 6 0 0 0-.725-.763q.098.048.196.101m-16.018.38c-.076.035-.167.096-.239.139a18 18 0 0 0-.47.3c-.931.606-1.788 1.329-2.597 2.089q-.714.677-1.38 1.4a35 35 0 0 0-1.371 1.546c-.396.481-.802.956-1.199 1.438-.659.798-1.299 1.616-1.95 2.423a97 97 0 0 1-1.83 2.21c-.352.41-.719.819-1.087 1.216-.125.134-.257.263-.379.401l.001.059.06-.001c.246-.273.508-.539.758-.811.461-.5.904-1.032 1.345-1.55 1.322-1.559 2.581-3.173 3.897-4.739 1.536-1.828 3.202-3.615 5.092-5.085.517-.402 1.054-.79 1.615-1.131-.088-.044-.192.062-.266.096m.676 1.856a57 57 0 0 0-1.579 1.564c-.535.554-1.046 1.124-1.566 1.692-.587.642-1.148 1.309-1.711 1.972a128 128 0 0 0-2.566 3.131c-.852 1.068-1.706 2.144-2.57 3.201l-1.589 1.933c-.018.023-.015.059.007.077.023.019.059.016.077-.006.877-1.071 1.754-2.136 2.621-3.214.915-1.139 1.829-2.282 2.76-3.408.514-.62 1.024-1.244 1.552-1.851.76-.874 1.515-1.763 2.316-2.598.574-.599 1.143-1.197 1.735-1.777a54 54 0 0 1 1.683-1.563c.352-.317.706-.641 1.066-.948l.006-.06-.061-.006a23 23 0 0 0-2.181 1.861M14.57 6.675c-.017.035-.046.07-.063.104-.023.049-.079.1-.111.146.027-.042.074-.076.104-.115a1 1 0 0 0 .08-.112c.025-.038.045-.074.038-.181a.4.4 0 0 1-.048.158m26.793 12.126a49 49 0 0 0-2.253 3.332 62 62 0 0 1 2.253-3.332 62 62 0 0 1 2.204-2.899 68 68 0 0 1 2.473-2.907c.475-.527.957-1.047 1.437-1.57.786-.859 1.601-1.687 2.412-2.522a71 71 0 0 1 2.273-2.235l.002-.069-.069-.002c-3.976 3.714-7.617 7.756-10.732 12.204m25.98-9.686c-.024.168-.042.62.059.757.15.203.295.323.512.454.355.213.765.251 1.169.248.06 0 .161.001.217-.01.086-.019.109-.06.17-.107.169-.134.269-.354.324-.557a1.3 1.3 0 0 0-.015-.684l-.019-.067c.009-.147.063-.576.027-.69-.063-.198-.563-.476-.763-.523-.882-.206-1.55.295-1.681 1.179M5.864 8.143c-.109.022-.289.175-.379.246-.334.259-.506.587-.509 1.005-.001.082.03.163.049.241.049.193.246.406.403.519.388.278.852.353 1.308.255.072-.016.168-.036.233-.067.126-.059.346-.142.457-.253l.019-.023.039-.019a.3.3 0 0 0 .09-.084c.037-.063.029-.118.037-.187.036-.32.039-.654-.08-.957-.054-.137-.142-.248-.22-.369-.073-.115-.222-.308-.364-.314H6.22c-.105.001-.258-.014-.356.007m62.921.641a.93.93 0 0 1 .435.554l.02.094-.116.113a1.2 1.2 0 0 1-.26.18c-.285.138-.443.16-.679.025l-.103-.067-.043-.046a1 1 0 0 1-.118-.214l-.024-.082.006-.098q.01-.073.026-.138c.081-.304.291-.579.603-.621l.122-.003a.3.3 0 0 0 .131.303M6.091 8.637l-.049.053-.375.375c-.069.069-.061.117-.065.21a1 1 0 0 0 .039.346l.056.133-.034-.026-.042-.043c-.055-.074-.114-.129-.136-.222-.073-.31.105-.526.33-.702l.176-.124Zm.469.001.107.227c.037.075.077.149.131.227.055.081.156.213.194.299.058.13.119.202.099.302l-.007.023-.046.013-.09.025c-.254.06-.616.033-.835-.119a.5.5 0 0 1-.105-.106.7.7 0 0 1-.079-.242l-.001-.04.301-.37.213-.239Zm33.489.334c.286.037.583.068.879.106l.534.093-.064.201a6 6 0 0 1-.188.525c-.137.322-.255.651-.405.968a26 26 0 0 1-.842 1.66 115 115 0 0 0-1.464 1.717q-.575.689-1.138 1.39-.078-.164-.161-.325c-.329-.637-.701-1.268-1.061-1.888-.22-.38-.445-.769-.663-1.167q.524-.694 1.058-1.375c.141.533.28 1.073.583 1.542.079.123.288.451.423.491.067.02.247-.01.32-.032.71-.207 1.013-.924 1.177-1.587.032-.131.061-.268.097-.397.02-.072.052-.194.056-.265a.33.33 0 0 0-.034-.161c-.07-.139-.291-.245-.439-.288-.339-.102-.626-.056-.965.045-.082.025-.164.061-.245.084-.115.033-.25.083-.364.125a.346.346 0 0 0-.221.435c.059.18.255.279.435.22.306-.087.755-.342 1.114-.282l-.012.064c-.081.353-.186.746-.342 1.012-.092.156-.172.341-.337.438l-.1.047-.073-.072c-.429-.464-.609-1.031-.773-1.652a.2.2 0 0 0-.05-.083c.262-.332.528-.661 1.472-1.685.582-.001 1.215.02 1.793.096m-4.698 3.046c-.364-.68-.696-1.386-.933-2.108q.338-.364.68-.727l.148-.034a14.7 14.7 0 0 1 2.569-.268 79 79 0 0 0-2.464 3.137m-.432-2.79-.034.008Zm-.541.557q-.022-.07-.041-.139l-.067-.261.615-.149q-.256.272-.507.549m34.782.177-.04.048-.057.001.047-.021ZM7.601 13.191l-.106.071c.148-.129.306-.263.447-.397a1.6 1.6 0 0 1-.341.326m-5.144-.207q.033.23.058.46-.05.838-.095 1.676a.44.44 0 0 0-.11.173q.018-1.187.065-2.372.034.039.082.063m36.096 1.828-.878 1.294-.058.083-.019-.076q-.08-.156-.157-.314l.213-.259q.876-1.069 1.774-2.119c-.284.468-.57.936-.875 1.391m-22.276-.009c-.116.123-.225.262-.339.39-.228.258-.442.529-.667.79q-.534.624-1.062 1.255c-1.098 1.299-2.203 2.603-3.249 3.943a87 87 0 0 0-1.559 2.075c-.391.533-.776 1.09-1.142 1.654a.18.18 0 0 0-.124.084.18.18 0 0 0-.024.147l-.085.135q-.066-.02-.125-.035a.155.155 0 0 0-.193.099.153.153 0 0 0 .099.192l.052.015-.019.031a.19.19 0 0 0 .059.261.19.19 0 0 0 .261-.058q.03-.053.063-.102.066.028.13.058c.83.384 1.413.863 2.101 1.455.727.627 1.402 1.277 2.207 1.807.252.167.514.294.78.435a.271.271 0 0 0 .234-.49c-.132-.068-.276-.119-.41-.183a4 4 0 0 1-.215-.111c.107.014.215.016.323.017.113.001.3-.055.4-.106.095-.048.393-.445.456-.533.115-.159.245-.31.362-.468.421-.571.863-1.143 1.297-1.705.642-.833 1.259-1.69 1.887-2.534q.485-.652.965-1.31l.018.01a.16.16 0 0 0 .209-.08c.201-.436.508-.758.839-1.108.276-.291.566-.572.835-.87.107-.119.218-.236.313-.366.05-.068.111-.129.154-.201.061-.104.135-.194.192-.306.226-.448.309-.903.006-1.345-.158-.231-.314-.337-.532-.501a.4.4 0 0 0-.176-.055c-.331-.215-.67-.417-.995-.637-.589-.398-1.175-.792-1.751-1.212-.255-.186-.503-.386-.758-.57-.113-.082-.255-.231-.4-.241-.215-.015-.286.134-.417.274m-10.045.299a6 6 0 0 1-.591.462c-.467.316-1.108.765-1.356 1.294l.039.024c.25-.534.854-.94 1.308-1.281.207-.156.397-.309.591-.482.102-.092.18-.203.276-.296-.091.089-.17.192-.267.279m10.478.197 1.611 1.198q.946.662 1.926 1.281l.043.022a.3.3 0 0 0 .091.08c.121.068.254.127.353.228.366.371.013.922-.215 1.273-.208.318-.455.593-.696.883-.031-.046-.064-.089-.076-.107.018-.026.013-.064-.012-.082a.06.06 0 0 0-.082.012c-.05-.02-.23-.076-.279-.058-.036.014-.093.105-.116.139-.086.133-.194.272-.288.403-.304.419-.606.861-.924 1.27-.24.309-.471.644-.701.963-.16.224-.33.443-.491.666q-.59.82-1.19 1.632c-.375.508-.735 1.036-1.12 1.536-.193.249-.375.511-.564.763-.088.117-.202.248-.28.368-.015.021-.154.198-.229.29l-.072.025a.5.5 0 0 1-.138.012c-.414-.024-.971-.322-1.326-.531-.808-.478-1.608-1.109-2.333-1.706-.277-.229-.565-.441-.841-.665a4 4 0 0 0-.15-.115c.63-.95 1.299-1.855 1.997-2.765.346-.451.719-.887 1.078-1.328.395-.487.816-.957 1.226-1.431zm-14.322.429q-.047.932-.085 1.866a97 97 0 0 1 .003-2.014.4.4 0 0 0 .082.148m3.539 2.72a23 23 0 0 0-1.83 1.571l-.002.057.057.002c.498-.485 1.038-.921 1.565-1.373.299-.257.595-.518.895-.775-.234.161-.461.344-.685.518m10.574.025a.23.23 0 0 0 .088.314c.127.06.224.156.323.253.356.348.748.906 1.289.948.166.013.262-.022.414-.074a.247.247 0 0 0 .146-.316.247.247 0 0 0-.316-.146c-.029.012-.079.034-.106.041l-.064.008-.041-.003c-.155-.017-.322-.129-.436-.236a20 20 0 0 1-.298-.285c-.235-.229-.393-.432-.685-.592a.23.23 0 0 0-.314.088m50.162 1.996c-.144.125-.291.245-.433.37a45 45 0 0 0-2.25 2.139c-2.135 2.155-4.069 4.481-5.922 6.879a114 114 0 0 0-2.618 3.501.066.066 0 0 0 .014.091c.028.02.07.014.091-.015a99 99 0 0 1 2.469-3.29c.798-1.014 1.594-2.03 2.436-3.008 1.064-1.235 2.151-2.471 3.312-3.615a59 59 0 0 1 2.531-2.37c.556-.487 1.139-.946 1.713-1.411.43-.347.845-.713 1.276-1.057a.073.073 0 0 0 .015-.1.07.07 0 0 0-.099-.015c-.921.552-1.728 1.196-2.535 1.901m-11.777-1.282c.069.037.14.086.207.128a7 7 0 0 1 .529.364 123 123 0 0 0-5.484 6.065 5 5 0 0 1-.56-1.209 15 15 0 0 1-.14-.508 5.1 5.1 0 0 1-.037-2.138l.153-.565.02-.041.019-.04q.553-.739 1.12-1.469a4.93 4.93 0 0 1 2.531-1.117l.363-.024c.454.156.859.326 1.279.554m.585-.301.109.034q.274.108.537.244l-.096.101-.021-.016c-.107-.085-.224-.161-.335-.242Zm1.077.526.544.415.721.712-.333.344a6.4 6.4 0 0 0-1.31-1.496l.125-.126q.127.072.253.151m16.755.1v.071-.015zm.039 1.103c.02.686.041 1.373.065 2.077l-.026-.545a71 71 0 0 1-.075-2.173l-.003-.391zm-16.749.001q.269.34.484.694a88 88 0 0 0-2.168 2.402 119 119 0 0 0-3.026 3.632 3 3 0 0 1-.158-.067c-.072-.034-.143-.073-.216-.105l-.202-.121-.479-.43a5 5 0 0 1-.623-.773 101 101 0 0 1 3.517-3.923q1.01-1.075 2.047-2.131c.303.244.583.517.824.822m-41.605.031a.19.19 0 0 0 .119.238c.162.03.235.193.317.323.129.204.229.397.474.48a.19.19 0 0 0 .249-.105.19.19 0 0 0-.104-.248c-.168-.046-.269-.277-.355-.42a.9.9 0 0 0-.355-.348c-.035-.017-.073-.024-.107-.039a.19.19 0 0 0-.238.119m43.54.929c.042.096.111.243.132.342.025.121.069.256.099.38l.068.48.001.435q-.008.226-.042.45a5 5 0 0 1-.065.317l-.407.459c.16-1.123-.105-2.318-.704-3.343l-.059-.099.357-.363c.247.279.462.585.62.942m-.726 2.254c.002.249-.03.652-.105.888-.062.192-.101.389-.187.576l-.074.161-.143.17q-.471.554-.93 1.124a4.2 4.2 0 0 1-.988.551c-.095.037-.208.087-.306.113-.134.034-.281.08-.401.117-.105.013-.214.049-.32.067a5 5 0 0 1-.349.047c-.571.049-1.209.014-1.755-.171q-.15-.05-.3-.104.122-.154.245-.304c1.276-1.592 2.621-3.117 3.997-4.622q.47-.515.956-1.022c.418.729.653 1.511.66 2.409m-44.883-1.404c-.06.11-.02.249.091.309.307.145.541.359.804.565.201.157.439.304.677.394a.227.227 0 0 0 .181-.417 7 7 0 0 1-.359-.188c-.158-.091-.315-.23-.457-.344a4.5 4.5 0 0 0-.628-.41.227.227 0 0 0-.309.091m-1.734 1.526a.185.185 0 0 0 .134.224c.309.042.67.311.891.511.242.219.486.455.748.65.087.064.178.116.269.173a.226.226 0 1 0 .222-.393c-.75-.382-1.174-1.086-2.04-1.298a.185.185 0 0 0-.224.133m46.873 1.538-.092.119.049-.091a4.3 4.3 0 0 0 .253-.817q.181-.205.366-.408a5 5 0 0 1-.576 1.197m-49.543-.017-.125-.056.014-.024q.058.04.111.08m19.097 1.481c-.254.375-.532.748-.814 1.102-.723.908-1.502 1.767-2.189 2.702-.301.41-.567.846-.822 1.287-.075.13-.139.272-.21.405l-.024.044-.05-.042a.228.228 0 0 0-.294.348q.074.06.146.123l-.041.089a.126.126 0 1 0 .23.105l.01-.025c1.596 1.353 3.192 2.709 4.797 4.054q1.151.968 2.313 1.922c.37.303.737.614 1.111.912a336 336 0 0 0 2.815 2.229c1.138.89 2.312 1.747 3.486 2.588.74.53 1.497 1.026 2.257 1.527a.38.38 0 0 0 .289.051q.045.058.112.095a.36.36 0 0 0 .488-.143c.412-.761.868-1.513 1.383-2.21a36 36 0 0 1 2.301-2.772c.37-.409.738-.837 1.12-1.236a.485.485 0 0 0-.733-.634l-.147.169a.43.43 0 0 0-.17-.345q-.656-.513-1.312-1.022a32 32 0 0 0-.802-.703 150 150 0 0 0-4.485-3.709c-1.986-1.569-3.997-3.129-6.069-4.585-.523-.368-1.052-.745-1.589-1.09-.213-.138-.43-.273-.641-.413-.614-.406-1.312-.804-1.997-1.073-.24-.094-.355.082-.469.25m.454.428.015.006a.25.25 0 0 0 .103.176c.779.554 1.566 1.102 2.336 1.669a252 252 0 0 1 6.12 4.63c.603.475 1.211.946 1.812 1.423q1.131.894 2.256 1.794c.433.346.864.698 1.301 1.038a246 246 0 0 0 2.433 1.875.44.44 0 0 0 .347.083l-.462.576c-.393.487-.788.965-1.173 1.459-.7.896-1.336 1.789-1.929 2.756-.163.264-.333.545-.473.829l-.004-.004c-.786-.53-1.589-1.036-2.37-1.574l-.978-.677-.169-.157c-.283-.272-.585-.535-.879-.796-1.073-.95-2.233-1.835-3.375-2.701-2.041-1.547-4.147-3.008-6.169-4.583a55 55 0 0 1-.562-.442 899 899 0 0 1-2.255-1.898l.338-.587c.211-.38.413-.772.651-1.137.263-.3.54-.593.809-.888.377-.416.762-.838 1.162-1.232.348-.345.71-.676 1.063-1.014a.286.286 0 0 0-.068-.462Zm44.245 4.661.008.808a5 5 0 0 0-.161.165h-.008a3 3 0 0 1-.474-.134c-.13-.053-.27-.093-.401-.147-.392-.161-.95-.324-1.35-.114-.705.371-.665 1.376-.704 2.054a1 1 0 0 1-.041.228l-.068.185-.057.077a.3.3 0 0 1-.087.091c-.296.19-.682.138-1.014.072-.405-.081-.798-.195-1.203-.269-.186-.034-.376.033-.44.225-.023.067-.03.136-.042.206-.057.325-.043.618-.046.945-.001.133-.009.275-.005.406.002.08-.011.16-.025.24l-.021.13-.123.124-.093.01c-.136.011-.38-.025-.513-.043a5 5 0 0 0-.873-.054c.565-.711 1.135-1.418 1.699-2.129a2706 2706 0 0 0 4.469-5.657c.519-.659 1.034-1.325 1.561-1.977-.012 1.518-.004 3.039.012 4.558m.901 1.274c.033 1.614.041 3.227.059 4.84.011.99.011 1.98.006 2.986a601 601 0 0 1-.147-7.193c-.023-1.413-.039-2.83-.039-4.245l.001-.434.002-.474q.071 2.26.118 4.52M6.078 28.798l-.036.016a17 17 0 0 0-1.283.941 11.4 11.4 0 0 0-1.855 1.954.065.065 0 0 0 .01.09c.028.022.07.017.091-.01a9 9 0 0 1 1.057-1.179c.219-.204.451-.389.68-.581.435-.367.93-.748 1.413-1.049a.1.1 0 0 0 .027-.14.1.1 0 0 0-.066-.042Zm22.496 3.075c-.2.425-.137.639-.154 1.094-.002.052-.024.316-.016.341.013.041.072.068.109.041.304-.22.388-.622.555-.928l.117-.149.024.024c.109.147.137.333.188.532.051.196.081.382.156.574.041.103.143.341.255.388a.6.6 0 0 0 .179.029c.399.007.548-.269.785-.547l.026.079c.076.352.036.758.468.91.065.023.156.009.223-.001.08-.012.145-.046.216-.08.055-.026.121-.065.184-.108l.033-.023.063.073c.074.117.138.386.184.517.036.104.14.354.231.411a.18.18 0 0 0 .138.021c.004-.001.181.058.204.063l.12.015.018.076c.01.076.015.153.018.212.022.544-.074 1.287.563 1.533.077.03.168-.02.245-.037.102-.025.29-.139.378-.202l.275-.233.021.092c.083.391.176.96.63 1.083a.6.6 0 0 0 .257.003 1.2 1.2 0 0 0 .292-.125l.13-.089.11.124c.049.077.087.162.13.257a1 1 0 0 0 .069.128c.165.221.198.247.44.365.133.065.253-.06.359-.128.054-.035.119-.105.166-.151.072-.07.157-.156.247-.235l.04-.028.009.025c.034.129.072.251.102.382.112.488.212.959.735 1.137a.6.6 0 0 0 .207.025l.121-.005.036.029c.073.083.118.209.156.306.084.212.162.405.356.542.187.132.296.045.501.07.203.025.251.034.411.17a.223.223 0 0 0 .289-.341 1.6 1.6 0 0 0-.229-.165c-.149-.09-.397-.115-.607-.115l-.134-.006c-.082-.051-.189-.359-.226-.452-.053-.132-.11-.195-.189-.306-.055-.076-.205-.177-.3-.176-.09.001-.174.025-.263.001-.18-.049-.286-.24-.332-.417-.033-.126-.075-.251-.1-.38a3 3 0 0 0-.191-.665c-.069-.148-.204-.304-.376-.166a2.6 2.6 0 0 0-.382.392c-.063.076-.141.142-.208.214l-.125.086-.131-.079c-.16-.157-.203-.396-.348-.597-.071-.098-.212-.267-.349-.244-.073.013-.233.165-.318.21-.06.032-.11.047-.17.068l-.069.007c-.028-.018-.075-.015-.109-.047-.19-.179-.25-.598-.303-.838-.032-.145-.02-.449-.19-.499-.144-.043-.271.129-.361.223a1.6 1.6 0 0 1-.495.366l-.132.044-.03-.015c-.037-.031-.057-.056-.088-.087-.186-.182-.127-.873-.158-1.103-.019-.148-.012-.392-.098-.523-.064-.098-.158-.087-.249-.072l-.08-.017c-.047-.013-.113-.038-.179-.056l-.038-.002-.083-.17c-.102-.256-.16-.518-.329-.761-.022-.032-.088-.089-.12-.121-.083-.083-.177-.068-.266-.007-.118.079-.218.185-.346.228l-.108.013-.053-.027c-.1-.128-.098-.268-.133-.423-.055-.242-.058-.425-.203-.634-.127-.181-.291-.056-.381.074-.051.073-.105.146-.149.224-.099.177-.198.352-.361.394l-.141-.005-.039-.052c-.071-.129-.117-.309-.148-.417-.098-.337-.155-.868-.465-1.096-.187-.139-.323.06-.41.208-.143.239-.192.539-.282.801l-.06.108-.004-.102c-.013-.384-.054-.688.133-1.037a.05.05 0 0 0-.025-.068.053.053 0 0 0-.069.025m43.931 10.194.018.545q-.376.598-.748 1.198c-.276-.259-.54-.522-.805-.807-.757-.816-1.45-1.694-2.221-2.5a21 21 0 0 1 2.831-3.45c-.215.204-.442.398-.655.604-.186.18-.365.373-.547.559-.332.335-.629.703-.931 1.064-.287.345-.566.71-.829 1.087l-.032-.032a17 17 0 0 0-.91-.857l.206-.168c.397-.343.804-.669 1.189-1.027a47 47 0 0 1 1.746-1.569c.257-.215.529-.451.809-.637a.381.381 0 0 0-.453-.613c-.278.192-.528.413-.789.626-.601.495-1.142 1.043-1.715 1.568-.257.236-.524.51-.797.724-.178.139-.345.283-.517.424.366-.515.767-1.017 1.171-1.493 1.078-1.276 2.242-2.469 3.799-3.97.034 2.908.087 5.815.18 8.724M3.289 34.939q.608.67 1.228 1.329c-.416.351-.807.73-1.163 1.151-.017.022-.015.055.006.072.021.018.055.016.072-.006.144-.186.342-.395.513-.56.207-.201.418-.399.64-.585l.271.286.358.379a16 16 0 0 0-1.606 1.743l-.096-.059a6 6 0 0 0-.947-.474.12.12 0 0 0-.083-.006q-.003-.884-.001-1.779l.019-.361q.046.565.099 1.131c0 .053.044.096.098.096a.1.1 0 0 0 .097-.098c.038-.912.088-1.808.086-2.721l-.001-.006q.201.237.41.468m-.785 1.059-.004.071Zm3.889 2.212-.019.016c-.309.255-.614.504-.919.764-.248.211-.481.445-.717.671q-.103.096-.204.197l-.029-.088a1.4 1.4 0 0 0-.142-.289 2.4 2.4 0 0 0-.287-.356 3 3 0 0 0-.399-.33 15.4 15.4 0 0 1 1.601-1.724c.367.384.739.767 1.115 1.139m.141.141.846.847c-.337.23-.663.465-.976.731-.907.767-1.705 1.627-2.495 2.514l-.068.075.05-.09c.096-.173.186-.357.271-.536.273-.568.534-1.22.417-1.853a21 21 0 0 1 1.955-1.688m-3.091.605c-.332.428-.639.882-.946 1.326q-.001-.458-.005-.915l-.009-.914c.307.129.691.302.96.503m.532.493c.178.223.262.456.279.691a20 20 0 0 0-1.47 1.708q-.141.179-.281.364-.006-.96-.005-1.921l.04.029c.31-.442.632-.884.97-1.314.177.14.322.261.467.443m3.559-.097.007.007.719.72-.307.637c-.157.302-.342.579-.518.868-.045.074-.106.151-.156.224a26 26 0 0 1-.438.614c-.336.456-.698.904-1.064 1.339-.134.127-.259.254-.386.385a19 19 0 0 0-1.369 1.598c-.291.371-.602.733-.905 1.094a.074.074 0 0 0 .034.118 7 7 0 0 0-.292.455q-.087-.737-.166-1.473c.142-.123.286-.243.426-.372.387-.358.744-.778 1.089-1.175.65-.747 1.237-1.524 1.958-2.209.233-.221.469-.436.729-.625a.107.107 0 0 0 .018-.148.107.107 0 0 0-.148-.018c-.54.391-1.011.889-1.441 1.396-.398.468-.786.949-1.167 1.431-.32.404-.703.849-1.08 1.207-.102.097-.209.202-.317.293l-.083.068a20 20 0 0 1-.1-1.707c.022.021.045.014.061-.003l.097-.114a.33.33 0 0 0 .437-.141 35 35 0 0 1 .418-.82l.377-.416c1.08-1.193 2.202-2.369 3.567-3.233m-3.945 2.56c-.096.163-.21.323-.314.482l-.331.508a6 6 0 0 0-.353.613.33.33 0 0 0 .042.367l-.064.074a4.6 4.6 0 0 1-.051-.767 64 64 0 0 1-.013-.757 19 19 0 0 1 1.746-2.064c-.049.538-.387 1.08-.662 1.544m66.027.649a2 2 0 0 0-.172.116l-.401.281a21 21 0 0 0-1.113.842c-.055-.39-.146-.768-.39-1.082l-.038-.046q.388-.78.844-1.53c.43.463.847.943 1.27 1.419m1.485 1.569a32 32 0 0 0-.905.78c-.47-.494-1.339-.376-1.985-.254l-.152.026-.029-.119c-.031-.179-.05-.365-.072-.551l.292-.243c.465-.392.92-.793 1.383-1.188.473.533.954 1.061 1.468 1.549m1.5.658c-.561.434-1.096.902-1.607 1.395h-.335l-.038-.002.002-.045a2.2 2.2 0 0 0-.129-.834 1.3 1.3 0 0 0-.114-.227c.298-.262.598-.523.902-.774l.12.108-.488.784a.094.094 0 0 0 .031.13.096.096 0 0 0 .131-.031l.471-.755.138.118a.341.341 0 0 0 .452-.511l-.22-.202.617-.99zm1.398 1.371a.08.08 0 0 0-.089.006q-.16.105-.314.22.156-1.529.319-3.054.04 1.413.084 2.828m-1.36-.391q.018.528.04 1.058l-.037-.001-.652.005-.04-.101a1 1 0 0 0-.133-.277c-.126-.173-.339-.235-.563-.258.285-.277.603-.542.898-.801q.227-.201.457-.398zm-49.647.868c-.043.009-.096.014-.137.029a3 3 0 0 1-.239.072c-.401.105-.966.412-1.298.661a6 6 0 0 0-.828.743c-1.05 1.118-1.709 2.977-1.205 4.478.048.145.115.307.2.471l.04.138c.269.792.79 1.497 1.532 1.897.475.256.872.373 1.404.441.129.016.26.011.388.018.106.006.209-.006.314-.011a4.6 4.6 0 0 0 1.314-.288c1.507-.574 2.604-1.778 3.224-3.249.399-.945.551-1.832.203-2.831a3.8 3.8 0 0 0-1.179-1.637 7 7 0 0 0-.354-.263c-.06-.042-.13-.075-.189-.117-.1-.07-.234-.129-.343-.186-.609-.317-1.479-.497-2.163-.464a4 4 0 0 0-.684.098m50.565.128-.001.018.001-.01zm-49.056.459c1.056.209 2.004.755 2.557 1.703.141.241.211.45.292.713.108.352.092.791.038 1.151l-.112.447-.106.29c-.11.255-.212.492-.34.739a5.4 5.4 0 0 1-1.425 1.706c-.2.157-.404.271-.622.401a3.7 3.7 0 0 1-.857.351c-.945.267-1.954.2-2.764-.378a2.5 2.5 0 0 1-.493-.464c-.383-.496-.53-.953-.65-1.562-.149-.759-.095-1.63.039-2.436l.148-.741.206-.286c.264-.33.611-.664.913-.875.533-.371 1.046-.633 1.69-.752.106-.02.214-.029.32-.046l-.02.004c.243-.044.569-.024.817-.013.118.005.253.024.369.048m48.241.846c.04.658.073 1.319.108 1.978q.012.209.03.422l-.642-.16c-.651-.162-1.314-.364-1.988-.394a26 26 0 0 1 2.395-2.386l.067-.007q.012.274.03.547m.779-.535.002.041v.003zm-51.284 2.108a.135.135 0 0 0 0 .191h.191l.142-.15.09-.087.07.023c.672.256.831.889 1.166 1.504.228.416.532.738.948.963a.096.096 0 0 0 .13-.034.097.097 0 0 0-.034-.13c-.871-.48-.925-1.352-1.46-2.076a1.47 1.47 0 0 0-.65-.478c-.068-.027-.2-.078-.265-.043-.07.037-.265.249-.328.317m.045.753c.076.126.152.277.24.393.143.19.272.383.432.563.222.249.468.476.725.689.152.127.316.242.48.354.102.07.219.127.318.199a.257.257 0 0 0 .346-.101.256.256 0 0 0-.102-.346c-.921-.4-1.695-1.014-2.192-1.897a.144.144 0 0 0-.197-.051.144.144 0 0 0-.05.197m51.468.21v.073l-.057-.013-.011-.224.063-.079zm-2.324.456c.26.06.521.15.781.207q.168.036.346.084-.137.13-.275.255c-.12.107-.248.205-.365.313a.11.11 0 0 0-.013.155.11.11 0 0 0 .155.013c.239-.208.486-.421.722-.645a2.4 2.4 0 0 1 .416.267q-.014.58-.032 1.163c-.126.5-.17.984-.235 1.513-.04.318-.075.634-.119.949a3 3 0 0 1-.283.561.176.176 0 0 0-.24.084c-.053.096-.093.193-.151.288-.052.083-.117.164-.177.241-.205.266-.515.474-.825.645q-.135.062-.269.12c-.289.125-.567.202-.87.29a8 8 0 0 1-1.674.282c-.177.025-.348.035-.395.02-.194.003-.386-.012-.578-.018a.12.12 0 0 0-.11.058l-.202.002a8.5 8.5 0 0 1-2.04-.256l-.12-.037-.067-.363a7.4 7.4 0 0 1-.032-1.15q.212-.184.415-.374c.266-.254.481-.529.726-.799-.306.205-.601.409-.896.629a5 5 0 0 0-.221.175l.001-.006c.016-.211.041-.415.083-.619.266-.427.595-.867.922-1.247.302-.353.603-.687.943-1.007.267-.252.562-.519.861-.734a9 9 0 0 1 1.289-.796l.269-.118.113-.035q.382-.093.772-.143a5.6 5.6 0 0 1 1.076-.035zm2.117.598-.02.081a9 9 0 0 0-.115.644l-.011.069a.3.3 0 0 0-.086.046l.03-.697q.036.018.074.023a.2.2 0 0 0 .087-.011zm-6.098.247-.318.255c-.226.184-.428.397-.639.599a9 9 0 0 0-.73.808c-.294.362-.566.722-.814 1.089l.001-.004c.032-.179.069-.379.119-.548a6.6 6.6 0 0 1 2.047-2.012zm-61.996.124.445.037q.306.035.596.086c.178.032.376.065.55.113l.693.221c1.024.65 1.855 1.633 2.432 2.694.197.361.367.749.504 1.138l.174.616.032.137.114.606.026.269.01.126c.001.048.001.13.005.212a.2.2 0 0 0-.092.018l.014-.001-1.399.107-.077.003c-.23.01-.464.005-.695.012l-.391.007-.263-.014a30 30 0 0 1-1.54-.152 9 9 0 0 1-1.58-.33 9 9 0 0 1-.555-.553c-.347-.373-.682-.907-.916-1.381a6 6 0 0 1-.079-.379.177.177 0 0 0-.167-.171q-.216-.53-.371-1.07a18 18 0 0 1-.114-1.205l-.009-.132.002.015.083-.05a.5.5 0 0 0 .108-.131.7.7 0 0 0 .045-.212c.013-.173.037-.347.048-.52l.003-.056.025.002c.144.003.286.002.411-.004.332-.016.665-.021.997-.039zm63.127.949c-.301.094-.474.323-.612.593a1.8 1.8 0 0 0-.17.843l.017.199-.022.049-.029.061a.83.83 0 0 0-.027.533c.019.047.054.087.08.13.162.264.476.426.776.459.046.004.11.015.153.012l.107-.004.125.033c.388.071.781-.036 1.029-.389.043-.063.081-.131.119-.214l.03-.031q.1-.112.169-.228c.28-.481.124-1.037-.219-1.452l-.111-.114a.8.8 0 0 0-.234-.215l-.054-.033-.086-.056a1.6 1.6 0 0 0-.279-.133c-.242-.087-.377-.092-.627-.076-.045.003-.092.019-.135.033m-63.115.392c-.341.24-.584.533-.681.947a1 1 0 0 0-.033.351c.016.109.022.23.072.33.081.164.217.336.351.461.117.11.28.217.437.257q.144.034.281.033l.091-.008.111.018q.13.014.247-.008a1.05 1.05 0 0 0 .474-.198c.061-.043.19-.273.21-.342.027-.094.076-.181.099-.282q.027-.126.041-.277l.031-.125c.084-.392-.012-.784-.286-1.039l-.148-.112-.076-.091c-.067-.072-.104-.073-.194-.1-.341-.104-.737-.019-1.027.185m63.675.132c.036.013.083.03.13.049l.027.014.015.031q.032.045.082.074c.306.151.404.64.359.952-.014.093-.024.181-.046.274-.009.037-.028.076-.037.113l-.036.074a2 2 0 0 1-.431.228l-.164.045-.086-.018a.55.55 0 0 1-.21-.101c-.064-.053-.134-.101-.184-.17a1.3 1.3 0 0 1-.223-.55l-.004-.051.207-.017c.12-.001.231.077.333.135.07.043.165.02.208-.05a.15.15 0 0 0-.05-.207 1 1 0 0 0-.119-.072c-.1-.049-.216-.107-.329-.114a1.4 1.4 0 0 0-.193.006l-.056.003.002-.03q.031-.199.13-.373l.102-.147c.132-.165.361-.179.573-.098m-63.195.162.086.029c.136.015.304.039.438.107l.053.033.037.067c.026.052.05.106.068.146q.048.102.077.208l.015.071-.011.104a1.17 1.17 0 0 1-.395.662c-.146.116-.342.223-.536.171a.7.7 0 0 1-.317-.198l.008-.105c.046-.222.209-.428.381-.555a.123.123 0 0 0 .017-.173.124.124 0 0 0-.173-.017c-.188.12-.349.333-.434.567l-.02-.059c-.098-.426.249-.866.652-1.039Zm46.408 2.97c-.476.41-.916.859-1.381 1.28-.164.147-.327.298-.493.441-.154.134-.32.256-.479.383a.084.084 0 0 0-.014.116c.027.036.08.042.116.015.161-.134.332-.269.497-.4.085-.067.164-.147.245-.218.197-.171.387-.348.58-.525.319-.291.632-.59.964-.867.1-.084.199-.182.303-.26a25 25 0 0 1 .727-.525c.142-.099.298-.174.446-.261s.297-.167.449-.251a.054.054 0 0 0 .028-.069.054.054 0 0 0-.069-.029c-.697.155-1.388.713-1.919 1.17m-18.328 2.506a.133.133 0 0 0-.018.187.133.133 0 0 0 .187.018q1.679-1.395 3.364-2.779a.133.133 0 0 0 .018-.187.134.134 0 0 0-.187-.018 751 751 0 0 0-3.364 2.779m30.33-1.834.047.251-.086.024a.47.47 0 0 0-.25.336c-.42.036-.841.072-1.259.118.232-.345.582-.694.95-1.038a.093.093 0 0 0 .162-.021q.034-.098.073-.194.144-.129.292-.256a8 8 0 0 0 .071.78m3.949.542c-.049.012-.015.01.018-.003h.011zm-.088.016c-.034.001-.066.002.088-.016zm3.406.103-.106.041q.084-.039.165-.081a.14.14 0 0 1-.059.04m-.11.044-.004.001.008-.004zm-21.334 2.061c-.052.163-.192.4-.297.535a2.7 2.7 0 0 1-.707.649l.048-.087a.31.31 0 0 0-.554-.273c-.096.201-.196.399-.289.602a1 1 0 0 0-.038.097 2.7 2.7 0 0 1-.955.044l.021-.046-.139-.112a.11.11 0 0 0-.061-.145.113.113 0 0 0-.146.061l-.014-.002-.039-.05c-.086-.005-.293-.033-.358.049l-.014.021-.038-.02a3 3 0 0 1-.127-.175 1.9 1.9 0 0 1-.331-.91q.144-.008.289-.012a76 76 0 0 0 3.752-.243zm-23.969.256c.722.026 1.443.043 2.165.068l.223.007c-.095.14-.2.274-.295.367l-.157.143a.253.253 0 0 0-.487.119l.024.189a2.5 2.5 0 0 1-.952.156.274.274 0 0 0-.47-.049c-.533-.101-1.034-.355-1.356-.751a1.3 1.3 0 0 1-.164-.242q-.07-.012-.014-.068.742.033 1.483.061m19.293.136c.006.205.04.364.098.561q0 .007.008.012a1 1 0 0 0 .046.269c.095.381.252.746.472 1.054-.01.091-.018.176-.022.231-.006.063-.04.176-.055.212-.033.08-.069.246-.096.348-.01.035-.044.136-.06.196l-.002.022-.031.112a3 3 0 0 1-.121.394l-.025.089q-.079.265-.15.53a40 40 0 0 0-.273.728l-.243.007a.47.47 0 0 0-.454-.237c-.485.06-.985.086-1.472.105-.55.023-1.108.031-1.658.019-.863-.019-1.716-.049-2.579-.089-1.516-.07-3.032-.198-4.55-.244a87 87 0 0 0-1.611-.031c-.17-.002-.335.034-.503.056q-.204.025-.408.057c-.402.068-.805.129-1.207.197a.2.2 0 0 0-.041-.045.19.19 0 0 0-.26.037l-.05.07-.064.012-.458.084-.148-.016-.396-.051-.012-.049c-.025-.098-.062-.193-.093-.289a22 22 0 0 0-.204-.619 12 12 0 0 1-.226-.76c-.14-.527-.27-1.094-.277-1.641a.12.12 0 0 0-.038-.079l.003-.003c.189-.153.371-.291.518-.489.213-.287.355-.527.466-.801 1.34.033 2.682.042 4.022.066 1.935.033 3.882.025 5.816-.001.741-.01 1.483-.028 2.224-.037 1.023-.011 2.046-.062 3.067-.079q.522-.011 1.047-.035zm-17.394 2.877c.099.425.196.852.302 1.274q.055.224.103.455a.07.07 0 0 0-.053.061c-.003.039.025.078.064.081l.017.002q.055.284.103.564l-.032.006a.06.06 0 0 0-.048.069.06.06 0 0 0 .069.048l.03-.007c.034.205.099.414.131.621.041.264.069.519.101.783.02.164.024.332.021.501l-.012.416-.072.006a.95.95 0 0 1-.397-.067 2 2 0 0 1-.097-.114c-.269-.339-.414-.814-.566-1.213l-.028-.075-.077-.34a.3.3 0 0 0 .161-.382.3.3 0 0 0-.276-.186l-.028-.148-.135-.768c-.038-.221-.063-.446-.11-.664-.117-.543-.211-1.088-.314-1.634l-.077-.392c.325-.026.629-.094.93-.224.086.443.187.881.29 1.327m19.113-1.051c.231.117.481.202.739.253q-.015.045-.034.092c-.088.013-.19.017-.267.015a1.3 1.3 0 0 1-.625-.179l.086-.2zm.452.925h.049q-.025.07-.048.144c-.131.387-.286.795-.383 1.189-.205.833-.402 1.67-.676 2.482-.108.32-.228.651-.367.967a.8.8 0 0 1-.152.144l-.149.078-.026.003-.049-.012c-.161-.016-.326-.183-.439-.286a.7.7 0 0 1-.115-.166l-.005-.015a.1.1 0 0 0 .059.025.12.12 0 0 0 .129-.103c.024-.293.105-.604.197-.882.04-.12.154-.386.145-.503-.006-.066-.143-.093-.209-.12l.059-.028a.2.2 0 0 0 .075-.092.296.296 0 0 0 .107-.38.31.31 0 0 0-.043-.332.1.1 0 0 0 .027-.052q.057-.307.137-.613l.041-.082c.163-.333.35-.658.498-.997q.134-.301.274-.599c.25.138.537.221.864.23m-18.418 2.099-.023.006-.002-.009zm.39.248a8 8 0 0 0-.331.071l-.012-.046c.095-.001.249-.002.329-.029l.042-.018.125-.013.007-.001q-.077.019-.16.036m2.985.117.409.007c-.482.547-.851 1.168-1.264 1.801-.115.177-.23.36-.35.531-.094.136-.195.268-.287.404a.06.06 0 0 0 .012.081.06.06 0 0 0 .081-.013c.192-.273.392-.54.582-.816.271-.391.543-.77.837-1.143.23-.292.488-.588.775-.84q.278.004.557.013l.228.008a8.7 8.7 0 0 0-.994 1.277c-.116.174-.239.35-.344.532-.11.193-.214.392-.322.587-.112.2-.24.393-.347.592a.094.094 0 0 0 .03.128.093.093 0 0 0 .127-.031c.221-.363.471-.734.717-1.081.064-.09.125-.193.182-.288.074-.12.158-.236.234-.354a5.7 5.7 0 0 1 1.183-1.343q.485.02.968.046a9 9 0 0 0-.77.901c-.365.487-.736.983-1.026 1.519-.106.197-.221.388-.312.595a.07.07 0 0 0 .032.091.07.07 0 0 0 .091-.031c.196-.421.447-.815.713-1.195a8 8 0 0 1 .636-.813c.321-.358.66-.725 1.029-1.047l.896.051a4 4 0 0 0-.367.353c-.155.17-.296.333-.444.507-.152.18-.301.405-.434.6-.336.496-.641 1.008-.968 1.51a.145.145 0 0 0 .044.198.145.145 0 0 0 .198-.044c.231-.377.48-.76.729-1.126.49-.724 1.066-1.5 1.827-1.964l.61.035c-.389.388-.708.852-1.02 1.322-.123.186-.251.402-.385.577-.11.141-.203.298-.312.438-.101.13-.216.254-.313.383a.173.173 0 0 0 .02.244.174.174 0 0 0 .245-.02c.054-.073.121-.141.179-.211.045-.054.086-.116.133-.168.057-.064.108-.152.16-.221.118-.158.227-.321.339-.483.4-.58.755-1.115 1.256-1.609.081-.08.168-.15.256-.219l.201.011q.345.02.693.036c-.412.352-.825.867-1.135 1.285a17 17 0 0 1-1.261 1.549.096.096 0 0 0 .006.134.096.096 0 0 0 .134-.006c.129-.145.266-.284.394-.43.166-.189.326-.392.486-.586.62-.753 1.137-1.424 1.917-1.922q.372.014.74.022l.478.004c-.072.069-.138.14-.198.201-.706.702-1.308 1.583-1.909 2.375a.09.09 0 0 0 .017.122.09.09 0 0 0 .122-.017c.477-.645.991-1.275 1.552-1.849.145-.149.325-.322.487-.45.117-.091.31-.227.403-.337l.026-.035q.184.002.37.002a18 18 0 0 0 .443.015c-.562.525-1.036 1.172-1.463 1.774q-.326.457-.657.91a.11.11 0 0 0 .022.15.11.11 0 0 0 .15-.023c.199-.287.419-.564.623-.849.5-.701 1.019-1.318 1.678-1.866q.053-.045.108-.085.466.013.931.021a13 13 0 0 0-1.411 1.725 14 14 0 0 0-.46.689.15.15 0 0 0 .044.209.15.15 0 0 0 .209-.044c.59-.914 1.295-1.867 2.152-2.575q.187-.002.376-.008l-.027.077a2 2 0 0 0-.053.169c-.361.45-.559.993-.881 1.534-.055.094-.111.196-.175.284-.063.085-.132.163-.195.246a.183.183 0 0 0 .022.257.184.184 0 0 0 .257-.023c.081-.111.181-.21.254-.329.148-.244.283-.493.416-.741a.154.154 0 0 0 .118.152c.006.001.012.002.014-.009q.017.383.31.679l.01-.035-.014.052.03.008q.04.038.085.074c.083.066.218.183.315.218.058.02.112.053.169.076a.95.95 0 0 0 .432.054c.21-.018.443-.182.591-.33.324-.323.611-.848.785-1.268q.07-.172.143-.341c.046.115.096.224.138.343q.02.057.036.114.007.219.007.436c-.332.306-.723.84-.8 1.175a.197.197 0 0 0 .37.135c.087-.248.236-.497.418-.714l-.011.167q-.018.196-.04.384l-.031.074a2.3 2.3 0 0 1-.742.945c-.199.035-.405.057-.601.1-.174.038-.366.058-.542.085l-.655.1c-.773.116-1.561.226-2.314.308-.663.023-1.33.065-1.995.097-1.734.083-3.484.188-5.221.196-.658.003-1.322.01-1.984-.029-.213-.017-.426-.044-.639-.065q-.593-.06-1.185-.141l-1.18-.163-.424-.074c-.124-.024-.246-.055-.37-.078a6 6 0 0 1-.735-.2c-.527-.169-1.07-.404-1.529-.807q.176-.29.36-.575a.085.085 0 0 0-.026-.114.085.085 0 0 0-.114.027q-.184.284-.36.573l-.044-.042c-.106-.103-.291-.291-.355-.423a2 2 0 0 1-.074-.491c.153-.209.325-.406.504-.592.237.545.625 1.211 1.168 1.27.111.012.176.002.283-.013.234-.032.49-.235.645-.402.045-.048.099-.096.123-.159.037-.096.042-.367.039-.474q-.004-.172-.012-.336c.175-.217.344-.423.509-.654.334-.465.647-.889 1.133-1.173q.357-.02.713-.032c-.753.785-1.295 1.709-1.842 2.67a.06.06 0 0 0 .024.082.06.06 0 0 0 .082-.024c.54-.974 1.245-2.021 2.132-2.738l.097-.002q.057.005.114.007m-2.461.811c-.17.257-.348.503-.526.753l-.002.002c-.018-.136-.051-.282-.064-.415a2 2 0 0 0-.031-.188l.019-.032c.107-.313.344-.577.575-.817q.084-.002.158-.011.23-.03.473-.041a4.4 4.4 0 0 0-.602.749m-.732-.302-.013-.068a7 7 0 0 0-.068-.314 9 9 0 0 1 .328-.016l.041-.002c-.103.127-.205.26-.288.4m-2.255.827.093.273q.013.039.029.079l-.02.02a1.9 1.9 0 0 0-.514.707c.006-.015.007-.033-.011-.052-.039-.231-.006-.433.041-.651a.22.22 0 0 0 .222.1.22.22 0 0 0 .183-.253l-.047-.186zm18.12.665.007.049.003.015-.002-.002z" font-family="'Times New Roman'" font-size="16" style="stroke-width:.606933" transform="matrix(.8388 0 0 -.81233 5.585 68.21)"/></svg>